<?xml version="1.0" encoding="utf-8"?>
<!-- Generator: Adobe Illustrator 24.1.2, SVG Export Plug-In . SVG Version: 6.00 Build 0)  -->
<svg version="1.1" id="Layer_1" xmlns="http://www.w3.org/2000/svg" xmlns:xlink="http://www.w3.org/1999/xlink" x="0px" y="0px"
	 viewBox="0 0 1452 2484" style="enable-background:new 0 0 1452 2484;" xml:space="preserve">
<style type="text/css">
	.st0{fill-rule:evenodd;clip-rule:evenodd;fill:#736A5F;}
	.st1{fill-rule:evenodd;clip-rule:evenodd;fill:#BCBFBD;}
	.st2{fill-rule:evenodd;clip-rule:evenodd;fill:#C3C5C4;}
	.st3{fill-rule:evenodd;clip-rule:evenodd;fill:#A5A5A1;}
	.st4{fill-rule:evenodd;clip-rule:evenodd;fill:#FCFDFD;}
	.st5{fill-rule:evenodd;clip-rule:evenodd;fill:#42413C;}
	.st6{fill-rule:evenodd;clip-rule:evenodd;fill:#766E63;}
	.st7{fill-rule:evenodd;clip-rule:evenodd;fill:#BBBFBE;}
	.st8{fill-rule:evenodd;clip-rule:evenodd;fill:#FAFAFA;}
	.st9{fill-rule:evenodd;clip-rule:evenodd;fill:#736A60;}
	.st10{fill-rule:evenodd;clip-rule:evenodd;fill:#A1A19E;}
	.st11{fill-rule:evenodd;clip-rule:evenodd;fill:#44433E;}
	.st12{fill-rule:evenodd;clip-rule:evenodd;fill:#403F3A;}
	.st13{fill-rule:evenodd;clip-rule:evenodd;fill:#72695D;}
	.st14{fill-rule:evenodd;clip-rule:evenodd;fill:#BA9259;}
	.st15{fill-rule:evenodd;clip-rule:evenodd;fill:#B99259;}
	.st16{fill-rule:evenodd;clip-rule:evenodd;fill:#CBCECD;}
	.st17{fill-rule:evenodd;clip-rule:evenodd;fill:#B2B3AF;}
	.st18{fill-rule:evenodd;clip-rule:evenodd;fill:#71685D;}
	.st19{fill-rule:evenodd;clip-rule:evenodd;fill:#BBBEBC;}
	.st20{fill-rule:evenodd;clip-rule:evenodd;fill:#73695D;}
	.st21{fill-rule:evenodd;clip-rule:evenodd;fill:#BDC0BF;}
	.st22{fill-rule:evenodd;clip-rule:evenodd;fill:#766C61;}
	.st23{fill-rule:evenodd;clip-rule:evenodd;fill:#B1B3AE;}
	.st24{fill-rule:evenodd;clip-rule:evenodd;fill:#766D62;}
	.st25{fill-rule:evenodd;clip-rule:evenodd;fill:#70675B;}
	.st26{fill-rule:evenodd;clip-rule:evenodd;fill:#997F5B;}
	.st27{fill-rule:evenodd;clip-rule:evenodd;fill:#766D60;}
	.st28{fill-rule:evenodd;clip-rule:evenodd;fill:#413F3A;}
	.st29{fill-rule:evenodd;clip-rule:evenodd;fill:#756E65;}
	.st30{fill-rule:evenodd;clip-rule:evenodd;fill:#A5A49F;}
	.st31{fill-rule:evenodd;clip-rule:evenodd;fill:#7F7970;}
	.st32{fill-rule:evenodd;clip-rule:evenodd;fill:#9E9E9B;}
	.st33{fill-rule:evenodd;clip-rule:evenodd;fill:#A0A09D;}
	.st34{fill-rule:evenodd;clip-rule:evenodd;fill:#9F9F9C;}
	.st35{fill-rule:evenodd;clip-rule:evenodd;fill:#3D3C37;}
	.st36{fill-rule:evenodd;clip-rule:evenodd;fill:#AEB0AC;}
	.st37{fill-rule:evenodd;clip-rule:evenodd;fill:#70685D;}
	.st38{fill-rule:evenodd;clip-rule:evenodd;fill:#756D62;}
	.st39{fill-rule:evenodd;clip-rule:evenodd;fill:#3F3E39;}
	.st40{fill-rule:evenodd;clip-rule:evenodd;fill:#A4A4A2;}
	.st41{fill-rule:evenodd;clip-rule:evenodd;fill:#252525;}
	.st42{fill-rule:evenodd;clip-rule:evenodd;fill:#72695F;}
	.st43{fill-rule:evenodd;clip-rule:evenodd;fill:#CFD2D1;}
	.st44{fill-rule:evenodd;clip-rule:evenodd;fill:#726A5F;}
	.st45{fill-rule:evenodd;clip-rule:evenodd;fill:#282827;}
	.st46{fill-rule:evenodd;clip-rule:evenodd;fill:#CED1D0;}
	.st47{fill-rule:evenodd;clip-rule:evenodd;fill:#C3C7C6;}
	.st48{fill-rule:evenodd;clip-rule:evenodd;fill:#F8F8F8;}
	.st49{fill-rule:evenodd;clip-rule:evenodd;fill:#F7F7F7;}
	.st50{fill-rule:evenodd;clip-rule:evenodd;fill:#3E3D38;}
	.st51{fill-rule:evenodd;clip-rule:evenodd;fill:#AFB1AD;}
	.st52{fill-rule:evenodd;clip-rule:evenodd;fill:#BDC1C0;}
	.st53{fill-rule:evenodd;clip-rule:evenodd;fill:#746F6A;}
	.st54{fill-rule:evenodd;clip-rule:evenodd;fill:#C4C7C7;}
	.st55{fill-rule:evenodd;clip-rule:evenodd;fill:#FDFDFD;}
	.st56{fill-rule:evenodd;clip-rule:evenodd;fill:#252524;}
	.st57{fill-rule:evenodd;clip-rule:evenodd;fill:#71695E;}
	.st58{fill-rule:evenodd;clip-rule:evenodd;fill:#CBCDCC;}
	.st59{fill-rule:evenodd;clip-rule:evenodd;fill:#B1B3AF;}
	.st60{fill-rule:evenodd;clip-rule:evenodd;fill:#A3A3A0;}
	.st61{fill-rule:evenodd;clip-rule:evenodd;fill:#CDCFCE;}
	.st62{fill-rule:evenodd;clip-rule:evenodd;fill:#C4C8C7;}
	.st63{fill-rule:evenodd;clip-rule:evenodd;fill:#BEC2C1;}
	.st64{fill-rule:evenodd;clip-rule:evenodd;fill:#9D9D9B;}
	.st65{fill-rule:evenodd;clip-rule:evenodd;fill:#B2B4B0;}
	.st66{fill-rule:evenodd;clip-rule:evenodd;fill:#272727;}
	.st67{fill-rule:evenodd;clip-rule:evenodd;fill:#CDD0CF;}
	.st68{fill-rule:evenodd;clip-rule:evenodd;fill:#A5A6A3;}
	.st69{fill-rule:evenodd;clip-rule:evenodd;fill:#A2A29F;}
	.st70{fill-rule:evenodd;clip-rule:evenodd;fill:#C5C8C7;}
	.st71{fill-rule:evenodd;clip-rule:evenodd;fill:#3F3F3A;}
	.st72{fill-rule:evenodd;clip-rule:evenodd;fill:#746B60;}
	.st73{fill-rule:evenodd;clip-rule:evenodd;fill:#262625;}
	.st74{fill-rule:evenodd;clip-rule:evenodd;fill:#B0B2AE;}
	.st75{fill-rule:evenodd;clip-rule:evenodd;fill:#736B61;}
	.st76{fill-rule:evenodd;clip-rule:evenodd;fill:#736B60;}
	.st77{fill-rule:evenodd;clip-rule:evenodd;fill:#746C62;}
	.st78{fill-rule:evenodd;clip-rule:evenodd;fill:#B9BCBB;}
	.st79{fill-rule:evenodd;clip-rule:evenodd;fill:#C3C7C5;}
	.st80{fill-rule:evenodd;clip-rule:evenodd;fill:#746C61;}
	.st81{fill-rule:evenodd;clip-rule:evenodd;fill:#41403B;}
	.st82{fill-rule:evenodd;clip-rule:evenodd;fill:#B3B5B1;}
	.st83{fill-rule:evenodd;clip-rule:evenodd;fill:#41413C;}
	.st84{fill-rule:evenodd;clip-rule:evenodd;fill:#A5A5A2;}
	.st85{fill-rule:evenodd;clip-rule:evenodd;fill:#CACECC;}
	.st86{fill-rule:evenodd;clip-rule:evenodd;fill:#BABEBD;}
	.st87{fill-rule:evenodd;clip-rule:evenodd;fill:#B4B6B2;}
	.st88{fill-rule:evenodd;clip-rule:evenodd;fill:#B4B6B3;}
	.st89{fill-rule:evenodd;clip-rule:evenodd;fill:#262626;}
	.st90{fill-rule:evenodd;clip-rule:evenodd;fill:#726A60;}
	.st91{fill-rule:evenodd;clip-rule:evenodd;fill:#B3B6B5;}
	.st92{fill-rule:evenodd;clip-rule:evenodd;fill:#C1C5C3;}
	.st93{fill-rule:evenodd;clip-rule:evenodd;fill:#999996;}
	.st94{fill-rule:evenodd;clip-rule:evenodd;fill:#766D63;}
	.st95{fill-rule:evenodd;clip-rule:evenodd;fill:#BEC0BE;}
	.st96{fill-rule:evenodd;clip-rule:evenodd;fill:#242424;}
	.st97{fill-rule:evenodd;clip-rule:evenodd;fill:#72695E;}
	.st98{fill-rule:evenodd;clip-rule:evenodd;fill:#232323;}
	.st99{fill-rule:evenodd;clip-rule:evenodd;fill:#ACADA9;}
	.st100{fill-rule:evenodd;clip-rule:evenodd;fill:#A3A3A1;}
	.st101{fill-rule:evenodd;clip-rule:evenodd;fill:#6F685E;}
	.st102{fill-rule:evenodd;clip-rule:evenodd;fill:#C0C4C2;}
	.st103{fill-rule:evenodd;clip-rule:evenodd;fill:#A4A5A2;}
	.st104{fill-rule:evenodd;clip-rule:evenodd;fill:#BCC0BF;}
	.st105{fill-rule:evenodd;clip-rule:evenodd;fill:#B5B7B3;}
	.st106{fill-rule:evenodd;clip-rule:evenodd;fill:#746B61;}
	.st107{fill-rule:evenodd;clip-rule:evenodd;fill:#CCCECC;}
	.st108{fill-rule:evenodd;clip-rule:evenodd;fill:#B6B9B9;}
	.st109{fill-rule:evenodd;clip-rule:evenodd;fill:#CCCFCE;}
	.st110{fill-rule:evenodd;clip-rule:evenodd;fill:#CED0CF;}
	.st111{fill-rule:evenodd;clip-rule:evenodd;fill:#464540;}
	.st112{fill-rule:evenodd;clip-rule:evenodd;fill:#403F3B;}
	.st113{fill-rule:evenodd;clip-rule:evenodd;fill:#AAACA8;}
	.st114{fill-rule:evenodd;clip-rule:evenodd;fill:#B0B1AE;}
	.st115{fill-rule:evenodd;clip-rule:evenodd;fill:#ACAEAA;}
	.st116{fill-rule:evenodd;clip-rule:evenodd;fill:#A9AAA6;}
	.st117{fill-rule:evenodd;clip-rule:evenodd;fill:#B4B5B2;}
</style>
<g>
	<path class="st0" d="M691.5,82.5c0,19,0,38,0,57c-1.86,0.57-3.53,0.57-5,0c0.33-20.51,0-40.84-1-61c0-8.67,0-17.33,0-26
		c1.43-1.95,1.1-3.62-1-5c0.11-0.62,0.44-1.12,1-1.5c2.65-0.5,5.31-0.66,8-0.5c0.27,1.93-0.23,3.6-1.5,5
		C691.5,61.16,691.33,71.83,691.5,82.5z"/>
</g>
<g>
	<path class="st1" d="M684.5,47.5c2.1,1.38,2.43,3.05,1,5C682.03,51.42,681.7,49.76,684.5,47.5z"/>
</g>
<g>
	<path class="st2" d="M685.5,78.5c1,20.16,1.33,40.49,1,61c0.03,1-0.47,1.66-1.5,2c-2.73,0.56-5.39,1.23-8,2
		c0.58,2.49,1.75,4.82,3.5,7c-0.28,0.79-0.78,1.46-1.5,2c-0.23,18.02-0.73,36.02-1.5,54c-1,0.67-2,1.33-3,2
		c-0.17-23.07-1-46.07-2.5-69c0.9-1.2,2.07-2.04,3.5-2.5c3.32-0.5,6.65-0.66,10-0.5c0.33-15.35,0-30.68-1-46
		c-1.88-1.04-3.21-2.54-4-4.5C682.45,83.57,684.12,81.07,685.5,78.5z"/>
</g>
<g>
	<path class="st3" d="M691.5,82.5c0.83,9.49,1.33,19.16,1.5,29c3.28-4.11,4.11-3.61,2.5,1.5c-0.95,0.48-1.95,0.65-3,0.5
		c0,5.67,0,11.33,0,17c4,0.67,4,1.33,0,2c-0.3,2.1,0.03,4.1,1,6c2.48,1.98,4.82,4.15,7,6.5c3.68,0.68,6.18-0.82,7.5-4.5
		c3.65,3.12,5.65,7.12,6,12c2.3,2.43,5.14,3.43,8.5,3c0,2.33,0,4.67,0,7c-2.41-0.37-4.74-1.03-7-2c-1.61,0.14-2.94,0.8-4,2
		c2.24,0.97,4.58,1.31,7,1c0.2,1.89-0.46,3.39-2,4.5c-3.9,1.27-7.9,1.77-12,1.5c-0.01-1.52-0.68-2.68-2-3.5
		c-1.97-0.49-3.97-0.66-6-0.5c-0.89-4.94-1.23-9.94-1-15c-2.67,0-5.33,0-8,0c0.31,3.21-0.02,6.21-1,9c0-3,0-6,0-9c-2,0-4,0-6,0
		c-1.75-2.18-2.92-4.51-3.5-7c2.61-0.77,5.27-1.44,8-2c1.03-0.34,1.53-1,1.5-2c1.47,0.57,3.14,0.57,5,0
		C691.5,120.5,691.5,101.5,691.5,82.5z"/>
</g>
<g>
	<path class="st4" d="M680.5,150.5c2,0,4,0,6,0c0,3,0,6,0,9c0,12.33,0,24.67,0,37c-0.98,4.13-1.32,8.47-1,13
		c-3.44,0.67-6.11-0.33-8-3c0.77-17.98,1.27-35.98,1.5-54C679.72,151.96,680.22,151.29,680.5,150.5z"/>
</g>
<g>
	<path class="st5" d="M696.5,165.5c0,8,0,16,0,24c-0.96,6.24-1.29,12.58-1,19c-3,0-6,0-9,0c0-4,0-8,0-12c0-12.33,0-24.67,0-37
		c0.98-2.79,1.31-5.79,1-9c2.67,0,5.33,0,8,0C695.27,155.56,695.61,160.56,696.5,165.5z"/>
</g>
<g>
	<path class="st6" d="M768.5,154.5c-1.32,2.19-3.32,3.69-6,4.5c-13.05,4.4-26.39,5.57-40,3.5c0-2.33,0-4.67,0-7
		c8.92-0.81,17.92-1.31,27-1.5c4.22-1.36,8.39-2.86,12.5-4.5C765.46,149.63,767.62,151.3,768.5,154.5z"/>
</g>
<g>
	<path class="st7" d="M768.5,154.5c2.87,1.27,3.53,3.27,2,6c-2.32,1.82-4.48,3.82-6.5,6c-2.13,4.09-4.63,7.92-7.5,11.5
		c-4.58,1.15-9.25,1.81-14,2c-3.93,2.81-8.27,4.14-13,4c-3.24-3.46-6.24-7.12-9-11c-2.2-0.82-4.03-0.32-5.5,1.5
		c-0.67,8.67-0.67,17.33,0,26c1.46,5.63,4.96,8.96,10.5,10c-4.33,0-8.67,0-13,0c-5.89,0.51-11.55-0.15-17-2
		c-0.29-6.42,0.04-12.76,1-19c0.96,0.45,1.79,1.12,2.5,2c0.33,4,0.67,8,1,12c0.42,1.17,1.09,2.17,2,3c1.12-12.32,1.95-24.65,2.5-37
		c4.1,0.27,8.1-0.23,12-1.5c1.54-1.11,2.2-2.61,2-4.5c-2.42,0.31-4.76-0.03-7-1c1.06-1.2,2.39-1.86,4-2c2.26,0.97,4.59,1.63,7,2
		c13.61,2.07,26.95,0.9,40-3.5C765.18,158.19,767.18,156.69,768.5,154.5z"/>
</g>
<g>
	<path class="st8" d="M696.5,165.5c2.03-0.16,4.03,0.01,6,0.5c1.32,0.82,1.99,1.98,2,3.5c-0.55,12.35-1.38,24.68-2.5,37
		c-0.91-0.83-1.58-1.83-2-3c-0.33-4-0.67-8-1-12c-0.71-0.88-1.54-1.55-2.5-2C696.5,181.5,696.5,173.5,696.5,165.5z"/>
</g>
<g>
	<path class="st9" d="M729.5,165.5c4.71-0.33,9.38,0.01,14,1c-3.24,6.13-8.24,10.13-15,12C727.05,173.98,727.39,169.65,729.5,165.5z
		"/>
</g>
<g>
	<path class="st10" d="M686.5,196.5c0,4,0,8,0,12c3,0,6,0,9,0c5.45,1.85,11.11,2.51,17,2c-0.16,2.03,0.01,4.03,0.5,6
		c0.96,1.39,2.29,2.06,4,2c5.46-0.76,10.63-2.09,15.5-4c2.96,2.6,4.29,5.93,4,10c-2.75-0.97-5.58-1.64-8.5-2
		c-10.61,1.48-21.28,2.15-32,2c-16.16-0.51-32.33-0.85-48.5-1c-0.43-3.38,0.23-6.38,2-9c3.56,1.82,7.56,2.98,12,3.5
		c7.55,1.61,10.55-1.22,9-8.5c1.46,0.07,2.79-0.27,4-1c1-0.67,2-1.33,3-2c1.89,2.67,4.56,3.67,8,3
		C685.18,204.97,685.52,200.63,686.5,196.5z"/>
</g>
<g>
	<path class="st11" d="M670.5,209.5c1.55,7.28-1.45,10.11-9,8.5c-4.44-0.52-8.44-1.68-12-3.5c2.39-2.53,5.39-4.03,9-4.5
		C662.59,209.15,666.59,208.98,670.5,209.5z"/>
</g>
<g>
	<path class="st12" d="M712.5,210.5c4.33,0,8.67,0,13,0c3.05,0.23,5.38,1.56,7,4c-4.87,1.91-10.04,3.24-15.5,4
		c-1.71,0.06-3.04-0.61-4-2C712.51,214.53,712.34,212.53,712.5,210.5z"/>
</g>
<g>
	<path class="st13" d="M736.5,224.5c3.44,1.45,7.1,2.45,11,3c12.7,5.29,25.7,10.13,39,14.5c10.17,0.3,20.33,0.14,30.5-0.5
		c32.23,2.47,64.39,5.63,96.5,9.5c15.08,2.86,30.08,6.03,45,9.5c2.27,0.92,4.6,1.76,7,2.5c1.53,2.69,3.53,4.86,6,6.5c0,5,0,10,0,15
		c-3.5,3.16-7.5,5.49-12,7c-10.89-1.54-21.89-2.37-33-2.5c-12.24-2.52-24.24-5.86-36-10c-15.87-3.21-31.87-5.55-48-7
		c-10.15-1.94-19.82-5.27-29-10c-3-0.89-5.66-0.39-8,1.5c-14.63-7.31-28.96-15.15-43-23.5c-21.17-7.74-42.83-9.57-65-5.5
		c-1.33,0-2.67,0-4,0c-3.68,0.22-7.35,0.56-11,1c-2.82,0.37-5.65,0.7-8.5,1c-4.52-1.01-9.02-2.18-13.5-3.5
		c-9.16-1.09-18.16-0.43-27,2c-0.84,1.01-1.17,2.18-1,3.5c-2.78-0.22-5.45,0.11-8,1c-7.32,0.16-12.99,3.16-17,9
		c-3.79,1.4-7.46,3.06-11,5c-23.38,11.74-48.05,18.91-74,21.5c-9.55,3.23-18.88,6.73-28,10.5c-2.36,0.17-4.69,0.51-7,1
		c-2.99-0.65-5.99-1.32-9-2c-16.28,3.39-32.61,6.39-49,9c-1.67,0-3.33,0-5,0c-3.94-3.43-7.77-7.1-11.5-11
		c-1.08-2.56-1.58-5.23-1.5-8c0.92-2.59,2.59-4.59,5-6c12.27-3.79,24.61-7.62,37-11.5c31.67-4.33,63.34-8.67,95-13
		c7.33-0.67,14.67-0.67,22,0c7.02,3.18,14.35,4.18,22,3c4.62-1.31,8.62-3.64,12-7c6.59-2.53,13.26-4.86,20-7
		c2.61-0.79,4.61-2.29,6-4.5c5.87-1.07,11.53-2.73,17-5c16.17,0.15,32.34,0.49,48.5,1c10.72,0.15,21.39-0.52,32-2
		C730.92,222.86,733.75,223.53,736.5,224.5z"/>
</g>
<g>
	<path class="st0" d="M747.5,227.5c62.45,1.19,124.12,8.69,185,22.5c9.36,2.06,18.02,5.56,26,10.5c-14.92-3.47-29.92-6.64-45-9.5
		c-32.11-3.87-64.27-7.03-96.5-9.5c-10.17,0.64-20.33,0.8-30.5,0.5C773.2,237.63,760.2,232.79,747.5,227.5z"/>
</g>
<g>
	<path class="st9" d="M630.5,228.5c-1.39,2.21-3.39,3.71-6,4.5c-6.74,2.14-13.41,4.47-20,7c-3.38,3.36-7.38,5.69-12,7
		c-7.65,1.18-14.98,0.18-22-3c-7.33-0.67-14.67-0.67-22,0c-31.66,4.33-63.33,8.67-95,13c-12.39,3.88-24.73,7.71-37,11.5
		c6.46-6.12,14.13-10.29,23-12.5C502.39,241.37,566.06,232.21,630.5,228.5z"/>
</g>
<g>
	<path class="st14" d="M682.5,235.5c1.01,1.9,1.18,3.9,0.5,6c-2.67,4-5.33,8-8,12c-0.5,2.31-0.66,4.64-0.5,7
		c-1.1,1.11-1.77,2.44-2,4c-3.53,6.39-3.7,13.05-0.5,20c0.67,3,0.67,6,0,9c-2.25,3.92-4.92,7.59-8,11c-2.2,4.11-3.7,8.44-4.5,13
		c-2.89-0.31-5.55,0.03-8,1c-5.68-0.17-11.34,0-17,0.5c-0.75,0.67-1.09,1.5-1,2.5c-13,0.17-26,0-39-0.5
		c-27.98-2.05-55.98-3.55-84-4.5c-6.91-1.68-13.91-3.52-21-5.5c-16.88-1.41-33.55-4.07-50-8c-2.7-1.01-5.04-2.51-7-4.5
		c4.67-0.67,9.33-1.33,14-2c14.83,0.71,28.5-2.63,41-10c2.31-0.49,4.64-0.83,7-1c6.85,3.39,14.18,5.55,22,6.5
		c13.09,1,26.09,0.33,39-2c10.5-3.28,20.84-6.95,31-11c4.33-0.33,8.67-0.67,13-1c1.09-2.06,1.26-4.23,0.5-6.5
		c-4.4-1.97-8.57-4.3-12.5-7c2.43-2.48,5.43-3.82,9-4c7.63,2.37,15.3,2.54,23,0.5c5.34-3.51,7.17-8.34,5.5-14.5
		c-0.42-1.26-1.25-1.92-2.5-2c0.94-1.55,1.61-3.22,2-5c2.55-0.89,5.22-1.22,8-1c-0.17-1.32,0.16-2.49,1-3.5
		c8.84-2.43,17.84-3.09,27-2c4.48,1.32,8.98,2.49,13.5,3.5C676.85,236.2,679.68,235.87,682.5,235.5z"/>
</g>
<g>
	<path class="st15" d="M805.5,263.5c-0.42,0.72-1.08,1.22-2,1.5c-6.67,0.33-13.33,0.67-20,1c-3.73,3.71-8.07,6.71-13,9
		c-3.67,0.33-7.33,0.67-11,1c-1.49,5.52,0.17,9.85,5,13c16.37,0.71,32.7,0.21,49-1.5c14.59,2.1,29.26,3.77,44,5
		c5.33-0.77,10.66-0.93,16-0.5c2.19,2.62,3.52,5.62,4,9c2.83,0.17,5.67,0.33,8.5,0.5c24.49-4.34,48.99-7.67,73.5-10
		c4.5-1.51,8.5-3.84,12-7c0.34,0.84,1.01,1.17,2,1c-3.56,6.06-8.56,10.56-15,13.5c-8.81,2.99-17.81,5.16-27,6.5
		c-1.95-0.49-3.95-0.83-6-1c-33.52,5.4-67.19,9.57-101,12.5c-1.32,0.82-1.99,1.98-2,3.5c-1,0-2,0-3,0c-2.26-1.42-4.76-2.09-7.5-2
		c-21.1,2.28-42.27,3.28-63.5,3c-0.56-1.29-1.56-2.12-3-2.5c-3.65-0.5-7.32-0.67-11-0.5c0.17-5.01,0-10.01-0.5-15
		c-1.17-1.83-2.67-3.33-4.5-4.5c-13.45-3.12-19.45-11.62-18-25.5c-0.65-5.77-1.81-11.44-3.5-17c-3-4.67-6-9.33-9-14
		c-1.08-2.56-1.58-5.23-1.5-8c22.17-4.07,43.83-2.24,65,5.5C776.54,248.35,790.87,256.19,805.5,263.5z"/>
</g>
<g>
	<path class="st16" d="M693.5,234.5c1.33,0,2.67,0,4,0c-0.08,2.77,0.42,5.44,1.5,8c3,4.67,6,9.33,9,14c1.69,5.56,2.85,11.23,3.5,17
		c-4.35-0.17-8.68,0-13,0.5c-2.17,0.83-3.67,2.33-4.5,4.5c-0.03,11.26-0.86,22.42-2.5,33.5c0,2.59,1,4.59,3,6
		c12.33,0.5,24.66,0.67,37,0.5c0,1,0,2,0,3c-5.86-0.32-11.53,0.01-17,1c-27.02,1.38-54.02,1.05-81-1c-0.09-1,0.25-1.83,1-2.5
		c5.66-0.5,11.32-0.67,17-0.5c10.34,0.17,20.67,0,31-0.5c2.17-0.83,3.67-2.33,4.5-4.5c1.59-13.28,1.92-26.61,1-40
		c-0.57-1.99-1.74-3.49-3.5-4.5c-3.99-0.5-7.99-0.67-12-0.5c0-1.33,0-2.67,0-4c0.23-1.56,0.9-2.89,2-4c3.51,0.51,6.67-0.16,9.5-2
		c1.64-7.63,3.14-15.29,4.5-23C690.41,235.78,692.08,235.45,693.5,234.5z"/>
</g>
<g>
	<path class="st17" d="M693.5,234.5c-1.42,0.95-3.09,1.28-5,1c-1.36,7.71-2.86,15.37-4.5,23c-2.83,1.84-5.99,2.51-9.5,2
		c-0.16-2.36,0-4.69,0.5-7c2.67-4,5.33-8,8-12c0.68-2.1,0.51-4.1-0.5-6C686.15,235.06,689.82,234.72,693.5,234.5z"/>
</g>
<g>
	<path class="st18" d="M624.5,239.5c-0.39,1.78-1.06,3.45-2,5c-3.22,0.61-6.22,1.78-9,3.5c-1.97,0.49-3.97,0.66-6,0.5
		C611.51,242.66,617.18,239.66,624.5,239.5z"/>
</g>
<g>
	<path class="st19" d="M622.5,244.5c1.25,0.08,2.08,0.74,2.5,2c1.67,6.16-0.16,10.99-5.5,14.5c-7.7,2.04-15.37,1.87-23-0.5
		c0-2.33,0-4.67,0-7c3.54-1.94,7.21-3.6,11-5c2.03,0.16,4.03-0.01,6-0.5C616.28,246.28,619.28,245.11,622.5,244.5z"/>
</g>
<g>
	<path class="st20" d="M720.5,252.5c2.22-0.32,4.06,0.35,5.5,2c-0.43,11.39,5.07,16.22,16.5,14.5c4.05,3.58,4.72,7.58,2,12
		c-8.22,5.32-15.72,4.49-22.5-2.5c0.13-7-0.7-14-2.5-21C719.59,255.74,719.92,254.08,720.5,252.5z"/>
</g>
<g>
	<path class="st13" d="M596.5,253.5c0,2.33,0,4.67,0,7c-3.57,0.18-6.57,1.52-9,4c3.93,2.7,8.1,5.03,12.5,7
		c0.76,2.27,0.59,4.44-0.5,6.5c-4.33,0.33-8.67,0.67-13,1c-10.16,4.05-20.5,7.72-31,11c-12.91,2.33-25.91,3-39,2
		c-7.82-0.95-15.15-3.11-22-6.5c9.12-3.77,18.45-7.27,28-10.5C548.45,272.41,573.12,265.24,596.5,253.5z"/>
</g>
<g>
	<path class="st13" d="M959.5,291.5c-24.51,2.33-49.01,5.66-73.5,10c-2.83-0.17-5.67-0.33-8.5-0.5c-0.48-3.38-1.81-6.38-4-9
		c-5.34-0.43-10.67-0.27-16,0.5c-14.74-1.23-29.41-2.9-44-5c-16.3,1.71-32.63,2.21-49,1.5c-4.83-3.15-6.49-7.48-5-13
		c3.67-0.33,7.33-0.67,11-1c4.93-2.29,9.27-5.29,13-9c6.67-0.33,13.33-0.67,20-1c0.92-0.28,1.58-0.78,2-1.5c2.34-1.89,5-2.39,8-1.5
		c9.18,4.73,18.85,8.06,29,10c16.13,1.45,32.13,3.79,48,7c11.76,4.14,23.76,7.48,36,10C937.61,289.13,948.61,289.96,959.5,291.5z"/>
</g>
<g>
	<path class="st21" d="M672.5,264.5c0,1.33,0,2.67,0,4c4.01-0.17,8.01,0,12,0.5c1.76,1.01,2.93,2.51,3.5,4.5
		c0.92,13.39,0.59,26.72-1,40c-0.83,2.17-2.33,3.67-4.5,4.5c-10.33,0.5-20.66,0.67-31,0.5c2.45-0.97,5.11-1.31,8-1
		c0.8-4.56,2.3-8.89,4.5-13c3.08-3.41,5.75-7.08,8-11c0.67-3,0.67-6,0-9C668.8,277.55,668.97,270.89,672.5,264.5z"/>
</g>
<g>
	<path class="st22" d="M971.5,269.5c5.81,4.68,6.48,10.02,2,16c-0.99,0.17-1.66-0.16-2-1C971.5,279.5,971.5,274.5,971.5,269.5z"/>
</g>
<g>
	<path class="st23" d="M711.5,273.5c-1.45,13.88,4.55,22.38,18,25.5c1.83,1.17,3.33,2.67,4.5,4.5c0.5,4.99,0.67,9.99,0.5,15
		c3.68-0.17,7.35,0,11,0.5c1.44,0.38,2.44,1.21,3,2.5c-11.31,0.83-22.65,1.16-34,1c5.47-0.99,11.14-1.32,17-1c0-1,0-2,0-3
		c-12.34,0.17-24.67,0-37-0.5c-2-1.41-3-3.41-3-6c1.64-11.08,2.47-22.24,2.5-33.5c0.83-2.17,2.33-3.67,4.5-4.5
		C702.82,273.5,707.15,273.33,711.5,273.5z"/>
</g>
<g>
	<path class="st24" d="M411.5,274.5c-0.08,2.77,0.42,5.44,1.5,8c3.73,3.9,7.56,7.57,11.5,11c0.01,1.52,0.68,2.68,2,3.5
		c2.09,0.32,4.09,0.82,6,1.5c1.96,1.99,4.3,3.49,7,4.5c16.45,3.93,33.12,6.59,50,8c7.09,1.98,14.09,3.82,21,5.5
		c-2.69-0.16-5.35,0-8,0.5c-0.56,0.38-0.89,0.88-1,1.5c-30.15-0.79-58.49-8.29-85-22.5C408.14,290.14,406.47,282.98,411.5,274.5z"/>
</g>
<g>
	<path class="st25" d="M487.5,286.5c-12.5,7.37-26.17,10.71-41,10c-4.71,0.33-9.38-0.01-14-1c-1.1-0.68-2.1-1.34-3-2
		c16.39-2.61,32.72-5.61,49-9C481.51,285.18,484.51,285.85,487.5,286.5z"/>
</g>
<g>
	<path class="st26" d="M424.5,293.5c1.67,0,3.33,0,5,0c0.9,0.66,1.9,1.32,3,2c4.62,0.99,9.29,1.33,14,1c-4.67,0.67-9.33,1.33-14,2
		c-1.91-0.68-3.91-1.18-6-1.5C425.18,296.18,424.51,295.02,424.5,293.5z"/>
</g>
<g>
	<path class="st27" d="M931.5,305.5c-32.91,9.23-66.58,14.56-101,16c-2.78,0.22-5.45-0.11-8-1c0.01-1.52,0.68-2.68,2-3.5
		c33.81-2.93,67.48-7.1,101-12.5C927.55,304.67,929.55,305.01,931.5,305.5z"/>
</g>
<g>
	<path class="st28" d="M510.5,316.5c28.02,0.95,56.02,2.45,84,4.5c13,0.5,26,0.67,39,0.5c26.98,2.05,53.98,2.38,81,1
		c11.35,0.16,22.69-0.17,34-1c21.23,0.28,42.4-0.72,63.5-3c2.74-0.09,5.24,0.58,7.5,2c0,1,0,2,0,3c-6.01,0.2-12.01,0.53-18,1
		c-3.81-1.14-7.81-1.31-12-0.5c-3.41,1-6.74,1.83-10,2.5c-2,0-4,0-6,0c-5.68-0.17-11.34,0-17,0.5c-1.24,0.23-2.24,0.73-3,1.5
		c-2.67,0-5.33,0-8,0c-44.34,0.02-88.67,0.35-133,1c-12.69-1.15-25.36-2.49-38-4c-7.45-1.47-15.12-2.14-23-2c-3.33,0-6.67,0-10,0
		c-6.94-2.67-14.27-3.67-22-3c-6.08-0.37-12.08-1.04-18-2c0.11-0.62,0.44-1.12,1-1.5C505.15,316.5,507.81,316.34,510.5,316.5z"/>
</g>
<g>
	<path class="st29" d="M519.5,320.5c7.73-0.67,15.06,0.33,22,3C533.78,324.1,526.45,323.1,519.5,320.5z"/>
</g>
<g>
	<path class="st30" d="M819.5,320.5c1,0,2,0,3,0c2.55,0.89,5.22,1.22,8,1c-0.45,0.96-1.12,1.79-2,2.5c-3.05,0.63-6.05,0.47-9-0.5
		C819.5,322.5,819.5,321.5,819.5,320.5z"/>
</g>
<g>
	<path class="st31" d="M551.5,323.5c7.88-0.14,15.55,0.53,23,2c-4.86-0.12-9.7,0.21-14.5,1C556.84,326.16,554.01,325.16,551.5,323.5
		z"/>
</g>
<g>
	<path class="st32" d="M801.5,324.5c-2.17,2.08-4.84,3.08-8,3c-4.64-0.73-9.31-1.06-14-1c3.26-0.67,6.59-1.5,10-2.5
		C793.69,323.19,797.69,323.36,801.5,324.5z"/>
</g>
<g>
	<path class="st33" d="M773.5,326.5c-6.31,2.95-12.97,3.62-20,2c0.76-0.77,1.76-1.27,3-1.5C762.16,326.5,767.82,326.33,773.5,326.5z
		"/>
</g>
<g>
	<path class="st34" d="M745.5,328.5c-0.36,9.76,0.3,19.42,2,29c-13.03,3.13-26.03,5.8-39,8c-3,0-6,0-9,0c-0.26-2.29,0.08-4.46,1-6.5
		c3.33-0.17,6.66-0.01,10,0.5c5.92-0.79,11.92-1.29,18-1.5c9.53,0.14,13.03-4.36,10.5-13.5c-3.1-6.88-8.43-10.55-16-11
		c-13.82,0.92-27.65,1.25-41.5,1c-14.05-0.11-28.05-0.61-42-1.5c6.76,6.77,9.42,14.94,8,24.5c-4.97-0.49-9.47-2.16-13.5-5
		c-0.17-7.18-0.67-14.18-1.5-21c-6.67-0.67-13.33-1.33-20-2C656.83,328.85,701.16,328.52,745.5,328.5z"/>
</g>
<g>
	<path class="st35" d="M681.5,334.5c9.84,0.67,19.84,1.33,30,2c-0.86,1.7-2.2,2.86-4,3.5c-8.59-1.12-13.92,2.38-16,10.5
		c0.07,1.27,0.4,2.44,1,3.5c3.98-0.19,7.98-0.19,12,0c3.14,0.71,5.14,2.55,6,5.5c-3.34-0.51-6.67-0.67-10-0.5
		c-0.92,2.04-1.26,4.21-1,6.5c-8.33,0-16.67,0-25,0c0.36-2.27-0.31-4.1-2-5.5c-8.34-0.83-16.67-1.67-25-2.5
		c1.42-9.56-1.24-17.73-8-24.5C653.45,333.89,667.45,334.39,681.5,334.5z"/>
</g>
<g>
	<path class="st36" d="M632.5,331.5c0.83,6.82,1.33,13.82,1.5,21c4.03,2.84,8.53,4.51,13.5,5c8.33,0.83,16.66,1.67,25,2.5
		c1.69,1.4,2.36,3.23,2,5.5c-11-0.7-22-1.37-33-2c-4.14-2.57-8.47-4.9-13-7c-0.17-6.34,0-12.67,0.5-19
		C630.39,335.61,631.56,333.61,632.5,331.5z"/>
</g>
<g>
	<path class="st37" d="M710.5,359.5c-0.86-2.95-2.86-4.79-6-5.5c-4.02-0.19-8.02-0.19-12,0c-0.6-1.06-0.93-2.23-1-3.5
		c2.08-8.12,7.41-11.62,16-10.5c1.8-0.64,3.14-1.8,4-3.5c-10.16-0.67-20.16-1.33-30-2c13.85,0.25,27.68-0.08,41.5-1
		c7.57,0.45,12.9,4.12,16,11c2.53,9.14-0.97,13.64-10.5,13.5C722.42,358.21,716.42,358.71,710.5,359.5z"/>
</g>
<g>
	<path class="st38" d="M628.5,356.5c4.53,2.1,8.86,4.43,13,7c-0.96,1.77-1.29,3.77-1,6c-4.7-2.52-9.54-4.85-14.5-7
		C625.03,359.71,625.86,357.71,628.5,356.5z"/>
</g>
<g>
	<path class="st39" d="M747.5,357.5c0,0.67,0,1.33,0,2c-3.02,1.36-4.35,3.69-4,7c-0.33,0-0.67,0-1,0c-4.61,1.27-9.27,2.44-14,3.5
		c-2.42,1.57-3.76,3.74-4,6.5c-1.91-0.28-3.58,0.05-5,1c-0.33,0-0.67,0-1,0c0.03-2.08-0.64-3.92-2-5.5c-5.08,0.2-10.08,1.03-15,2.5
		c-0.2-1.89,0.46-3.39,2-4.5c3-0.33,6-0.67,9-1c1.62-0.61,2.95-1.61,4-3c-2.65-0.5-5.31-0.66-8-0.5
		C721.47,363.3,734.47,360.63,747.5,357.5z"/>
</g>
<g>
	<path class="st40" d="M747.5,359.5c2.03,4.19,0.7,6.53-4,7C743.15,363.19,744.48,360.86,747.5,359.5z"/>
</g>
<g>
	<path class="st41" d="M641.5,363.5c11,0.63,22,1.3,33,2c8.33,0,16.67,0,25,0c3,0,6,0,9,0c2.69-0.16,5.35,0,8,0.5
		c-1.05,1.39-2.38,2.39-4,3c-3,0.33-6,0.67-9,1c-1.54,1.11-2.2,2.61-2,4.5c4.92-1.47,9.92-2.3,15-2.5c1.36,1.58,2.03,3.42,2,5.5
		c-0.33,1-1,1.67-2,2c-2.94,0.42-5.27,1.92-7,4.5c-3.32,0.5-6.65,0.67-10,0.5c0.89,10.32,1.06,20.65,0.5,31
		c-0.65,2.64-1.82,4.97-3.5,7c-3.61,0.94-5.28,3.28-5,7c0.98,59.32,1.32,118.65,1,178c0.17,23.34,0,46.67-0.5,70
		c-0.87,2.08-1.37,4.25-1.5,6.5c1.06,3.93,2.06,7.76,3,11.5c0.71,101.33,1.21,202.66,1.5,304c0.14,2.94,1.31,5.28,3.5,7
		c0.19,4.07-0.14,8.07-1,12c-0.67,0-1,0.33-1,1c-1.96,0.82-3.96,0.99-6,0.5c-2.5-1.67-4.83-3.5-7-5.5c-0.57-3.77,0.59-6.77,3.5-9
		c0.5-6.66,0.67-13.33,0.5-20c1.47-13.73,1.14-27.4-1-41c0.14-58.67-0.2-117.34-1-176c0.17-112.33,0-224.67-0.5-337
		c-0.84-2.11-1.68-4.11-2.5-6c-1.43-1.04-3.1-1.7-5-2c0.17-0.99-0.16-1.66-1-2c0.17-11.67,0-23.34-0.5-35c-0.5-0.5-1-1-1.5-1.5
		c-10.99-0.14-11.83-2.97-2.5-8.5c0.49-1.29,0.66-2.63,0.5-4c-5.85-0.94-11.68-1.94-17.5-3c-4.16,0.48-8.33,0.81-12.5,1
		c-0.67-0.33-1.33-0.67-2-1C640.21,367.27,640.54,365.27,641.5,363.5z"/>
</g>
<g>
	<path class="st0" d="M742.5,366.5c-2.64,16.57-3.47,33.24-2.5,50c5.62,4.57,8.62,10.57,9,18c3.89,3.43,4.39,7.1,1.5,11
		c-0.72-0.42-1.22-1.08-1.5-2c-0.5-2.65-0.66-5.31-0.5-8c-7.28-1.43-12.78-5.43-16.5-12c-1.87,7.71-6.71,12.04-14.5,13
		c-0.55-5.71,1.78-9.54,7-11.5c4.2-3.73,5.86-8.4,5-14c-1.4-9.77-2.24-19.6-2.5-29.5c-1.32-3.44-3.82-4.77-7.5-4
		c1.42-0.95,3.09-1.28,5-1c0.24-2.76,1.58-4.93,4-6.5C733.23,368.94,737.89,367.77,742.5,366.5z"/>
</g>
<g>
	<path class="st42" d="M676.5,421.5c-2,0.33-4,0.67-6,1c-4.65-1.15-7.48-4.15-8.5-9c-0.33-10.67-0.67-21.33-1-32
		c-1.51-2.42-3.67-3.42-6.5-3c-4.08-0.68-6.08-3.01-6-7c-2.23,0.3-4.23-0.04-6-1c4.17-0.19,8.34-0.52,12.5-1
		c5.82,1.06,11.65,2.06,17.5,3c0.16,1.37-0.01,2.71-0.5,4c-9.33,5.53-8.49,8.36,2.5,8.5c0.5,0.5,1,1,1.5,1.5
		C676.5,398.16,676.67,409.83,676.5,421.5z"/>
</g>
<g>
	<path class="st43" d="M718.5,377.5c0.33,0,0.67,0,1,0c3.68-0.77,6.18,0.56,7.5,4c0.26,9.9,1.1,19.73,2.5,29.5
		c0.86,5.6-0.8,10.27-5,14c-5.22,1.96-7.55,5.79-7,11.5c-3.46,18.63,4.21,26.13,23,22.5c3.24-1.79,6.57-3.29,10-4.5
		c-0.48,2.42-1.48,4.58-3,6.5c-9.18-0.41-18.35-0.58-27.5-0.5c-2.58-0.41-4.24,0.59-5,3c-0.67,100-0.67,200,0,300
		c1.14,78.33,1.97,156.66,2.5,235c-3.33,0-5,1.67-5,5c-1.54,0.8-3.21,1.13-5,1c0.17-95.33,0-190.67-0.5-286
		c-1.98-39.67-2.64-79.34-2-119c-1.13-1.64-2.63-2.64-4.5-3c0.33-57.74,0-115.4-1-173c8.37,0.9,14.2-2.43,17.5-10
		c0.09-11.33-0.07-22.66-0.5-34C717.5,379.17,718.17,378.5,718.5,377.5z"/>
</g>
<g>
	<path class="st44" d="M716.5,379.5c0.43,11.34,0.59,22.67,0.5,34c-3.3,7.57-9.13,10.9-17.5,10c-0.89-0.61-1.89-0.94-3-1
		c1.68-2.03,2.85-4.36,3.5-7c0.56-10.35,0.39-20.68-0.5-31c3.35,0.17,6.68,0,10-0.5C711.23,381.42,713.56,379.92,716.5,379.5z"/>
</g>
<g>
	<path class="st45" d="M667.5,391.5c3.27,0.61,4.6,2.61,4,6c-2.04,9.07-3.71,9.07-5,0C666.67,395.45,667.01,393.45,667.5,391.5z"/>
</g>
<g>
	<path class="st46" d="M654.5,378.5c2.83-0.42,4.99,0.58,6.5,3c0.33,10.67,0.67,21.33,1,32c1.02,4.85,3.85,7.85,8.5,9
		c0.83,49.93,1.33,99.93,1.5,150c1.11,1.54,2.61,2.2,4.5,2c0,8.33,0,16.67,0,25c-0.96,0.45-1.79,1.12-2.5,2
		c-0.33,42.67-0.67,85.33-1,128c-1.08,1.62-1.58,3.45-1.5,5.5c1.19,4.75,1.86,9.58,2,14.5c-2.64,29.03-2.64,58.03,0,87
		c-0.1,7.56-0.77,15.06-2,22.5c-0.06,4.63,0.61,9.13,2,13.5c0,7,0,14,0,21c-1.33,0-2.67,0-4,0c-1.47-0.85-2.3-2.18-2.5-4
		c-0.22-36.5-0.05-73,0.5-109.5c0.18-34.53-0.66-69.03-2.5-103.5c-0.5-84.33-0.67-168.67-0.5-253c-4.46-0.29-7.29-2.62-8.5-7
		C654.68,403.87,654.18,391.2,654.5,378.5z"/>
</g>
<g>
	<path class="st47" d="M676.5,421.5c0.84,0.34,1.17,1.01,1,2c-1,50.16-1.33,100.5-1,151c-1.89,0.2-3.39-0.46-4.5-2
		c-0.17-50.07-0.67-100.07-1.5-150C672.5,422.17,674.5,421.83,676.5,421.5z"/>
</g>
<g>
	<path class="st48" d="M696.5,422.5c1.11,0.06,2.11,0.39,3,1c1,57.6,1.33,115.26,1,173c-0.22,136.34,0.45,272.67,2,409
		c-1.07,0.93-2.4,1.27-4,1c-2.19-1.72-3.36-4.06-3.5-7c-0.29-101.34-0.79-202.67-1.5-304c0.43-3.98,0.76-7.98,1-12
		c-0.6-25.49-1.27-50.83-2-76c0.32-59.35-0.02-118.68-1-178C691.22,425.78,692.89,423.44,696.5,422.5z"/>
</g>
<g>
	<path class="st49" d="M677.5,423.5c1.9,0.3,3.57,0.96,5,2c-1.16,101.98-1.32,203.98-0.5,306c0.67,0.67,1.33,1.33,2,2
		c0.17,11.84,0.67,23.51,1.5,35c0.8,58.66,1.14,117.33,1,176c-0.96,0.45-1.79,1.12-2.5,2c-0.33,7.33-0.67,14.67-1,22
		c-1.02,1.13-1.68,0.8-2-1c-1.21-16.31-1.71-32.64-1.5-49c-0.22-42.68-0.22-85.35,0-128c0.05-13.04-0.62-26.04-2-39
		c0.15-4.35,0.48-8.68,1-13c-0.02-2.13-0.52-4.13-1.5-6c-0.5-44.33-0.67-88.66-0.5-133c0-8.33,0-16.67,0-25
		C676.17,524,676.5,473.66,677.5,423.5z"/>
</g>
<g>
	<path class="st50" d="M750.5,445.5c0,3,0,6,0,9c-3.43,1.21-6.76,2.71-10,4.5c-18.79,3.63-26.46-3.87-23-22.5
		c7.79-0.96,12.63-5.29,14.5-13c3.72,6.57,9.22,10.57,16.5,12c-0.16,2.69,0,5.35,0.5,8C749.28,444.42,749.78,445.08,750.5,445.5z"/>
</g>
<g>
	<path class="st51" d="M682.5,425.5c0.82,1.89,1.66,3.89,2.5,6c0.5,112.33,0.67,224.67,0.5,337c-0.83-11.49-1.33-23.16-1.5-35
		c-0.67-0.67-1.33-1.33-2-2C681.18,629.48,681.34,527.48,682.5,425.5z"/>
</g>
<g>
	<path class="st52" d="M700.5,596.5c1.87,0.36,3.37,1.36,4.5,3c-0.64,39.66,0.02,79.33,2,119c0.5,95.33,0.67,190.67,0.5,286
		c-1.72,0.13-3.38,0.46-5,1C700.95,869.17,700.28,732.84,700.5,596.5z"/>
</g>
<g>
	<path class="st53" d="M692.5,607.5c0.73,25.17,1.4,50.51,2,76c-0.24,4.02-0.57,8.02-1,12c-0.94-3.74-1.94-7.57-3-11.5
		c0.13-2.25,0.63-4.42,1.5-6.5C692.5,654.17,692.67,630.84,692.5,607.5z"/>
</g>
<g>
	<path class="st54" d="M676.5,599.5c-0.17,44.34,0,88.67,0.5,133c0.98,1.87,1.48,3.87,1.5,6c-0.52,4.32-0.85,8.65-1,13
		c1.38,12.96,2.05,25.96,2,39c-0.22,42.65-0.22,85.32,0,128c-1-15.16-1.33-30.49-1-46c-1.67,0-3.33,0-5,0
		c-1.39-4.37-2.06-8.87-2-13.5c1.23-7.44,1.9-14.94,2-22.5c-2.64-28.97-2.64-57.97,0-87c-0.14-4.92-0.81-9.75-2-14.5
		c-0.08-2.05,0.42-3.88,1.5-5.5c0.33-42.67,0.67-85.33,1-128C674.71,600.62,675.54,599.95,676.5,599.5z"/>
</g>
<g>
	<path class="st21" d="M673.5,872.5c1.67,0,3.33,0,5,0c-0.33,15.51,0,30.84,1,46c-0.21,16.36,0.29,32.69,1.5,49
		c0.32,1.8,0.98,2.13,2,1c0.33-7.33,0.67-14.67,1-22c0.71-0.88,1.54-1.55,2.5-2c2.14,13.6,2.47,27.27,1,41c-0.84,0.34-1.17,1.01-1,2
		c-1.64,0.21-3.14-0.12-4.5-1c-0.5,6.66-0.67,13.33-0.5,20c-3.02,0.16-6.02,0-9-0.5c-0.76-2.07-1.26-4.24-1.5-6.5
		c-1.36-0.88-2.86-1.21-4.5-1c0.71-0.9,1.71-1.24,3-1c0-34.67,0-69.33,0-104c1.33,0,2.67,0,4,0C673.5,886.5,673.5,879.5,673.5,872.5
		z"/>
</g>
<g>
	<path class="st55" d="M686.5,987.5c0.17,5.68,0,11.34-0.5,17c-1.11,1.54-2.61,2.2-4.5,2c-0.17-6.67,0-13.34,0.5-20
		C683.36,987.38,684.86,987.71,686.5,987.5z"/>
</g>
<g>
	<path class="st5" d="M687.5,985.5c0.17,6.67,0,13.34-0.5,20c-2.91,2.23-4.07,5.23-3.5,9c-5.97-0.74-11.97-1.07-18-1
		c-2.86-1.59-5.86-2.93-9-4c-0.93-1.19-1.26-2.52-1-4c2.12-4.57,5.79-6.91,11-7c1.64-0.21,3.14,0.12,4.5,1
		c0.24,2.26,0.74,4.43,1.5,6.5c2.98,0.5,5.98,0.66,9,0.5c1.89,0.2,3.39-0.46,4.5-2c0.5-5.66,0.67-11.32,0.5-17
		C686.33,986.51,686.66,985.84,687.5,985.5z"/>
</g>
<g>
	<path class="st56" d="M717.5,998.5c1,0.33,1.67,1,2,2c-0.09,1,0.25,1.83,1,2.5c1.94,0.81,3.94,1.31,6,1.5
		c0.16,1.37-0.01,2.71-0.5,4c-2.91,2.54-6.07,4.7-9.5,6.5c-2.3,4.68-3.64,4.52-4-0.5c0-3.67,0-7.33,0-11
		C712.5,1000.17,714.17,998.5,717.5,998.5z"/>
</g>
<g>
	<path class="st57" d="M712.5,1003.5c0,3.67,0,7.33,0,11c-2.57-0.35-4.91,0.15-7,1.5c0.95,0.48,1.95,0.65,3,0.5
		c-3.41,1.4-7.08,2.07-11,2c0.86-3.93,1.19-7.93,1-12c1.6,0.27,2.93-0.07,4-1c1.62-0.54,3.28-0.87,5-1
		C709.29,1004.63,710.96,1004.3,712.5,1003.5z"/>
</g>
<g>
	<path class="st39" d="M719.5,1000.5c5.32,0.31,8.98,2.98,11,8c0,3.33,0,6.67,0,10c-5.97,0.74-11.97,1.07-18,1
		c-0.9-0.71-1.24-1.71-1-3c-1,0-2,0-3,0c-1.05,0.15-2.05-0.02-3-0.5c2.09-1.35,4.43-1.85,7-1.5c0.36,5.02,1.7,5.18,4,0.5
		c3.43-1.8,6.59-3.96,9.5-6.5c0.49-1.29,0.66-2.63,0.5-4c-2.06-0.19-4.06-0.69-6-1.5C719.75,1002.33,719.41,1001.5,719.5,1000.5z"/>
</g>
<g>
	<path class="st58" d="M655.5,1005.5c-0.26,1.48,0.07,2.81,1,4c3.14,1.07,6.14,2.41,9,4c-0.57,1.76-1.41,3.42-2.5,5
		c-0.26,10.12-1.26,20.12-3,30c-0.33-10.67-0.67-21.33-1-32c-0.33,0.33-0.67,0.67-1,1c-2.24,9.5-3.07,19.17-2.5,29
		c-0.55-9.61-1.55-19.27-3-29C653.5,1013.45,654.5,1009.45,655.5,1005.5z"/>
</g>
<g>
	<path class="st59" d="M665.5,1013.5c6.03-0.07,12.03,0.26,18,1c2.17,2,4.5,3.83,7,5.5c2.04,0.49,4.04,0.32,6-0.5c1,0,2,0,3,0
		c-0.24,4.4-0.91,8.73-2,13c1.01,4.11,2.01,8.11,3,12c0,1,0,2,0,3c-0.96,0.45-1.79,1.12-2.5,2c-0.22,2.93-0.72,5.76-1.5,8.5
		c-8.19,3.01-15.69,7.18-22.5,12.5c-1.84,2.54-2.67,5.37-2.5,8.5c0.73,4.82,1.4,9.66,2,14.5c-0.33,1.67-0.67,3.33-1,5
		c-1.65-1.15-3.15-2.48-4.5-4c-2.56-6.82-4.56-13.82-6-21c-1.83-2.45-3.66-4.79-5.5-7c-0.45-6.66-0.79-13.33-1-20
		c-0.57-9.83,0.26-19.5,2.5-29c0.33-0.33,0.67-0.67,1-1c0.33,10.67,0.67,21.33,1,32c1.74-9.88,2.74-19.88,3-30
		C664.09,1016.92,664.93,1015.26,665.5,1013.5z"/>
</g>
<g>
	<path class="st60" d="M708.5,1016.5c1,0,2,0,3,0c-0.24,1.29,0.1,2.29,1,3c0.79,8.24,3.29,15.9,7.5,23c4.43,3.68,9.6,5.01,15.5,4
		c1.73,0.53,3.06,1.53,4,3c-7.43,3.16-11.77,8.83-13,17c-4.43-1.8-9.1-2.47-14-2c-2.62-4.92-5.95-9.26-10-13
		c11.37,2.46,13.87-1.21,7.5-11c-2.63-3.57-5.63-3.91-9-1c-0.49,1.63-0.66,3.3-0.5,5c-0.99-3.89-1.99-7.89-3-12
		c1.09-4.27,1.76-8.6,2-13c-1,0-2,0-3,0c0-0.67,0.33-1,1-1C701.42,1018.57,705.09,1017.9,708.5,1016.5z"/>
</g>
<g>
	<path class="st61" d="M730.5,1008.5c2.45,11.7,3.62,23.7,3.5,36c0.72,0.54,1.22,1.21,1.5,2c-5.9,1.01-11.07-0.32-15.5-4
		c-4.21-7.1-6.71-14.76-7.5-23c6.03,0.07,12.03-0.26,18-1C730.5,1015.17,730.5,1011.83,730.5,1008.5z"/>
</g>
<g>
	<path class="st0" d="M702.5,1051.5c-0.16-1.65-0.83-2.99-2-4c0-1,0-2,0-3c-0.16-1.7,0.01-3.37,0.5-5c3.37-2.91,6.37-2.57,9,1
		C716.37,1050.29,713.87,1053.96,702.5,1051.5z"/>
</g>
<g>
	<path class="st46" d="M739.5,1049.5c1.73,0.62,3.23,1.62,4.5,3c0.41,2.73,1.08,5.4,2,8c2.43,4.24,4.59,8.58,6.5,13
		c-2.42,0.21-4.75-0.13-7-1c-1.2-2.41-2.87-4.41-5-6c-2.11,1.1-3.45,2.77-4,5c-3.51-0.55-6.51,0.11-9,2c-0.97-2.11-1.3-4.44-1-7
		C727.73,1058.33,732.07,1052.66,739.5,1049.5z"/>
</g>
<g>
	<path class="st62" d="M700.5,1047.5c1.17,1.01,1.84,2.35,2,4c4.05,3.74,7.38,8.08,10,13c-0.01,1.52-0.68,2.68-2,3.5
		c-5.55-0.01-10.89,0.99-16,3c-4.7,4.89-3.7,7.56,3,8c0.64,2.31,2.14,3.47,4.5,3.5c4.05-1.7,7.89-3.87,11.5-6.5
		c2.53-0.9,4.69-0.4,6.5,1.5c2.02,3.01,2.52,6.18,1.5,9.5c-3.84,2.3-7.34,5.14-10.5,8.5c-1.27,3.9-1.77,7.9-1.5,12
		c-0.49,0.97-0.99,1.97-1.5,3c-1.07,16.68-1.23,33.34-0.5,50c0.03,7.78-0.64,15.45-2,23c-0.62-2.33-1.46-4.67-2.5-7
		c-0.33-21.67-0.67-43.33-1-65c-1.33-1.08-2.83-1.75-4.5-2c-0.05-2.87,0.28-5.71,1-8.5c-1.36-7.41-5.2-9.24-11.5-5.5
		c-0.67,1.67-0.67,3.33,0,5c1.78,1.79,3.61,3.46,5.5,5c-1.45,0.67-2.78,1.34-4,2c-0.33,0-0.67,0-1,0c-3.67,0-7.33,0-11,0
		c-3.66,0.32-5.66,2.32-6,6c0.88,57.34,0.04,114.67-2.5,172c-0.41,0.46-0.91,0.79-1.5,1c-0.67,8.82-1.33,17.49-2,26
		c0.17-69,0-138-0.5-207c-0.47-4.02-1.8-7.69-4-11c-0.33-2.67-0.67-5.33-1-8c-2.15-1.48-3.48-3.48-4-6c-0.65-4.81-0.15-9.48,1.5-14
		c1.84,2.21,3.67,4.55,5.5,7c1.44,7.18,3.44,14.18,6,21c1.35,1.52,2.85,2.85,4.5,4c0.33-1.67,0.67-3.33,1-5
		c-0.6-4.84-1.27-9.68-2-14.5c-0.17-3.13,0.66-5.96,2.5-8.5c6.81-5.32,14.31-9.49,22.5-12.5c0.78-2.74,1.28-5.57,1.5-8.5
		C698.71,1048.62,699.54,1047.95,700.5,1047.5z"/>
</g>
<g>
	<path class="st52" d="M712.5,1064.5c4.9-0.47,9.57,0.2,14,2c-0.3,2.56,0.03,4.89,1,7c1.73,8.17,1.23,16.17-1.5,24c-2,2-4,4-6,6
		c-0.33,56.67-0.67,113.33-1,170c-0.38,1.44-1.21,2.44-2.5,3c-0.59-1.27-1.09-2.6-1.5-4c-0.33-7.33-0.67-14.67-1-22
		c-0.29-1.54-0.96-2.88-2-4c-0.33,19.67-0.67,39.33-1,59c-0.17-66.17-0.67-132.17-1.5-198c-0.27-4.1,0.23-8.1,1.5-12
		c3.16-3.36,6.66-6.2,10.5-8.5c1.02-3.32,0.52-6.49-1.5-9.5c-1.81-1.9-3.97-2.4-6.5-1.5c-3.61,2.63-7.45,4.8-11.5,6.5
		c-2.36-0.03-3.86-1.19-4.5-3.5c-6.7-0.44-7.7-3.11-3-8c5.11-2.01,10.45-3.01,16-3C711.82,1067.18,712.49,1066.02,712.5,1064.5z"/>
</g>
<g>
	<path class="st63" d="M752.5,1073.5c2.98,3.8,5.32,7.96,7,12.5c-1.71,5.19-5.05,6.52-10,4c-5.75-5.23-10.08-11.4-13-18.5
		c0.55-2.23,1.89-3.9,4-5c2.13,1.59,3.8,3.59,5,6C747.75,1073.37,750.08,1073.71,752.5,1073.5z"/>
</g>
<g>
	<path class="st64" d="M697.5,1109.5c0.33,16.84,0,33.51-1,50c0.33-17.01,0-34.01-1-51c-2.25-0.87-4.58-1.21-7-1
		c1.22-0.66,2.55-1.33,4-2c-1.89-1.54-3.72-3.21-5.5-5c-0.67-1.67-0.67-3.33,0-5c6.3-3.74,10.14-1.91,11.5,5.5
		C697.78,1103.79,697.45,1106.63,697.5,1109.5z"/>
</g>
<g>
	<path class="st65" d="M676.5,1107.5c0,70.33,0,140.67,0,211c-3.79,1.64-7.79,2.31-12,2c0-2.67,0-5.33,0-8
		c0.67-8.51,1.33-17.18,2-26c0.59-0.21,1.09-0.54,1.5-1c2.54-57.33,3.38-114.66,2.5-172C670.84,1109.82,672.84,1107.82,676.5,1107.5
		z"/>
</g>
<g>
	<path class="st46" d="M676.5,1107.5c3.67,0,7.33,0,11,0c-0.88,58.66-1.54,117.33-2,176c-0.73,11.19-1.4,22.52-2,34
		c-2.22,0.87-4.55,1.2-7,1C676.5,1248.17,676.5,1177.83,676.5,1107.5z"/>
</g>
<g>
	<path class="st66" d="M687.5,1107.5c0.33,0,0.67,0,1,0c2.42-0.21,4.75,0.13,7,1c1,16.99,1.33,33.99,1,51
		c-0.2,54.01-0.86,108.01-2,162c-4.18,0.65-7.02-1.01-8.5-5c-0.5-10.99-0.67-21.99-0.5-33
		C685.96,1224.83,686.62,1166.16,687.5,1107.5z"/>
</g>
<g>
	<path class="st67" d="M697.5,1109.5c1.67,0.25,3.17,0.92,4.5,2c0.33,21.67,0.67,43.33,1,65c1.04,2.33,1.88,4.67,2.5,7
		c-1.03,47.99-2.03,95.99-3,144c-1.35,1.92-2.02,4.09-2,6.5c0.8,4.08,1.8,8.08,3,12c-1.16,19.09-1.33,38.26-0.5,57.5
		c0.7,2.5,1.53,4.84,2.5,7c2.17,8.82-1.16,12.49-10,11c0-1,0-2,0-3c1.33-2,1.33-4,0-6c-0.99-6.58-1.66-13.25-2-20
		c2.26-23.64,2.59-47.3,1-71c1.14-53.99,1.8-107.99,2-162C697.5,1143.01,697.83,1126.34,697.5,1109.5z"/>
</g>
<g>
	<path class="st68" d="M709.5,1107.5c0.83,65.83,1.33,131.83,1.5,198c0.33-19.67,0.67-39.33,1-59c1.04,1.12,1.71,2.46,2,4
		c0.33,7.33,0.67,14.67,1,22c0.41,1.4,0.91,2.73,1.5,4c0,16,0,32,0,48c-0.9,0.71-1.24,1.71-1,3c-2.93,0.22-5.77,0.88-8.5,2
		c-1.83-0.02-3.33-0.69-4.5-2c0.97-48.01,1.97-96.01,3-144c1.36-7.55,2.03-15.22,2-23c-0.73-16.66-0.57-33.32,0.5-50
		C708.51,1109.47,709.01,1108.47,709.5,1107.5z"/>
</g>
<g>
	<path class="st69" d="M685.5,1283.5c-0.17,11.01,0,22.01,0.5,33c1.48,3.99,4.32,5.65,8.5,5c1.59,23.7,1.26,47.36-1,71
		c0.34,6.75,1.01,13.42,2,20c-4.67,1.67-9.33,3.33-14,5c0.77-3.92,1.27-7.92,1.5-12c0.5-29.33,0.67-58.66,0.5-88
		C684.1,1306.02,684.77,1294.69,685.5,1283.5z"/>
</g>
<g>
	<path class="st47" d="M683.5,1317.5c0.17,29.34,0,58.67-0.5,88c-0.23,4.08-0.73,8.08-1.5,12c-2.84,2.67-5.84,5.17-9,7.5
		c-2.67,0.67-5.33,0.67-8,0c-1.26-0.42-1.92-1.25-2-2.5c1.11-1.45,1.28-3.11,0.5-5c-1.89-1.53-2.89-3.53-3-6
		c-4.07-1.92-6.9-0.75-8.5,3.5c1.56,3.62,4.22,6.12,8,7.5c-0.36,1.87-1.36,3.37-3,4.5c-2.67,1.33-5.33,2.67-8,4
		c-2.58,2.43-5.25,4.6-8,6.5c0.53-10.03,1.36-20.03,2.5-30c0.78-1.79,1.95-3.29,3.5-4.5c3.53-1.71,7.2-3.04,11-4
		c2.12-1.73,3.62-3.9,4.5-6.5c0.55-24.01,1.39-48.01,2.5-72c4.21,0.31,8.21-0.36,12-2C678.95,1318.7,681.28,1318.37,683.5,1317.5z"
		/>
</g>
<g>
	<path class="st70" d="M716.5,1324.5c0.38,10.16,0.72,20.33,1,30.5c-0.92,16.49-1.58,32.99-2,49.5c-1.76,0.76-2.76,2.1-3,4
		c-2.45,0.57-4.78,1.23-7,2c-0.97-2.16-1.8-4.5-2.5-7c-0.83-19.24-0.66-38.41,0.5-57.5c-1.2-3.92-2.2-7.92-3-12
		c-0.02-2.41,0.65-4.58,2-6.5c1.17,1.31,2.67,1.98,4.5,2c2.73-1.12,5.57-1.78,8.5-2C715.26,1326.21,715.6,1325.21,716.5,1324.5z"/>
</g>
<g>
	<path class="st71" d="M662.5,1422.5c-1,0-2,0-3,0c-3.78-1.38-6.44-3.88-8-7.5c1.6-4.25,4.43-5.42,8.5-3.5c0.11,2.47,1.11,4.47,3,6
		C663.78,1419.39,663.61,1421.05,662.5,1422.5z"/>
</g>
<g>
	<path class="st72" d="M695.5,1412.5c1.33,2,1.33,4,0,6c-4.06,5.24-7.39,10.91-10,17c-2.71-1.85-5.71-2.85-9-3
		c-4.99-1.3-9.99-1.14-15,0.5c-3.86,4.46-6.2,9.63-7,15.5c-1.76-0.57-3.42-1.41-5-2.5c-3.71-0.17-7.38-0.67-11-1.5
		c-0.75-1.24-1.08-2.57-1-4c0.67-1.33,1.67-2.33,3-3c2.75-1.9,5.42-4.07,8-6.5c2.67-1.33,5.33-2.67,8-4c1.64-1.13,2.64-2.63,3-4.5
		c1,0,2,0,3,0c0.08,1.25,0.74,2.08,2,2.5c2.67,0.67,5.33,0.67,8,0c3.16-2.33,6.16-4.83,9-7.5
		C686.17,1415.83,690.83,1414.17,695.5,1412.5z"/>
</g>
<g>
	<path class="st73" d="M731.5,1429.5c0,0.33,0,0.67,0,1c-1.67,0-3.33,0-5,0c-2.47-0.82-5.14-1.32-8-1.5c-1.66-1.44-2.32-3.28-2-5.5
		c0.54-1.62,0.87-3.28,1-5c1.68-2.86,4.01-4.7,7-5.5c-0.04,4.75,1.79,8.58,5.5,11.5C731.01,1426.02,731.51,1427.69,731.5,1429.5z"/>
</g>
<g>
	<path class="st0" d="M715.5,1404.5c4.13,2.95,8.13,6.12,12,9.5c8.02,0.4,16.02,1.07,24,2c4.57,0.76,8.24,2.93,11,6.5
		c0.16,2.69,0,5.35-0.5,8c-0.39,0.93-1.05,1.59-2,2c-5.85-3.68-12.01-6.68-18.5-9c-3.51,0.32-5.18,2.32-5,6c-1.67,0-3.33,0-5,0
		c0.01-1.81-0.49-3.48-1.5-5c-3.71-2.92-5.54-6.75-5.5-11.5c-2.99,0.8-5.32,2.64-7,5.5c-1.93-3.16-3.6-6.49-5-10
		C712.74,1406.6,713.74,1405.26,715.5,1404.5z"/>
</g>
<g>
	<path class="st74" d="M762.5,1422.5c8.09,12.51,15.42,25.51,22,39c0.33,4.18-1,7.68-4,10.5c-6.02,2.5-12.02,5-18,7.5
		c-4.83-3.17-8.17-7.5-10-13c1.67,0,3.33,0,5,0c3.35,0.17,6.68,0,10-0.5c2.24-6.14,0.24-10.47-6-13c-2.65-0.5-5.31-0.66-8-0.5
		c-2.44,0.18-4.6-0.48-6.5-2c-0.57-2.67-1.07-5.33-1.5-8c-2.51-0.45-4.51,0.22-6,2c-0.83-4.58-1.83-9.25-3-14c-1.67,0-3.33,0-5,0
		c0-0.33,0-0.67,0-1c1.67,0,3.33,0,5,0c-0.18-3.68,1.49-5.68,5-6c6.49,2.32,12.65,5.32,18.5,9c0.95-0.41,1.61-1.07,2-2
		C762.5,1427.85,762.66,1425.19,762.5,1422.5z"/>
</g>
<g>
	<path class="st75" d="M716.5,1423.5c-0.32,2.22,0.34,4.06,2,5.5c2.86,0.18,5.53,0.68,8,1.5c-3.47,2.61-7.47,3.61-12,3
		c-1.19-0.47-1.86-1.47-2-3C713.01,1427.67,714.34,1425.33,716.5,1423.5z"/>
</g>
<g>
	<path class="st46" d="M726.5,1430.5c1.67,0,3.33,0,5,0s3.33,0,5,0c1.17,4.75,2.17,9.42,3,14c0.65,1.94,0.98,3.94,1,6c0,2,0,4,0,6
		c-4.97-1.16-9.97-2.33-15-3.5c-1.72-8.41-6.72-12.07-15-11c-3.11,1.76-6.44,2.59-10,2.5c-0.45-2.86,0.22-5.36,2-7.5
		c4.14-1.07,8.14-2.23,12-3.5C719.03,1434.11,723.03,1433.11,726.5,1430.5z"/>
</g>
<g>
	<path class="st69" d="M676.5,1432.5c-0.73,2.23-2.06,4.07-4,5.5c-11.46,0.66-13.13,5.16-5,13.5c-2.74,5.97-3.74,12.3-3,19
		c-2.01,1.77-4.17,3.43-6.5,5c-0.97,2.84-0.13,4.84,2.5,6c-2.18,0.34-4.01,1.34-5.5,3c-2.79,5.2-5.29,10.53-7.5,16
		c-6.71-0.2-9.54-3.53-8.5-10c1.18-2.36,2.35-4.69,3.5-7c5.56-3.79,7.06-8.79,4.5-15c-1.13-1.64-2.63-2.64-4.5-3c0-2.67,0-5.33,0-8
		c8.86,3.25,12.86,0.25,12-9c0.8-5.87,3.14-11.04,7-15.5C666.51,1431.36,671.51,1431.2,676.5,1432.5z"/>
</g>
<g>
	<path class="st50" d="M676.5,1432.5c3.29,0.15,6.29,1.15,9,3c-0.77,2.6-1.1,5.26-1,8c-1.9,4.23-4.56,7.9-8,11c-1.67,0-3.33,0-5,0
		c-1.33-1-2.67-2-4-3c-8.13-8.34-6.46-12.84,5-13.5C674.44,1436.57,675.77,1434.73,676.5,1432.5z"/>
</g>
<g>
	<path class="st46" d="M637.5,1440.5c-0.08,1.43,0.25,2.76,1,4c3.62,0.83,7.29,1.33,11,1.5c1.58,1.09,3.24,1.93,5,2.5
		c0.86,9.25-3.14,12.25-12,9c0,2.67,0,5.33,0,8c-1.76,3.68-3.09,7.52-4,11.5c-0.1,3.06,1.23,5.23,4,6.5c-1.15,2.31-2.32,4.64-3.5,7
		c-1.04,6.47,1.79,9.8,8.5,10c6.12,24.85,3.45,48.51-8,71c-2.56-0.65-4.72,0.35-6.5,3c-2.92,5.77-5.26,11.77-7,18
		c-7.7,13.06-14.03,26.73-19,41c-0.5,5.66-0.67,11.32-0.5,17c-6.5-1.31-9.33-5.31-8.5-12c11.63-31.23,23.47-62.4,35.5-93.5
		c-0.93-2.14-2.6-3.31-5-3.5c0-14.67,0-29.33,0-44c-0.16-3.02,0-6.02,0.5-9c3.78-3.26,3.28-5.43-1.5-6.5c-3.04-2.7-5.71-5.7-8-9
		c-2.51-1.25-5.18-1.75-8-1.5C613.86,1455.72,622.53,1445.38,637.5,1440.5z"/>
</g>
<g>
	<path class="st74" d="M712.5,1408.5c1.4,3.51,3.07,6.84,5,10c-0.13,1.72-0.46,3.38-1,5c-2.16,1.83-3.49,4.17-4,7
		c0.14,1.53,0.81,2.53,2,3c-3.86,1.27-7.86,2.43-12,3.5c-1.78,2.14-2.45,4.64-2,7.5c3.56,0.09,6.89-0.74,10-2.5
		c8.28-1.07,13.28,2.59,15,11c5.03,1.17,10.03,2.34,15,3.5c0-2,0-4,0-6c5.23,3.14,7.23,7.81,6,14c-0.97-2.11-1.3-4.44-1-7
		c-2.03-0.16-4.03,0-6,0.5c-2.33,1.67-4.67,3.33-7,5c-4.2-0.2-7.86,0.97-11,3.5c-1.47,1.69-2.14,3.69-2,6c0.54,4.03,1.21,8.03,2,12
		c-1.91-0.28-3.58,0.05-5,1c-0.67,0-1.33,0-2,0c0.16-1.7-0.01-3.37-0.5-5c-2.76-2.25-4.92-4.92-6.5-8c-0.12-1.98,0.55-3.65,2-5
		c1.27,0.93,2.6,1.09,4,0.5c-2.44-2.64-3.94-5.8-4.5-9.5c-3.55-3.88-6.72-8.05-9.5-12.5c-2.31-0.5-4.64-0.66-7-0.5c0,5,0,10,0,15
		c-0.99-4.81-1.32-9.81-1-15c-1.67,0-3.33,0-5,0c0,1.67,0,3.33,0,5c-0.91-2.16-1.57-4.49-2-7c-0.1-2.74,0.23-5.4,1-8
		c2.61-6.09,5.94-11.76,10-17c0,1,0,2,0,3c8.84,1.49,12.17-2.18,10-11C707.72,1409.73,710.05,1409.07,712.5,1408.5z"/>
</g>
<g>
	<path class="st72" d="M753.5,1452.5c-1.46,4.11-0.29,7.45,3.5,10c0.49,1.29,0.66,2.63,0.5,4c-1.67,0-3.33,0-5,0
		c-1.72-0.13-3.38-0.46-5-1c0-0.67-0.33-1-1-1c1.23-6.19-0.77-10.86-6-14c-0.02-2.06-0.35-4.06-1-6c1.49-1.78,3.49-2.45,6-2
		c0.43,2.67,0.93,5.33,1.5,8C748.9,1452.02,751.06,1452.68,753.5,1452.5z"/>
</g>
<g>
	<path class="st76" d="M684.5,1443.5c0.43,2.51,1.09,4.84,2,7c0,3.67,0,7.33,0,11c-1.88,6.72-3.88,13.39-6,20
		c-1.37,0.16-2.71-0.01-4-0.5c-1.29-1.8-2.96-2.97-5-3.5c0-1.33,0-2.67,0-4c2.25-0.42,3.75-1.75,4.5-4c0.5-4.99,0.67-9.99,0.5-15
		C679.94,1451.4,682.6,1447.73,684.5,1443.5z"/>
</g>
<g>
	<path class="st72" d="M707.5,1472.5c-2.28-0.11-4.28-0.94-6-2.5c-2.68-3.57-5.68-6.74-9-9.5c0-5,0-10,0-15c2.36-0.16,4.69,0,7,0.5
		c2.78,4.45,5.95,8.62,9.5,12.5c0.56,3.7,2.06,6.86,4.5,9.5c-1.4,0.59-2.73,0.43-4-0.5C708.05,1468.85,707.38,1470.52,707.5,1472.5z
		"/>
</g>
<g>
	<path class="st77" d="M667.5,1451.5c1.33,1,2.67,2,4,3c-1.12,4.94-2.12,9.94-3,15c-1.46-0.07-2.79,0.27-4,1
		C663.76,1463.8,664.76,1457.47,667.5,1451.5z"/>
</g>
<g>
	<path class="st67" d="M753.5,1452.5c2.69-0.16,5.35,0,8,0.5c6.24,2.53,8.24,6.86,6,13c-3.32,0.5-6.65,0.67-10,0.5
		c0.16-1.37-0.01-2.71-0.5-4C753.21,1459.95,752.04,1456.61,753.5,1452.5z"/>
</g>
<g>
	<path class="st78" d="M671.5,1454.5c1.67,0,3.33,0,5,0c0.17,5.01,0,10.01-0.5,15c-0.75,2.25-2.25,3.58-4.5,4c-1-1.33-2-2.67-3-4
		C669.38,1464.44,670.38,1459.44,671.5,1454.5z"/>
</g>
<g>
	<path class="st79" d="M746.5,1464.5c0.67,0,1,0.33,1,1c-1.15,5.82-1.32,11.82-0.5,18c1.07,0.69,2.23,1.19,3.5,1.5
		c4.5,5.17,9,10.33,13.5,15.5c0.63,2.4-0.2,4.24-2.5,5.5c-3.13,0.79-6.13,0.46-9-1c-5.37-5.03-10.37-10.37-15-16
		c-7.28-0.12-14.28-1.29-21-3.5c1.42-0.95,3.09-1.28,5-1c-0.79-3.97-1.46-7.97-2-12c-0.14-2.31,0.53-4.31,2-6
		c3.14-2.53,6.8-3.7,11-3.5c2.33-1.67,4.67-3.33,7-5c1.97-0.5,3.97-0.66,6-0.5C745.2,1460.06,745.53,1462.39,746.5,1464.5z"/>
</g>
<g>
	<path class="st62" d="M692.5,1460.5c3.32,2.76,6.32,5.93,9,9.5c1.72,1.56,3.72,2.39,6,2.5c1.58,3.08,3.74,5.75,6.5,8
		c0.49,1.63,0.66,3.3,0.5,5c-0.72,55-1.39,110-2,165c-1.32,2.85-2.98,5.51-5,8c0.55,2.06,1.71,3.72,3.5,5
		c0.5,16.66,0.67,33.33,0.5,50c-5.06,0.78-8.56-1.22-10.5-6c-1.05-17.25-0.55-34.42,1.5-51.5c-1.35-7.1-2.01-14.27-2-21.5
		c1.8-40.65,2.3-81.32,1.5-122c-1.71-6.98-1.88-13.98-0.5-21c-2.67,0-5.33,0-8,0c-0.82-2.31-1.65-4.65-2.5-7
		c-0.5-7.66-0.67-15.33-0.5-23c-1.33,0-2.67,0-4,0c0-3.67,0-7.33,0-11c0-1.67,0-3.33,0-5c1.67,0,3.33,0,5,0
		C691.18,1450.69,691.51,1455.69,692.5,1460.5z"/>
</g>
<g>
	<path class="st65" d="M686.5,1461.5c1.33,0,2.67,0,4,0c-0.17,7.67,0,15.34,0.5,23c0.85,2.35,1.68,4.69,2.5,7c0,23.67,0,47.33,0,71
		c-0.99,9.49-1.33,19.15-1,29c-2.83,0.42-4.99-0.58-6.5-3c-0.33-9.33-0.67-18.67-1-28c-0.82-1.32-1.98-1.99-3.5-2
		c-0.33-6.7,0-13.37,1-20c1.61-0.82,2.28-2.15,2-4c-1,0-2,0-3,0c0.33-17.84,0-35.51-1-53
		C682.62,1474.89,684.62,1468.22,686.5,1461.5z"/>
</g>
<g>
	<path class="st62" d="M784.5,1461.5c14.18,8.51,24.85,20.18,32,35c-8.97,2.4-16.14,7.4-21.5,15c-0.49,1.29-0.66,2.63-0.5,4
		c-11.01-11.68-21.68-23.68-32-36c5.98-2.5,11.98-5,18-7.5C783.5,1469.18,784.83,1465.68,784.5,1461.5z"/>
</g>
<g>
	<path class="st80" d="M642.5,1465.5c1.87,0.36,3.37,1.36,4.5,3c2.56,6.21,1.06,11.21-4.5,15c-2.77-1.27-4.1-3.44-4-6.5
		C639.41,1473.02,640.74,1469.18,642.5,1465.5z"/>
</g>
<g>
	<path class="st81" d="M668.5,1469.5c1,1.33,2,2.67,3,4c0,1.33,0,2.67,0,4c-3.34,1.34-6.67,2.67-10,4c-0.33,0-0.67,0-1,0
		c-2.63-1.16-3.47-3.16-2.5-6c2.33-1.57,4.49-3.23,6.5-5C665.71,1469.77,667.04,1469.43,668.5,1469.5z"/>
</g>
<g>
	<path class="st62" d="M611.5,1471.5c2.82-0.25,5.49,0.25,8,1.5c2.29,3.3,4.96,6.3,8,9c4.78,1.07,5.28,3.24,1.5,6.5
		c-0.5,2.98-0.66,5.98-0.5,9c-1.29,0.79-2.46,1.79-3.5,3c-16,42.01-32,84.01-48,126c-2.69,7.89-4.85,15.89-6.5,24
		c-2.9,2.79-5.07,6.13-6.5,10c-1.4,5.04-2.9,10.04-4.5,15c-25.21,64.45-51.05,128.78-77.5,193c-2.06,5.82-2.89,11.82-2.5,18
		c-1.37-0.16-2.71,0.01-4,0.5c-0.83,2.17-2.33,3.67-4.5,4.5c-0.14-6.08-0.8-12.08-2-18c-1.79-3.62-4.62-5.95-8.5-7
		c48.49-122.99,95.33-246.66,140.5-371C604.22,1487.35,607.72,1479.35,611.5,1471.5z"/>
</g>
<g>
	<path class="st46" d="M671.5,1477.5c2.04,0.53,3.71,1.7,5,3.5c1.29,0.49,2.63,0.66,4,0.5c1,17.49,1.33,35.16,1,53c1,0,2,0,3,0
		c0.28,1.85-0.39,3.18-2,4c-1,6.63-1.33,13.3-1,20c0.16,46.38-1.34,92.72-4.5,139c-0.5,22-0.67,44-0.5,66
		c-1.29,0.56-2.12,1.56-2.5,3c-0.5,2.31-0.66,4.64-0.5,7c-1.6-0.27-2.93,0.07-4,1c-8.42,3.04-16.76,6.38-25,10
		c1.94-10.26-0.23-19.59-6.5-28c-13.62-18.62-27.62-36.95-42-55c-1.01-0.84-2.18-1.17-3.5-1c2.58-8.06,5.58-16.06,9-24
		c7.53-0.13,10.87,3.53,10,11c1.12,3.97,2.95,7.64,5.5,11c14.85,17.86,28.35,36.7,40.5,56.5c1.14,0.75,2.14,0.58,3-0.5
		c1.32-2.7,1.32-5.36,0-8c1-88.17,1.33-176.5,1-265C664.83,1480.17,668.16,1478.84,671.5,1477.5z"/>
</g>
<g>
	<path class="st46" d="M693.5,1491.5c2.67,0,5.33,0,8,0c-1.38,7.02-1.21,14.02,0.5,21c0.8,40.68,0.3,81.35-1.5,122
		c-0.01,7.23,0.65,14.4,2,21.5c-2.05,17.08-2.55,34.25-1.5,51.5c1.94,4.78,5.44,6.78,10.5,6c0.17-16.67,0-33.34-0.5-50
		c-1.79-1.28-2.95-2.94-3.5-5c2.02-2.49,3.68-5.15,5-8c-0.33,38.07,0.01,76.07,1,114c-1,0-2,0-3,0c-1.93-2.83-4.43-3.83-7.5-3
		c-0.33,3-0.67,6-1,9c-3.62,3.99-7.29,3.99-11,0c-0.67-18.67-0.67-37.33,0-56c2.6-50.68,3.43-101.35,2.5-152
		C693.5,1538.83,693.5,1515.17,693.5,1491.5z"/>
</g>
<g>
	<path class="st82" d="M816.5,1496.5c3.64,3.81,7.14,7.81,10.5,12c29.53,42.49,58.53,85.15,87,128c2.83,3.58,5.83,6.91,9,10
		c2.06,3.9,3.9,7.9,5.5,12c0.66,2.96,0.99,5.96,1,9c-4.22-1.05-7.05-3.72-8.5-8c-3.88-4.51-8.72-6.01-14.5-4.5
		c-2.9,2.73-5.57,5.56-8,8.5c-10.83-9.28-18.99-20.62-24.5-34c-28.14-36.68-54.64-74.68-79.5-114c-0.16-1.37,0.01-2.71,0.5-4
		C800.36,1503.9,807.53,1498.9,816.5,1496.5z"/>
</g>
<g>
	<path class="st65" d="M628.5,1541.5c2.4,0.19,4.07,1.36,5,3.5c-12.03,31.1-23.87,62.27-35.5,93.5c-0.83,6.69,2,10.69,8.5,12
		c-0.17-5.68,0-11.34,0.5-17c4.97-14.27,11.3-27.94,19-41c1.74-6.23,4.08-12.23,7-18c1.78-2.65,3.94-3.65,6.5-3
		c-8.73,25.36-17.56,50.69-26.5,76c-1.27,2.72-3.44,4.06-6.5,4c-1.47,8.39-3.13,16.73-5,25c-3.42,7.94-6.42,15.94-9,24
		c-0.96,0.45-1.79,1.12-2.5,2c-9.9,30.54-21.07,60.54-33.5,90c-4.08,3.59-7.24,7.92-9.5,13c-3.88,12.3-8.55,24.3-14,36
		c-3.01,4.02-6.84,6.85-11.5,8.5c-4.67,4.01-5.17,8.51-1.5,13.5c0.67,3.67,0.67,7.33,0,11c-1.78,6.15-3.61,12.15-5.5,18
		c-0.96-0.45-1.79-1.12-2.5-2c-0.18-3.38-0.68-6.72-1.5-10c-1.65,1.15-3.15,2.48-4.5,4c-1.9,4.9-4.07,9.56-6.5,14c-1,0-2,0-3,0
		c1.55-6.84,3.71-13.51,6.5-20c0.67-2.67,0.67-5.33,0-8c-5.7-3.69-5.87-7.36-0.5-11c0.52,6.43,2.35,7.1,5.5,2
		c4.39-6.6,5.89-13.6,4.5-21c4.04-3.57,7.21-7.9,9.5-13c16.38-45.88,33.22-91.54,50.5-137c2.45-0.42,3.78,0.58,4,3
		c-1.36,3.19-2.2,6.52-2.5,10c-5.04,6.12-7.04,13.12-6,21c4.87-6.59,8.2-13.92,10-22c1.09-0.79,2.25-1.46,3.5-2
		c0.83-4.3,1.33-8.63,1.5-13c4.46-7.25,8.13-14.92,11-23c1.68-6.94,0.18-12.94-4.5-18C602.23,1611.38,615.23,1576.38,628.5,1541.5z"
		/>
</g>
<g>
	<path class="st52" d="M681.5,1558.5c1.52,0.01,2.68,0.68,3.5,2c0.33,9.33,0.67,18.67,1,28c1.51,2.42,3.67,3.42,6.5,3
		c-0.33-9.85,0.01-19.51,1-29c0.93,50.65,0.1,101.32-2.5,152c-0.67,18.67-0.67,37.33,0,56c3.71,3.99,7.38,3.99,11,0
		c0.33-3,0.67-6,1-9c3.07-0.83,5.57,0.17,7.5,3c-0.51,3.34-0.67,6.67-0.5,10c1.01,0.84,2.18,1.17,3.5,1c-0.67,2.84-2,5.34-4,7.5
		c-4.09,0.59-7.75,1.76-11,3.5c-2.97-0.58-5.97-1.25-9-2c0.98-1.48,2.15-2.81,3.5-4c0.67-0.67,0.67-1.33,0-2
		c-8.19-2.02-13.69-7.02-16.5-15c-0.17-22,0-44,0.5-66C680.16,1651.22,681.66,1604.88,681.5,1558.5z"/>
</g>
<g>
	<path class="st52" d="M589.5,1646.5c4.68,5.06,6.18,11.06,4.5,18c-2.88,8.08-6.54,15.75-11,23c-0.17,4.37-0.67,8.7-1.5,13
		c-1.25,0.54-2.41,1.21-3.5,2c-1.8,8.08-5.13,15.41-10,22c-1.04-7.88,0.96-14.88,6-21c0.3-3.48,1.14-6.81,2.5-10
		c-0.22-2.42-1.55-3.42-4-3c0.16-1.37-0.01-2.71-0.5-4c-4.41-2.91-7.91-6.58-10.5-11c3.53,0.15,6.36-1.18,8.5-4
		c2.8-4.6,5.3-9.27,7.5-14c2.04,1.28,4.04,1.11,6-0.5C585.4,1653.36,587.4,1649.86,589.5,1646.5z"/>
</g>
<g>
	<path class="st83" d="M570.5,1650.5c2.69,2.03,5.03,4.36,7,7c-2.2,4.73-4.7,9.4-7.5,14c-2.14,2.82-4.97,4.15-8.5,4
		c-0.67,0-1.33,0-2,0c1.6-4.96,3.1-9.96,4.5-15C565.43,1656.63,567.6,1653.29,570.5,1650.5z"/>
</g>
<g>
	<path class="st52" d="M928.5,1658.5c4.29,2.45,7.79,5.79,10.5,10c40.17,55.17,79.17,111.17,117,168
		c56.33,80.33,112.67,160.67,169,241c2.44,3.95,5.94,5.95,10.5,6c0,0.67,0,1.33,0,2c-2.13,1.63-4.13,3.46-6,5.5
		c-10.5,2.92-19.83,7.92-28,15c-1.05,1.76-1.05,3.59,0,5.5c0.05,1.54-0.62,2.54-2,3c-0.64-0.98-1.31-1.98-2-3
		c2.26-4.47,2.43-9.14,0.5-14c-71-102-142-204-213-306c-3.94-4.54-8.94-6.54-15-6c-6.51-0.26-12.51,1.08-18,4
		c-3.82-1.06-7.65-1.06-11.5,0c-0.85-9.32-1.51-18.65-2-28c-7.33,1.99-14.66,3.99-22,6c-0.11,9.35,0.22,18.69,1,28
		c-8.23,1.95-16.57,3.45-25,4.5c-42.41,1.75-84.74,4.58-127,8.5c-2.82,7.55-8.15,10.05-16,7.5c-1.4-0.41-2.73-0.91-4-1.5
		c2.43-1.57,2.43-3.07,0-4.5c-5.54-4.62-11.87-6.62-19-6c-3.78,0.61-5.45,2.78-5,6.5c-3.33-10.32-2.33-20.32,3-30
		c4.12-1.78,8.45-2.78,13-3c6.4,0.68,12.73,1.68,19,3c2.71,2.87,5.88,5.2,9.5,7c2.72-2.91,5.55-5.74,8.5-8.5
		c37.66-2.71,75.33-5.38,113-8c1.54-1.11,2.2-2.61,2-4.5c2.82-1.44,5.82-2.61,9-3.5c6-0.33,12-0.67,18-1c7.72-2.84,15.72-4.17,24-4
		c3.73-1.97,7.73-2.97,12-3c3.43-2.15,3.93-4.98,1.5-8.5c-9.12-11.79-17.45-24.12-25-37c-11.57-14.4-21.73-29.73-30.5-46
		c2.43-2.94,5.1-5.77,8-8.5c5.78-1.51,10.62-0.01,14.5,4.5c1.45,4.28,4.28,6.95,8.5,8C929.49,1664.46,929.16,1661.46,928.5,1658.5z"
		/>
</g>
<g>
	<path class="st6" d="M611.5,1687.5c4.59,3.09,8.76,6.75,12.5,11c11.23,16.73,23.4,32.73,36.5,48c1.32,2.64,1.32,5.3,0,8
		c-0.86,1.08-1.86,1.25-3,0.5c-12.15-19.8-25.65-38.64-40.5-56.5C614.45,1695.14,612.62,1691.47,611.5,1687.5z"/>
</g>
<g>
	<path class="st46" d="M940.5,1789.5c-7.26,3.4-14.93,5.4-23,6c-0.78-9.31-1.11-18.65-1-28c7.34-2.01,14.67-4.01,22-6
		C938.99,1770.85,939.65,1780.18,940.5,1789.5z"/>
</g>
<g>
	<path class="st9" d="M710.5,1764.5c1,0,2,0,3,0c1.1,1.06,2.43,1.89,4,2.5c13.04,0.65,26.04,1.65,39,3c3.85,1.09,7.18,2.92,10,5.5
		c0.21,1.64-0.12,3.14-1,4.5c-2.98,0.5-5.98,0.66-9,0.5c-6.27-1.32-12.6-2.32-19-3c-4.55,0.22-8.88,1.22-13,3
		c-2.26-2.15-4.59-4.32-7-6.5c-1.69-0.48-3.03,0.02-4,1.5c-1.32,0.17-2.49-0.16-3.5-1C709.83,1771.17,709.99,1767.84,710.5,1764.5z"
		/>
</g>
<g>
	<path class="st84" d="M889.5,1766.5c0.2,1.89-0.46,3.39-2,4.5c-37.67,2.62-75.34,5.29-113,8c-2.95,2.76-5.78,5.59-8.5,8.5
		c-3.62-1.8-6.79-4.13-9.5-7c3.02,0.16,6.02,0,9-0.5c0.88-1.36,1.21-2.86,1-4.5c11.51-2.55,23.18-4.05,35-4.5
		C830.83,1769.39,860.16,1767.89,889.5,1766.5z"/>
</g>
<g>
	<path class="st12" d="M669.5,1774.5c1.33,0,2.67,0,4,0c0.2,2.45-0.13,4.78-1,7c-7.62,3.12-14.62,7.28-21,12.5
		c-3.71,0.32-7.38,0.82-11,1.5c0.8-2.93,1.13-5.93,1-9c1-0.67,2-1.33,3-2C652.74,1780.88,661.08,1777.54,669.5,1774.5z"/>
</g>
<g>
	<path class="st85" d="M724.5,1780.5c-5.33,9.68-6.33,19.68-3,30c0,0.33,0,0.67,0,1c-2.57,3.79-6.24,5.79-11,6
		c-0.4-2.98-1.4-5.64-3-8c0.16-3.68,0-7.35-0.5-11c-3.14-2.6-4.97-5.94-5.5-10c-1.24-0.44-2.24-1.11-3-2c3.25-1.74,6.91-2.91,11-3.5
		c2-2.16,3.33-4.66,4-7.5c0.97-1.48,2.31-1.98,4-1.5C719.91,1776.18,722.24,1778.35,724.5,1780.5z"/>
</g>
<g>
	<path class="st86" d="M672.5,1781.5c1.7-0.16,3.37,0.01,5,0.5c2.98,2.32,6.31,3.82,10,4.5c-1.07,4.48-3.4,8.14-7,11
		c-1.13-5.59-4.46-7.43-10-5.5c-1.62,1.12-2.62,2.62-3,4.5c0.88,2.63,1.54,5.3,2,8c-7.8,1.95-9.97,6.61-6.5,14
		c1.51,2.36,3.01,4.69,4.5,7c-1.47,1.24-3.13,2.24-5,3c-2.65,1.34-4.99,3-7,5c-0.67,0-1.33,0-2,0c-4.09-1.3-7.92-3.3-11.5-6
		c-2.08-3.37-2.91-7.04-2.5-11c5.02-6.55,3.69-11.22-4-14c0.47-3.14,2.14-5.48,5-7c3.62-0.68,7.29-1.18,11-1.5
		C657.88,1788.78,664.88,1784.62,672.5,1781.5z"/>
</g>
<g>
	<path class="st60" d="M676.5,1763.5c2.81,7.98,8.31,12.98,16.5,15c0.67,0.67,0.67,1.33,0,2c-1.35,1.19-2.52,2.52-3.5,4
		c3.03,0.75,6.03,1.42,9,2c0.76,0.89,1.76,1.56,3,2c0.53,4.06,2.36,7.4,5.5,10c0.5,3.65,0.66,7.32,0.5,11c-1.67,3.73-4.33,5.06-8,4
		c-0.7-3.54-1.37-7.04-2-10.5c-2.76,0.6-5.59,1.43-8.5,2.5c-2.57-0.45-4.9-1.45-7-3c-0.38,0.56-0.88,0.89-1.5,1c0-2,0-4,0-6
		c3.6-2.86,5.93-6.52,7-11c-3.69-0.68-7.02-2.18-10-4.5c-1.63-0.49-3.3-0.66-5-0.5c0.87-2.22,1.2-4.55,1-7c-1.33,0-2.67,0-4,0
		c1.07-0.93,2.4-1.27,4-1c-0.16-2.36,0-4.69,0.5-7C674.38,1765.06,675.21,1764.06,676.5,1763.5z"/>
</g>
<g>
	<path class="st87" d="M641.5,1786.5c0.13,3.07-0.2,6.07-1,9c-2.86,1.52-4.53,3.86-5,7c-0.62,0.11-1.12,0.44-1.5,1
		c-0.95,4.56-0.45,8.89,1.5,13c0.16,3.02,0,6.02-0.5,9c-0.42,1.46-1.26,1.96-2.5,1.5c-0.96-1.42-1.79-2.92-2.5-4.5
		c-0.3-3.41-0.96-6.75-2-10c-0.71-0.88-1.54-1.55-2.5-2c3.27-3.81,2.27-5.48-3-5c-4.02,0.36-8.02,0.86-12,1.5
		c-17.96,5.21-35.96,10.21-54,15c-1.99,1.32-3.15,3.15-3.5,5.5c-2.14,8.2-3.31,16.53-3.5,25c-1.33,2-3,3.67-5,5
		c-4.72-12.08-3.88-23.74,2.5-35c1.8-2.33,3.97-3.99,6.5-5c19.99-5.39,39.99-10.89,60-16.5
		C623.58,1797.46,632.92,1792.63,641.5,1786.5z"/>
</g>
<g>
	<path class="st0" d="M680.5,1797.5c0,2,0,4,0,6c-2.43-0.23-4.1,0.77-5,3c-1.82-1.13-3.82-1.8-6-2c-0.46-2.7-1.12-5.37-2-8
		c0.38-1.88,1.38-3.38,3-4.5C676.04,1790.07,679.38,1791.91,680.5,1797.5z"/>
</g>
<g>
	<path class="st46" d="M556.5,1792.5c-0.98,5.45-2.48,10.79-4.5,16c-0.17,1.5-0.33,3-0.5,4.5c0.07,1.99,0.73,3.49,2,4.5
		c-2.53,1.01-4.7,2.67-6.5,5c-6.38,11.26-7.22,22.92-2.5,35c-4.23,2.72-8.07,6.05-11.5,10c-5.18,10.36-10.35,20.69-15.5,31
		c-2.47-1.19-3.47-3.19-3-6c1.89-5.85,3.72-11.85,5.5-18c0.67-3.67,0.67-7.33,0-11c-3.67-4.99-3.17-9.49,1.5-13.5
		c4.66-1.65,8.49-4.48,11.5-8.5c5.45-11.7,10.12-23.7,14-36C549.26,1800.42,552.42,1796.09,556.5,1792.5z"/>
</g>
<g>
	<path class="st88" d="M707.5,1809.5c1.6,2.36,2.6,5.02,3,8c-5.12,3.68-10.78,4.68-17,3c-1.52-2.85-3.85-4.52-7-5
		c0.27-2.68-0.73-4.18-3-4.5c-0.83,2.8-1.66,5.64-2.5,8.5c-0.42,1.26-1.25,1.92-2.5,2c-1,0.09-1.83-0.25-2.5-1
		c-0.5-4.65-0.67-9.32-0.5-14c0.9-2.23,2.57-3.23,5-3c0.62-0.11,1.12-0.44,1.5-1c2.1,1.55,4.43,2.55,7,3c2.91-1.07,5.74-1.9,8.5-2.5
		c0.63,3.46,1.3,6.96,2,10.5C703.17,1814.56,705.83,1813.23,707.5,1809.5z"/>
</g>
<g>
	<path class="st72" d="M635.5,1802.5c7.69,2.78,9.02,7.45,4,14c-1.33,0-2.67,0-4,0c-1.95-4.11-2.45-8.44-1.5-13
		C634.38,1802.94,634.88,1802.61,635.5,1802.5z"/>
</g>
<g>
	<path class="st89" d="M745.5,1814.5c-2,0-4,0-6,0c-3.33,0-6.67,0-10,0c-2.58-0.99-5.25-1.99-8-3c0-0.33,0-0.67,0-1
		c-0.45-3.72,1.22-5.89,5-6.5c7.13-0.62,13.46,1.38,19,6C747.93,1811.43,747.93,1812.93,745.5,1814.5z"/>
</g>
<g>
	<path class="st46" d="M625.5,1810.5c-0.06,6.41,0.61,12.74,2,19c-0.12,1.42-0.46,2.76-1,4c-1.64,0.65-2.97,1.65-4,3
		c-24.15,6.12-48.48,11.45-73,16c0.19-8.47,1.36-16.8,3.5-25c0.35-2.35,1.51-4.18,3.5-5.5c18.04-4.79,36.04-9.79,54-15
		c3.98-0.64,7.98-1.14,12-1.5C627.77,1805.02,628.77,1806.69,625.5,1810.5z"/>
</g>
<g>
	<path class="st69" d="M669.5,1804.5c2.18,0.2,4.18,0.87,6,2c-0.17,4.68,0,9.35,0.5,14c0.67,0.75,1.5,1.09,2.5,1
		c-1.19,0.77-2.19,1.77-3,3c-2.67,0.33-5.33,0.67-8,1c-1.49-2.31-2.99-4.64-4.5-7C659.53,1811.11,661.7,1806.45,669.5,1804.5z"/>
</g>
<g>
	<path class="st90" d="M686.5,1815.5c0.24,7.41-3.43,10.41-11,9c0.81-1.23,1.81-2.23,3-3c1.25-0.08,2.08-0.74,2.5-2
		c0.84-2.86,1.67-5.7,2.5-8.5C685.77,1811.32,686.77,1812.82,686.5,1815.5z"/>
</g>
<g>
	<path class="st10" d="M625.5,1810.5c0.96,0.45,1.79,1.12,2.5,2c1.04,3.25,1.7,6.59,2,10c0.71,1.58,1.54,3.08,2.5,4.5
		c1.24,0.46,2.08-0.04,2.5-1.5c0.5-2.98,0.66-5.98,0.5-9c1.33,0,2.67,0,4,0c-0.41,3.96,0.42,7.63,2.5,11c3.58,2.7,7.41,4.7,11.5,6
		c-1.25,0.08-2.08,0.74-2.5,2c-0.17,1.5-0.33,3-0.5,4.5c0.93,6.29,1.26,12.46,1,18.5c-1.7,1.81-2.53,4.14-2.5,7
		c-0.82,1.32-1.98,1.99-3.5,2c-0.46-9.33-0.96-18.66-1.5-28c-0.81-3.9-2.47-4.56-5-2c0.9,8.24-2.6,13.24-10.5,15
		c0.62-6.75-0.04-13.09-2-19c0.54-1.24,0.88-2.58,1-4C626.11,1823.24,625.44,1816.91,625.5,1810.5z"/>
</g>
<g>
	<path class="st12" d="M721.5,1811.5c2.75,1.01,5.42,2.01,8,3c-1.72,0.34-2.22,1.34-1.5,3c1.05,2.56,2.89,4.22,5.5,5
		c0.99,1.3,1.99,2.63,3,4c-5.64-0.54-10.97,0.13-16,2c-1.72-1.3-3.89-1.97-6.5-2c-7.69,0.27-15.03,1.94-22,5
		c-0.66,3.03-0.16,5.87,1.5,8.5c-0.97,1.48-2.3,2.31-4,2.5c-1.48,0.26-2.81-0.07-4-1c-1.52-3.56-3.85-6.39-7-8.5
		c-4.92-0.51-9.59,0.16-14,2c-1.73-1.79-2.4-3.96-2-6.5c1.87-0.76,3.53-1.76,5-3c2.67-0.33,5.33-0.67,8-1c7.57,1.41,11.24-1.59,11-9
		c3.15,0.48,5.48,2.15,7,5c6.22,1.68,11.88,0.68,17-3C715.26,1817.29,718.93,1815.29,721.5,1811.5z"/>
</g>
<g>
	<path class="st91" d="M729.5,1814.5c3.33,0,6.67,0,10,0c-1.77,0.96-3.77,1.29-6,1c0,2.33,0,4.67,0,7c-2.61-0.78-4.45-2.44-5.5-5
		C727.28,1815.84,727.78,1814.84,729.5,1814.5z"/>
</g>
<g>
	<path class="st92" d="M720.5,1828.5c-0.16,2.36,0,4.69,0.5,7c1.13,1.44,2.63,2.11,4.5,2c4.64-1.27,9.3-2.43,14-3.5
		c1.26-0.42,1.92-1.25,2-2.5c0.84,2.32,1.84,4.66,3,7c-7.22,3.95-14.55,7.95-22,12c-7.29-2.58-14.63-2.58-22,0
		c-3.38,0.04-6.71-0.29-10-1c0.05-2.79-1.28-4.63-4-5.5c1.24-0.23,2.24-0.73,3-1.5c1.7-0.19,3.03-1.02,4-2.5
		c-1.66-2.63-2.16-5.47-1.5-8.5c6.97-3.06,14.31-4.73,22-5C716.61,1826.53,718.78,1827.2,720.5,1828.5z"/>
</g>
<g>
	<path class="st41" d="M736.5,1826.5c2.67,0.67,4.33,2.33,5,5c-0.08,1.25-0.74,2.08-2,2.5c-4.7,1.07-9.36,2.23-14,3.5
		c-1.87,0.11-3.37-0.56-4.5-2c-0.5-2.31-0.66-4.64-0.5-7C725.53,1826.63,730.86,1825.96,736.5,1826.5z"/>
</g>
<g>
	<path class="st34" d="M662.5,1828.5c-0.4,2.54,0.27,4.71,2,6.5c4.41-1.84,9.08-2.51,14-2c3.15,2.11,5.48,4.94,7,8.5
		c1.19,0.93,2.52,1.26,4,1c-0.76,0.77-1.76,1.27-3,1.5c2.72,0.87,4.05,2.71,4,5.5c-1.25,1.64-2.92,2.8-5,3.5
		c-4.67,0.33-9.34,0.17-14-0.5c-4.64-6.97-9.97-13.3-16-19C657.51,1831.5,659.85,1829.84,662.5,1828.5z"/>
</g>
<g>
	<path class="st50" d="M626.5,1833.5c1.96,5.91,2.62,12.25,2,19c7.9-1.76,11.4-6.76,10.5-15c2.53-2.56,4.19-1.9,5,2
		c0.54,9.34,1.04,18.67,1.5,28c-0.16,3.02,0,6.02,0.5,9c0.28,0.92,0.78,1.58,1.5,2c-0.17,10.34,0,20.67,0.5,31
		c0.41,1.4,0.91,2.73,1.5,4c-1.45,5.81-2.12,11.81-2,18c-2.12,0.17-4.12-0.16-6-1c1.42-0.95,3.09-1.28,5-1c0.16-3.02,0-6.02-0.5-9
		c-3.64-8.18-4.47-16.68-2.5-25.5c-0.4-5.51-0.9-11.01-1.5-16.5c-1.9-4.04-3.07-3.88-3.5,0.5c1.62,4.03,2.12,8.19,1.5,12.5
		c-0.75,2.25-2.25,3.58-4.5,4c0.54-4.85-1.46-7.02-6-6.5c-1.85,0.84-3.68,1.67-5.5,2.5c-0.17-8.84-0.67-17.51-1.5-26
		c0-9.67,0-19.33,0-29C623.53,1835.15,624.86,1834.15,626.5,1833.5z"/>
</g>
<g>
	<path class="st42" d="M653.5,1833.5c0.67,0,1.33,0,2,0c6.03,5.7,11.36,12.03,16,19c0.2,1.89-0.46,3.39-2,4.5
		c-3.53,0.09-6.86,0.76-10,2c4.9-0.7,8.24,1.13,10,5.5c-3.07,0.32-6.07-0.02-9-1c-2.01-3.27-5.01-4.94-9-5
		c0.26-6.04-0.07-12.21-1-18.5c0.17-1.5,0.33-3,0.5-4.5C651.42,1834.24,652.25,1833.58,653.5,1833.5z"/>
</g>
<g>
	<path class="st93" d="M703.5,1836.5c1.67,0,3.33,0,5,0c0.06,5.48-2.6,7.32-8,5.5c-0.84-1.01-1.17-2.18-1-3.5
		C701.38,1838.77,702.71,1838.1,703.5,1836.5z"/>
</g>
<g>
	<path class="st94" d="M512.5,1840.5c1.39,7.4-0.11,14.4-4.5,21c-3.15,5.1-4.98,4.43-5.5-2c1.03-5.71,1.53-11.38,1.5-17
		C506.48,1840.69,509.32,1840.02,512.5,1840.5z"/>
</g>
<g>
	<path class="st9" d="M722.5,1850.5c-1.19,3.86-3.52,6.86-7,9c-2.81-0.48-4.81,0.52-6,3c-2.33,0-4.67,0-7,0c0.31-4.2-0.36-8.2-2-12
		C707.87,1847.92,715.21,1847.92,722.5,1850.5z"/>
</g>
<g>
	<path class="st39" d="M690.5,1849.5c3.29,0.71,6.62,1.04,10,1c1.64,3.8,2.31,7.8,2,12c-2.41,0.81-4.75,1.81-7,3c-8,0-16,0-24,0
		c-0.34-0.84-1.01-1.17-2-1c-1.76-4.37-5.1-6.2-10-5.5c3.14-1.24,6.47-1.91,10-2c1.54-1.11,2.2-2.61,2-4.5
		c4.66,0.67,9.33,0.83,14,0.5C687.58,1852.3,689.25,1851.14,690.5,1849.5z"/>
</g>
<g>
	<path class="st79" d="M651.5,1858.5c3.99,0.06,6.99,1.73,9,5c2.93,0.98,5.93,1.32,9,1c0.99-0.17,1.66,0.16,2,1c0,6.33,0,12.67,0,19
		c-3.18,1.69-4.85,4.36-5,8c-1.05,0.15-2.05-0.02-3-0.5c-3.7-3.37-7.04-7.03-10-11c-1.99-0.94-3.99-1.77-6-2.5
		c-0.72-0.42-1.22-1.08-1.5-2c-0.5-2.98-0.66-5.98-0.5-9c1.52-0.01,2.68-0.68,3.5-2C648.97,1862.64,649.8,1860.31,651.5,1858.5z"/>
</g>
<g>
	<path class="st95" d="M715.5,1859.5c-0.73,1.21-1.07,2.54-1,4c-1.79,0.13-3.46-0.2-5-1C710.69,1860.02,712.69,1859.02,715.5,1859.5
		z"/>
</g>
<g>
	<path class="st69" d="M671.5,1865.5c8,0,16,0,24,0c-0.49,6.61,0.51,12.95,3,19c-3.14,0.3-5.31,1.97-6.5,5
		c0.11,5.96-1.05,11.63-3.5,17c-3.46,2.73-7.46,3.73-12,3c1.85-6.21,2.35-12.54,1.5-19c-1.39-2.89-3.55-4.89-6.5-6
		C671.5,1878.17,671.5,1871.83,671.5,1865.5z"/>
</g>
<g>
	<path class="st96" d="M460.5,1866.5c3.88,1.05,6.71,3.38,8.5,7c1.2,5.92,1.86,11.92,2,18c2.17-0.83,3.67-2.33,4.5-4.5
		c1.29-0.49,2.63-0.66,4-0.5c2.88,5.64,4.55,11.64,5,18c0.44,15.9-3.06,30.9-10.5,45c-1.32,1.99-3.15,3.15-5.5,3.5
		c-5.66,0.5-11.32,0.67-17,0.5c-0.67,0-1-0.33-1-1c4.52-16.04,6.02-32.37,4.5-49c-2.71-8.43-5.71-16.76-9-25
		c-0.72-2.76-0.55-5.43,0.5-8C450.89,1868.57,455.55,1867.23,460.5,1866.5z"/>
</g>
<g>
	<path class="st97" d="M446.5,1870.5c-1.05,2.57-1.22,5.24-0.5,8c3.29,8.24,6.29,16.57,9,25c1.52,16.63,0.02,32.96-4.5,49
		c-13.75-13.44-23.41-29.44-29-48c4.81-11.01,11.15-21.17,19-30.5C442.4,1872.58,444.4,1871.41,446.5,1870.5z"/>
</g>
<g>
	<path class="st98" d="M641.5,1930.5c-0.33,0-0.67,0-1,0c0.15-1.05-0.02-2.05-0.5-3c-3.36-2.71-6.03-6.04-8-10c-0.67-3-0.67-6,0-9
		c2.26-4.04,3.43-8.37,3.5-13c2.25-0.42,3.75-1.75,4.5-4c0.62-4.31,0.12-8.47-1.5-12.5c0.43-4.38,1.6-4.54,3.5-0.5
		c0.6,5.49,1.1,10.99,1.5,16.5c-1.97,8.82-1.14,17.32,2.5,25.5c0.5,2.98,0.66,5.98,0.5,9
		C644.59,1929.22,642.92,1929.55,641.5,1930.5z"/>
</g>
<g>
	<path class="st99" d="M647.5,1878.5c2.01,0.73,4.01,1.56,6,2.5c2.96,3.97,6.3,7.63,10,11c0.95,0.48,1.95,0.65,3,0.5
		c1.6,12.63,2.93,25.3,4,38c-0.01,1.55-0.34,2.88-1,4c0-1,0-2,0-3c-3.37-1.02-6.71-1.02-10,0c0.04-4.97,1.04-9.64,3-14
		c-4.25-1.63-8.58-2.96-13-4c-0.59-1.27-1.09-2.6-1.5-4C647.5,1899.17,647.33,1888.84,647.5,1878.5z"/>
</g>
<g>
	<path class="st50" d="M514.5,1892.5c-0.47,2.81,0.53,4.81,3,6c-5.87,20.62-12.54,40.95-20,61c-1.47,0.57-2.81,1.41-4,2.5
		c-4.25,1.41-6.75-0.09-7.5-4.5c-1.75-6.46-1.92-12.96-0.5-19.5c0.5-2,1.67-3.5,3.5-4.5c0.33-3,0.67-6,1-9
		c5.61-7.75,8.77-16.42,9.5-26c2.43-4.44,4.6-9.1,6.5-14c1.35-1.52,2.85-2.85,4.5-4c0.82,3.28,1.32,6.62,1.5,10
		C512.71,1891.38,513.54,1892.05,514.5,1892.5z"/>
</g>
<g>
	<path class="st89" d="M698.5,1884.5c0,0.33,0,0.67,0,1c-0.37,5.66-0.7,11.33-1,17c-0.05,6.52,0.95,12.85,3,19c0,2-1,3-3,3
		c-9.7-1.34-16.7-6.34-21-15c4.54,0.73,8.54-0.27,12-3c2.45-5.37,3.61-11.04,3.5-17C693.19,1886.47,695.36,1884.8,698.5,1884.5z"/>
</g>
<g>
	<path class="st50" d="M671.5,1884.5c2.95,1.11,5.11,3.11,6.5,6c0.85,6.46,0.35,12.79-1.5,19c4.3,8.66,11.3,13.66,21,15
		c0.46,2.91,1.46,5.57,3,8c-0.17,5.01,0,10.01,0.5,15c0.24,2.35,1.07,4.35,2.5,6c0,2.67,0,5.33,0,8c-0.65,7.78,0.35,15.28,3,22.5
		c0.1,3.06-1.23,5.23-4,6.5c-7.83,1.7-15.5,1.2-23-1.5c-5.05-4.31-7.72-9.81-8-16.5c0-2,0-4,0-6c0-1.67,0-3.33,0-5
		c3.88,0.44,5.88-1.23,6-5c6.86,3.23,11.86,1.4,15-5.5c-0.87-4.54-3.54-6.2-8-5c-2.05,2.9-4.71,4.74-8,5.5c-1.19-2.48-3.19-3.48-6-3
		c0.3-2.56-0.03-4.89-1-7c0-2.33,0-4.67,0-7c0.66-1.12,0.99-2.45,1-4c-1.07-12.7-2.4-25.37-4-38
		C666.65,1888.86,668.32,1886.19,671.5,1884.5z"/>
</g>
<g>
	<path class="st100" d="M698.5,1885.5c3.38,4.52,4.71,9.69,4,15.5c-0.21,7.03-0.88,13.86-2,20.5c-2.05-6.15-3.05-12.48-3-19
		C697.8,1896.83,698.13,1891.16,698.5,1885.5z"/>
</g>
<g>
	<path class="st101" d="M622.5,1865.5c0.83,8.49,1.33,17.16,1.5,26c1.82-0.83,3.65-1.66,5.5-2.5c4.54-0.52,6.54,1.65,6,6.5
		c-3.78,1.81-7.78,2.81-12,3c0.24,1.29-0.1,2.29-1,3C622.5,1889.5,622.5,1877.5,622.5,1865.5z"/>
</g>
<g>
	<path class="st35" d="M635.5,1895.5c-0.07,4.63-1.24,8.96-3.5,13c-0.67,3-0.67,6,0,9c1.97,3.96,4.64,7.29,8,10
		c0.48,0.95,0.65,1.95,0.5,3c-4.04,1.62-8.37,2.45-13,2.5c-1.58,1.09-3.24,1.93-5,2.5c0-11.33,0-22.67,0-34c0.9-0.71,1.24-1.71,1-3
		C627.72,1898.31,631.72,1897.31,635.5,1895.5z"/>
</g>
<g>
	<path class="st0" d="M649.5,1913.5c4.42,1.04,8.75,2.37,13,4c-1.96,4.36-2.96,9.03-3,14c-3.9,1.29-7.9,1.29-12,0
		C647.38,1925.31,648.05,1919.31,649.5,1913.5z"/>
</g>
<g>
	<path class="st47" d="M640.5,1930.5c0.33,0,0.67,0,1,0c1.88,0.84,3.88,1.17,6,1c4.1,1.29,8.1,1.29,12,0c3.29-1.02,6.63-1.02,10,0
		c0,1,0,2,0,3c0,2.33,0,4.67,0,7c-0.09,4.35-0.42,8.68-1,13c1,4.05,2,8.05,3,12c0,2,0,4,0,6c-3.58,1.02-7.25,1.85-11,2.5
		c-2.25,0.75-3.58,2.25-4,4.5c-1.72,1.72-3.05,3.72-4,6c-0.97,2.11-1.3,4.44-1,7c-3.77,0.24-7.44-0.26-11-1.5
		c-1.2-0.9-2.03-2.07-2.5-3.5c-0.91-4.04-1.91-8.04-3-12c-4.06-2.95-8.56-4.62-13.5-5c0,9.67,0,19.33,0,29c0.24,1.29-0.1,2.29-1,3
		c0.4-16.89-0.27-33.72-2-50.5c0.17-2.83,0.33-5.67,0.5-8.5c1.08-2.77,2.25-5.43,3.5-8c1.76-0.57,3.42-1.41,5-2.5
		C632.13,1932.95,636.46,1932.12,640.5,1930.5z"/>
</g>
<g>
	<path class="st10" d="M700.5,1932.5c1.3,1.49,2.47,3.15,3.5,5c0.73,5.39,0.57,10.72-0.5,16c-1.43-1.65-2.26-3.65-2.5-6
		C700.5,1942.51,700.33,1937.51,700.5,1932.5z"/>
</g>
<g>
	<path class="st102" d="M677.5,1956.5c-0.8-1.54-1.13-3.21-1-5c3.29-0.76,5.95-2.6,8-5.5c4.46-1.2,7.13,0.46,8,5
		C689.36,1957.9,684.36,1959.73,677.5,1956.5z"/>
</g>
<g>
	<path class="st75" d="M669.5,1941.5c0.97,2.11,1.3,4.44,1,7c2.81-0.48,4.81,0.52,6,3c-0.13,1.79,0.2,3.46,1,5
		c-0.12,3.77-2.12,5.44-6,5c0,1.67,0,3.33,0,5c-1-3.95-2-7.95-3-12C669.08,1950.18,669.41,1945.85,669.5,1941.5z"/>
</g>
<g>
	<path class="st103" d="M496.5,1898.5c1,0,2,0,3,0c-0.73,9.58-3.89,18.25-9.5,26c-0.33,3-0.67,6-1,9c-1.83,1-3,2.5-3.5,4.5
		c-1.42,6.54-1.25,13.04,0.5,19.5c0.75,4.41,3.25,5.91,7.5,4.5c1.19-1.09,2.53-1.93,4-2.5c0.35,2.95-0.65,5.29-3,7
		c-2.97,0.83-5.97,1-9,0.5c-2.15-2.47-3.65-5.3-4.5-8.5c-0.67-1.33-1.33-1.33-2,0c-6.74,20.39-13.58,40.73-20.5,61
		c6.05-0.36,11.05-2.86,15-7.5c1.63-0.49,3.3-0.66,5-0.5c0.24,2.4-0.43,4.4-2,6c-13.25,9.5-19.92,22.5-20,39
		c0.19,4.69,0.52,9.35,1,14c-2.16,13.15-6.49,25.48-13,37c-8.27-0.28-15.43,2.38-21.5,8c-1.03,3.18-0.36,5.85,2,8
		c7.46-4.27,11.3-2.27,11.5,6c0,0.33,0,0.67,0,1c-4.64,0.65-9.3,1.15-14,1.5c-6.75,3.05-8.75,8.05-6,15c4.65,0.5,9.32,0.67,14,0.5
		c0,1,0,2,0,3c-2.27,10.82-6.27,20.82-12,30c-1.29,0.79-2.46,1.79-3.5,3c-0.8,2.4-1.96,4.57-3.5,6.5c-3.67,0.33-7.33,0.67-11,1
		c-4.79,4.41-7.29,9.91-7.5,16.5c-1,2.16-2.5,3.83-4.5,5c0-3.33,0-6.67,0-10c26.47-82.08,55.14-163.41,86-244
		c-5.98-0.64-11.98-0.8-18-0.5c-2.16-1-3.83-2.5-5-4.5c5.68,0.17,11.34,0,17-0.5c2.35-0.35,4.18-1.51,5.5-3.5
		c7.44-14.1,10.94-29.1,10.5-45c0.98,4.13,1.32,8.47,1,13c1.32,0.17,2.49-0.16,3.5-1C491.41,1910.43,493.91,1904.43,496.5,1898.5z"
		/>
</g>
<g>
	<path class="st104" d="M494.5,1966.5c-4.14,15.43-9.48,30.43-16,45c-1.7-0.16-3.37,0.01-5,0.5c-3.95,4.64-8.95,7.14-15,7.5
		c6.92-20.27,13.76-40.61,20.5-61c0.67-1.33,1.33-1.33,2,0c0.85,3.2,2.35,6.03,4.5,8.5C488.53,1967.5,491.53,1967.33,494.5,1966.5z"
		/>
</g>
<g>
	<path class="st60" d="M703.5,1961.5c0.9,0.71,1.24,1.71,1,3c6.22,0.03,11.38,2.36,15.5,7c4.47,10.12,10.14,19.46,17,28
		c7.43,7.93,15.26,15.27,23.5,22c-1.98,2.51-4.65,4.01-8,4.5c-19.18,2.7-38.18,6.36-57,11c-6.99,1.02-13.99,1.85-21,2.5
		c0.63-11.54-0.37-22.87-3-34c8.13-5.26,17.13-7.43,27-6.5c3.55-1.68,4.88-4.51,4-8.5c2.77-1.27,4.1-3.44,4-6.5
		C703.85,1976.78,702.85,1969.28,703.5,1961.5z"/>
</g>
<g>
	<path class="st104" d="M652.5,1985.5c2.73,17.13,9.56,32.46,20.5,46c0.69,8.93-1.31,17.26-6,25c-2.38,3.88-5.55,6.88-9.5,9
		c-0.33,0-0.67,0-1,0c-6.44-6.61-11.94-13.94-16.5-22c-3.67-3.67-7.33-7.33-11-11c-1.91-2.71-2.74-5.71-2.5-9
		c8.24-0.49,11.74-4.82,10.5-13c-2.31-7.74-7.48-11.4-15.5-11c0-9.67,0-19.33,0-29c4.94,0.38,9.44,2.05,13.5,5
		c1.09,3.96,2.09,7.96,3,12c0.47,1.43,1.3,2.6,2.5,3.5c3.56,1.24,7.23,1.74,11,1.5C651.2,1989.94,651.53,1987.61,652.5,1985.5z"/>
</g>
<g>
	<path class="st44" d="M671.5,1972.5c0.28,6.69,2.95,12.19,8,16.5c7.5,2.7,15.17,3.2,23,1.5c0.88,3.99-0.45,6.82-4,8.5
		c-9.87-0.93-18.87,1.24-27,6.5c-3.32-8.65-8.16-16.32-14.5-23c-0.48-0.95-0.65-1.95-0.5-3c0.42-2.25,1.75-3.75,4-4.5
		C664.25,1974.35,667.92,1973.52,671.5,1972.5z"/>
</g>
<g>
	<path class="st40" d="M621.5,1999.5c8.02-0.4,13.19,3.26,15.5,11c1.24,8.18-2.26,12.51-10.5,13c-2,0-4,0-6,0c0-7,0-14,0-21
		C621.4,2001.79,621.74,2000.79,621.5,1999.5z"/>
</g>
<g>
	<path class="st46" d="M476.5,2017.5c-4.67,18.36-11,36.03-19,53c-0.48-4.65-0.81-9.31-1-14C456.58,2040,463.25,2027,476.5,2017.5z"
		/>
</g>
<g>
	<path class="st59" d="M656.5,1979.5c-0.15,1.05,0.02,2.05,0.5,3c6.34,6.68,11.18,14.35,14.5,23c2.63,11.13,3.63,22.46,3,34
		c7.01-0.65,14.01-1.48,21-2.5c18.82-4.64,37.82-8.3,57-11c3.35-0.49,6.02-1.99,8-4.5c16,8.17,32.66,14.67,50,19.5
		c3.43,2.35,5.76,5.52,7,9.5c0,1.67,0,3.33,0,5c-1.7,0.16-3.37-0.01-5-0.5c-1.26-2.73-3.26-4.56-6-5.5
		c-15.89-7.36-32.05-14.03-48.5-20c-10.42,1.98-20.92,3.48-31.5,4.5c-9.24,2.43-18.57,4.43-28,6c-5.46,1.81-9.96,4.98-13.5,9.5
		c-2.64,7.28-6.3,13.94-11,20c-0.7,4.41-0.36,8.74,1,13c2.93,5.93,6.27,11.59,10,17c0.49,1.63,0.66,3.3,0.5,5
		c-4.05,0.06-7.22-1.61-9.5-5c-4.52-9.71-10.52-18.38-18-26c-0.5-2.65-0.66-5.31-0.5-8c3.95-2.12,7.12-5.12,9.5-9
		c4.69-7.74,6.69-16.07,6-25c-10.94-13.54-17.77-28.87-20.5-46C653.45,1983.22,654.78,1981.22,656.5,1979.5z"/>
</g>
<g>
	<path class="st46" d="M620.5,2023.5c2,0,4,0,6,0c-0.24,3.29,0.59,6.29,2.5,9c3.67,3.67,7.33,7.33,11,11
		c4.56,8.06,10.06,15.39,16.5,22c1.6,6.05-0.4,10.05-6,12c-0.68-0.36-1.35-0.7-2-1c0-0.33,0-0.67,0-1c0.73-4.1-0.27-7.6-3-10.5
		c-7.01-1.59-12.84-5.09-17.5-10.5c-1.04-2.21-1.71-4.55-2-7c-1.26-2.11-3.1-3.11-5.5-3C617.88,2037.47,617.88,2030.47,620.5,2023.5
		z"/>
</g>
<g>
	<path class="st60" d="M806.5,2049.5c12.76,26.52,25.26,53.19,37.5,80c9.03,23.47,16.2,47.47,21.5,72c4.03,15.12,8.53,30.12,13.5,45
		c7.42,10.51,15.09,20.84,23,31c1.38,3.98,0.21,6.81-3.5,8.5c-18.94,2.72-37.6,6.72-56,12c-5.93,1.11-11.59,0.44-17-2
		c-4.01-5.82-6.17-12.32-6.5-19.5c-3.61-11.24-9.28-21.24-17-30c-5-5.33-10-10.67-15-16c-0.52-4.54,1.65-6.54,6.5-6
		c1.33,0.67,2.67,1.33,4,2c1.3,1.38,2.13,3.05,2.5,5c7.74,7.07,14.74,14.73,21,23c4.87,8.89,9.03,18.06,12.5,27.5c3,0.67,6,0.67,9,0
		c13.28-3.15,26.61-5.99,40-8.5c0.33-0.67,0.67-1.33,1-2c-4.99-6.5-9.83-13.17-14.5-20c-2.79-5.03-4.79-10.37-6-16
		c0-11.1-1-22.1-3-33c-4.08-12.9-7.74-25.9-11-39c-3.59-8-8.75-14.83-15.5-20.5c-4.55-1.55-9.21-1.88-14-1
		c-30.59,8.08-61.59,13.92-93,17.5c-11.14-13.6-21.31-27.93-30.5-43c-3.28-4.26-6.78-8.26-10.5-12c0.16-1.7-0.01-3.37-0.5-5
		c-3.73-5.41-7.07-11.07-10-17c-1.36-4.26-1.7-8.59-1-13c4.7-6.06,8.36-12.72,11-20c3.54-4.52,8.04-7.69,13.5-9.5
		c9.43-1.57,18.76-3.57,28-6c10.58-1.02,21.08-2.52,31.5-4.5C774.45,2035.47,790.61,2042.14,806.5,2049.5z"/>
</g>
<g>
	<path class="st59" d="M767.5,2042.5c-0.53,1.22-1.2,2.39-2,3.5c-15.93,0.41-29.1,6.58-39.5,18.5c-3.55,6.6-7.71,12.77-12.5,18.5
		c-5.15,3.38-10.82,5.38-17,6c-1.64,1.13-2.64,2.63-3,4.5c-10.23-14.38-9.23-27.88,3-40.5c3.05-2.19,6.39-3.86,10-5
		c13.57-2.39,26.9-5.72,40-10C754.25,2036.52,761.25,2038.02,767.5,2042.5z"/>
</g>
<g>
	<path class="st104" d="M767.5,2042.5c8.76,3.21,17.42,6.71,26,10.5c2.11,1.26,3.11,3.1,3,5.5c-7.63-0.59-14.97,0.58-22,3.5
		c-17.81,7.41-35.48,15.08-53,23c-4.25,2.24-7.91,5.24-11,9c2.31,0.5,4.64,0.66,7,0.5c-2.8,0.82-5.8,1.32-9,1.5
		c-6.34,5.49-11.34,4.66-15-2.5c0.36-1.87,1.36-3.37,3-4.5c6.18-0.62,11.85-2.62,17-6c4.79-5.73,8.95-11.9,12.5-18.5
		c10.4-11.92,23.57-18.09,39.5-18.5C766.3,2044.89,766.97,2043.72,767.5,2042.5z"/>
</g>
<g>
	<path class="st60" d="M620.5,2044.5c2.4-0.11,4.24,0.89,5.5,3c0.29,2.45,0.96,4.79,2,7c4.66,5.41,10.49,8.91,17.5,10.5
		c2.73,2.9,3.73,6.4,3,10.5c-1.04-2.03-2.71-3.36-5-4c-1.96-1.81-4.29-2.81-7-3c-3.63-1.11-6.63-3.27-9-6.5
		c-1.53-1.01-3.19-1.51-5-1.5c0.31,2.89-0.03,5.55-1,8C621.07,2060.51,620.73,2052.51,620.5,2044.5z"/>
</g>
<g>
	<path class="st62" d="M806.5,2049.5c2.74,0.94,4.74,2.77,6,5.5c1.63,0.49,3.3,0.66,5,0.5c0-1.67,0-3.33,0-5
		c3.86,6.69,8.03,13.36,12.5,20c18.55,35.11,33.22,71.78,44,110c5.65,22.09,11.48,44.09,17.5,66c-4.45-2.95-7.61-6.95-9.5-12
		c-2.4-8.86-4.07-17.86-5-27c-0.79-2.09-1.96-3.92-3.5-5.5c-2.86-0.2-5.53-0.37-8-0.5c-5.3-24.53-12.47-48.53-21.5-72
		C831.76,2102.69,819.26,2076.02,806.5,2049.5z"/>
</g>
<g>
	<path class="st47" d="M796.5,2058.5c3.53,4.53,6.2,9.53,8,15c-0.84,2.95-2.84,4.78-6,5.5c-20.01,4.33-40.01,8.67-60,13
		c-6.98,1.05-13.98,1.89-21,2.5c-2.36,0.16-4.69,0-7-0.5c3.09-3.76,6.75-6.76,11-9c17.52-7.92,35.19-15.59,53-23
		C781.53,2059.08,788.87,2057.91,796.5,2058.5z"/>
</g>
<g>
	<path class="st39" d="M636.5,2068.5c-6.1,2.27-8.6,6.6-7.5,13c1.18,3.53,2.34,7.03,3.5,10.5c3.75,0.05,6.92-1.45,9.5-4.5
		c1.4-5.21,1.9-10.54,1.5-16c2.29,0.64,3.96,1.97,5,4c0,0.33,0,0.67,0,1c0,2,0,4,0,6c-4.4,13.09-12.07,24.09-23,33
		c-0.33,0-0.67,0-1,0c0-0.67-0.33-1-1-1c-1.84-15.25-2.5-30.58-2-46c0.97-2.45,1.31-5.11,1-8c1.81-0.01,3.47,0.49,5,1.5
		C629.87,2065.23,632.87,2067.39,636.5,2068.5z"/>
</g>
<g>
	<path class="st98" d="M636.5,2068.5c2.71,0.19,5.04,1.19,7,3c0.4,5.46-0.1,10.79-1.5,16c-2.58,3.05-5.75,4.55-9.5,4.5
		c-1.16-3.47-2.32-6.97-3.5-10.5C627.9,2075.1,630.4,2070.77,636.5,2068.5z"/>
</g>
<g>
	<path class="st47" d="M656.5,2065.5c0.33,0,0.67,0,1,0c-0.16,2.69,0,5.35,0.5,8c7.48,7.62,13.48,16.29,18,26
		c2.28,3.39,5.45,5.06,9.5,5c3.72,3.74,7.22,7.74,10.5,12c9.19,15.07,19.36,29.4,30.5,43c0.35,4.24,1.52,8.24,3.5,12
		c7,6.33,14,12.67,21,19c8.18,12.19,17.84,23.19,29,33c-1.08,2.79-1.41,5.79-1,9c8.04,9.04,15.71,18.38,23,28
		c3.22,5.76,5.88,11.76,8,18c0.67,5.67,0.67,11.33,0,17c-0.42,1.46-1.26,1.96-2.5,1.5c-1.63-13.43-6.46-25.59-14.5-36.5
		c-27.08-29.74-53.41-60.08-79-91c-20.24-27.47-39.24-55.8-57-85c-1.24,0.9-2.07,2.07-2.5,3.5c1.81,3.31,2.31,6.81,1.5,10.5
		c-1.7,0.91-3.53,1.24-5.5,1c0.06-5.79-0.61-11.46-2-17c0-2,0-4,0-6c0.65,0.3,1.32,0.64,2,1
		C656.1,2075.55,658.1,2071.55,656.5,2065.5z"/>
</g>
<g>
	<path class="st39" d="M1292.5,2155.5c0.41-3.96-0.42-7.63-2.5-11c-7.13-5.46-13.96-11.29-20.5-17.5c-8.8-9.8-17.97-19.3-27.5-28.5
		c-0.87-1.37-1.37-2.87-1.5-4.5c1.96-4.89,0.29-7.72-5-8.5c0-0.67,0-1.33,0-2c2.27-1.26,4.61-1.1,7,0.5
		c16.5,15.83,33,31.67,49.5,47.5C1297.83,2139.45,1298,2147.45,1292.5,2155.5z"/>
</g>
<g>
	<path class="st65" d="M726.5,2159.5c31.41-3.58,62.41-9.42,93-17.5c4.79-0.88,9.45-0.55,14,1c6.75,5.67,11.91,12.5,15.5,20.5
		c3.26,13.1,6.92,26.1,11,39c2,10.9,3,21.9,3,33c1.21,5.63,3.21,10.97,6,16c4.67,6.83,9.51,13.5,14.5,20c-0.33,0.67-0.67,1.33-1,2
		c-13.39,2.51-26.72,5.35-40,8.5c-3,0.67-6,0.67-9,0c-3.47-9.44-7.63-18.61-12.5-27.5c-6.26-8.27-13.26-15.93-21-23
		c-0.37-1.95-1.2-3.62-2.5-5c17.56-2.32,34.89-5.82,52-10.5c2.09-1.04,3.75-2.54,5-4.5c-20.48,0.28-40.48,3.78-60,10.5
		c-0.75,0.67-1.09,1.5-1,2.5c-4.85-0.54-7.02,1.46-6.5,6c5,5.33,10,10.67,15,16c7.72,8.76,13.39,18.76,17,30
		c0.33,7.18,2.49,13.68,6.5,19.5c5.41,2.44,11.07,3.11,17,2c18.4-5.28,37.06-9.28,56-12c3.71-1.69,4.88-4.52,3.5-8.5
		c-7.91-10.16-15.58-20.49-23-31c-4.97-14.88-9.47-29.88-13.5-45c2.47,0.13,5.14,0.3,8,0.5c1.54,1.58,2.71,3.41,3.5,5.5
		c0.93,9.14,2.6,18.14,5,27c1.89,5.05,5.05,9.05,9.5,12c8.62,16.78,21.62,28.95,39,36.5c18.95,20.71,34.28,43.87,46,69.5
		c-4.27,5.21-9.6,6.38-16,3.5c-3-1.83-6-3.67-9-5.5c-0.59,0.21-1.09,0.54-1.5,1c-0.33,2.33-0.67,4.67-1,7c-2.88,1.53-5.21,0.86-7-2
		c-2.05-4.71-4.89-8.88-8.5-12.5c-2.2-1.37-4.53-1.71-7-1c4.46,5.75,8.29,11.91,11.5,18.5c0.82,2.73,0.65,5.39-0.5,8
		c-5.95,0.38-11.95,0.54-18,0.5c-4.33,2.33-8.67,4.67-13,7c-10.19,2.54-20.19,5.38-30,8.5c-7.37-2.18-14.03-5.68-20-10.5
		c-7.56-7.4-15.56-14.23-24-20.5c-1.47,2.61-2.14,5.45-2,8.5c1.23,7.86,2.57,15.7,4,23.5c-4.59-0.05-8.09-2.05-10.5-6
		c-4.84-13.35-10.51-26.35-17-39c-5.73-14.44-8.06-29.44-7-45c-1.33-2.67-2.67-5.33-4-8c-19.58-25.09-40.08-49.42-61.5-73
		c-0.11-2.28-0.94-4.28-2.5-6c-2.66-1.83-5.16-3.83-7.5-6c-11.66-17.99-23.83-35.65-36.5-53c-5.49-4.64-9.99-9.97-13.5-16
		c2.09-9.2-1.25-15.2-10-18c-0.62-1.73-1.62-3.23-3-4.5c-3.18-0.6-6.18-0.1-9,1.5c-0.44,0.07-0.77-0.1-1-0.5
		c1.62-1.12,2.62-2.62,3-4.5c-1.09-3.16-2.42-6.16-4-9c1.97,0.24,3.8-0.09,5.5-1c0.81-3.69,0.31-7.19-1.5-10.5
		c0.43-1.43,1.26-2.6,2.5-3.5c17.76,29.2,36.76,57.53,57,85c25.59,30.92,51.92,61.26,79,91c8.04,10.91,12.87,23.07,14.5,36.5
		c1.24,0.46,2.08-0.04,2.5-1.5c0.67-5.67,0.67-11.33,0-17c-2.12-6.24-4.78-12.24-8-18c-7.29-9.62-14.96-18.96-23-28
		c-0.41-3.21-0.08-6.21,1-9c-11.16-9.81-20.82-20.81-29-33c-7-6.33-14-12.67-21-19C728.02,2167.74,726.85,2163.74,726.5,2159.5z"/>
</g>
<g>
	<path class="st47" d="M801.5,2085.5c4.14-0.35,8.14,0.15,12,1.5c7.16,13.49,13.16,27.49,18,42c0.15,2.03-0.52,3.7-2,5
		c-21.82,5.43-43.82,10.1-66,14c-16.33,9.55-30.16,6.72-41.5-8.5c-5.92-8.83-11.58-17.83-17-27c-1.33-4.69,0.51-7.19,5.5-7.5
		C740.92,2098.28,771.25,2091.78,801.5,2085.5z"/>
</g>
<g>
	<path class="st98" d="M1235.5,2085.5c5.29,0.78,6.96,3.61,5,8.5c0.13,1.63,0.63,3.13,1.5,4.5c9.53,9.2,18.7,18.7,27.5,28.5
		c6.54,6.21,13.37,12.04,20.5,17.5c2.08,3.37,2.91,7.04,2.5,11c-2.6,2.31-5.6,4.14-9,5.5c-7.7,3.34-15.7,5.84-24,7.5
		c-16.59,2.19-33.26,3.19-50,3c0.23-7.05-0.27-14.05-1.5-21c-0.86-3.13-2.36-5.8-4.5-8c-0.35-3.4-1.02-6.74-2-10
		c0.28-3.33-0.38-6.33-2-9c0-3,0-6,0-9c1.38-0.46,2.05-1.46,2-3c-1.05-1.91-1.05-3.74,0-5.5c8.17-7.08,17.5-12.08,28-15
		C1231.37,2088.96,1233.37,2087.13,1235.5,2085.5z"/>
</g>
<g>
	<path class="st69" d="M648.5,2082.5c1.39,5.54,2.06,11.21,2,17c1.58,2.84,2.91,5.84,4,9c-0.38,1.88-1.38,3.38-3,4.5
		c0.23,0.4,0.56,0.57,1,0.5c-6.25,1.77-12.59,3.44-19,5c-3.05-0.24-5.72-1.24-8-3C636.43,2106.59,644.1,2095.59,648.5,2082.5z"/>
</g>
<g>
	<path class="st105" d="M444.5,2107.5c-2.28,5.74-3.45,11.74-3.5,18c-0.79,2.14-2.29,3.48-4.5,4c-0.2-8.27-4.04-10.27-11.5-6
		c-2.36-2.15-3.03-4.82-2-8C429.07,2109.88,436.23,2107.22,444.5,2107.5z"/>
</g>
<g>
	<path class="st106" d="M664.5,2116.5c-0.89,0.61-1.89,0.94-3,1c-7.44,0.47-14.77,1.63-22,3.5c-3.22,1.99-3.72,4.49-1.5,7.5
		c4.03,3.7,7.7,7.7,11,12c0.5,2.98,0.66,5.98,0.5,9c-0.67,0-1.33,0-2,0c-1.67-1-3-2.33-4-4c-0.59-1.27-1.09-2.6-1.5-4
		c-3.19-1.21-5.69-3.21-7.5-6c-1.33-1.67-2.67-3.33-4-5c0.35-3.97-1.32-6.64-5-8c-0.97-2.24-1.31-4.58-1-7c0.33,0,0.67,0,1,0
		c2.28,1.76,4.95,2.76,8,3c6.41-1.56,12.75-3.23,19-5c2.82-1.6,5.82-2.1,9-1.5C662.88,2113.27,663.88,2114.77,664.5,2116.5z"/>
</g>
<g>
	<path class="st52" d="M664.5,2116.5c8.75,2.8,12.09,8.8,10,18c-0.96-1.76-1.29-3.76-1-6c-2.16-0.13-4.16,0.37-6,1.5
		c-6.54,7.31-8.71,15.81-6.5,25.5c2.88,13.05,10.71,21.38,23.5,25c3.55,2.43,5.55,5.76,6,10c3.58,6.91,8.25,12.91,14,18
		c0.33,2,0.67,4,1,6c-2.16,0.13-4.16-0.37-6-1.5c-16.2-17.2-32.04-34.7-47.5-52.5c-2.58-3.23-4.08-6.89-4.5-11c0.67,0,1.33,0,2,0
		c2.83,0.42,4.99-0.58,6.5-3c1.22-7.26,1.89-14.59,2-22c1.18-2.36,2.35-4.69,3.5-7C662.61,2117.44,663.61,2117.11,664.5,2116.5z"/>
</g>
<g>
	<path class="st74" d="M661.5,2117.5c-1.15,2.31-2.32,4.64-3.5,7c-0.11,7.41-0.78,14.74-2,22c-1.51,2.42-3.67,3.42-6.5,3
		c0.16-3.02,0-6.02-0.5-9c-3.3-4.3-6.97-8.3-11-12c-2.22-3.01-1.72-5.51,1.5-7.5C646.73,2119.13,654.06,2117.97,661.5,2117.5z"/>
</g>
<g>
	<path class="st107" d="M623.5,2114.5c0.67,0,1,0.33,1,1c-0.31,2.42,0.03,4.76,1,7c3.68,1.36,5.35,4.03,5,8
		c-2.54,0.4-4.71-0.27-6.5-2C623.5,2123.85,623.33,2119.18,623.5,2114.5z"/>
</g>
<g>
	<path class="st108" d="M1199.5,2123.5c1.62,2.67,2.28,5.67,2,9c-1.31-1.31-2.65-2.65-4-4
		C1198.95,2127.15,1199.62,2125.48,1199.5,2123.5z"/>
</g>
<g>
	<path class="st109" d="M674.5,2134.5c3.51,6.03,8.01,11.36,13.5,16c12.67,17.35,24.84,35.01,36.5,53c-0.68,3.67-2.68,4.67-6,3
		c-8.03-11.87-17.03-23.04-27-33.5c-2.32-1.99-4.98-3.16-8-3.5c-1.97-4.29-5.31-5.96-10-5c0-1.67,0-3.33,0-5c-1,0-2,0-3,0
		c2.15,7.27,6.48,12.94,13,17c0.33,1.33,0.67,2.67,1,4c-12.79-3.62-20.62-11.95-23.5-25c-2.21-9.69-0.04-18.19,6.5-25.5
		c1.84-1.13,3.84-1.63,6-1.5C673.21,2130.74,673.54,2132.74,674.5,2134.5z"/>
</g>
<g>
	<path class="st46" d="M436.5,2130.5c-1.5,6.95-3.5,13.61-6,20c0-1,0-2,0-3c-4.68,0.17-9.35,0-14-0.5c-2.75-6.95-0.75-11.95,6-15
		C427.2,2131.65,431.86,2131.15,436.5,2130.5z"/>
</g>
<g>
	<path class="st110" d="M634.5,2135.5c1.81,2.79,4.31,4.79,7.5,6c0.41,1.4,0.91,2.73,1.5,4c-5.43,1.41-7.77-0.59-7-6c-1,0-2,0-3,0
		C633.43,2138.04,633.77,2136.71,634.5,2135.5z"/>
</g>
<g>
	<path class="st111" d="M1203.5,2142.5c2.14,2.2,3.64,4.87,4.5,8c1.23,6.95,1.73,13.95,1.5,21c-1.63-2.36-2.8-5.02-3.5-8
		C1204.89,2156.53,1204.06,2149.53,1203.5,2142.5z"/>
</g>
<g>
	<path class="st6" d="M683.5,2169.5c0,2.33,0,4.67,0,7c-6.52-4.06-10.85-9.73-13-17c1,0,2,0,3,0c0,1.67,0,3.33,0,5
		C678.19,2163.54,681.53,2165.21,683.5,2169.5z"/>
</g>
<g>
	<path class="st81" d="M1259.5,2168.5c-13.04,5.5-26.71,7.33-41,5.5c-3.24-0.41-6.24-1.24-9-2.5
		C1226.24,2171.69,1242.91,2170.69,1259.5,2168.5z"/>
</g>
<g>
	<path class="st69" d="M683.5,2169.5c3.02,0.34,5.68,1.51,8,3.5c9.97,10.46,18.97,21.63,27,33.5c-2.42,2.15-5.09,2.48-8,1
		c-4.58-7.25-10.25-13.59-17-19c-1.01-6.05-4.34-10.05-10-12C683.5,2174.17,683.5,2171.83,683.5,2169.5z"/>
</g>
<g>
	<path class="st38" d="M683.5,2176.5c5.66,1.95,8.99,5.95,10,12c-1,0.67-2,1.33-3,2c-0.45-4.24-2.45-7.57-6-10
		C684.17,2179.17,683.83,2177.83,683.5,2176.5z"/>
</g>
<g>
	<path class="st52" d="M418.5,2180.5c-10.39,31.01-20.89,62.01-31.5,93c-0.5,2.65-0.66,5.31-0.5,8c-3.37-0.57-6.37-1.9-9-4
		c-0.28-0.79-0.78-1.46-1.5-2c-0.79-8.38-0.45-16.71,1-25c4.4-10.08,8.07-20.42,11-31c0.5-2.31,0.66-4.64,0.5-7
		c2-1.17,3.5-2.84,4.5-5c0.21-6.59,2.71-12.09,7.5-16.5c3.67-0.33,7.33-0.67,11-1c1.54-1.93,2.7-4.1,3.5-6.5
		C416.04,2182.29,417.21,2181.29,418.5,2180.5z"/>
</g>
<g>
	<path class="st112" d="M693.5,2188.5c6.75,5.41,12.42,11.75,17,19c-2.07,0.02-4.07,0.35-6,1c-5.75-5.09-10.42-11.09-14-18
		C691.5,2189.83,692.5,2189.17,693.5,2188.5z"/>
</g>
<g>
	<path class="st106" d="M724.5,2203.5c2.34,2.17,4.84,4.17,7.5,6c1.56,1.72,2.39,3.72,2.5,6c-9.75,0.31-19.42-0.03-29-1
		c-0.33-2-0.67-4-1-6c1.93-0.65,3.93-0.98,6-1c2.91,1.48,5.58,1.15,8-1C721.82,2208.17,723.82,2207.17,724.5,2203.5z"/>
</g>
<g>
	<path class="st59" d="M388.5,2202.5c0,3.33,0,6.67,0,10c0.16,2.36,0,4.69-0.5,7c-2.93,10.58-6.6,20.92-11,31
		c-1.45,8.29-1.79,16.62-1,25c0.72,0.54,1.22,1.21,1.5,2c-5.43-1.55-10.76-3.38-16-5.5c-5.85-0.95-11.52-0.45-17,1.5
		c-0.4-2.54,0.27-4.71,2-6.5c3.59-0.3,7.09,0.2,10.5,1.5c2.67,0.33,4.67-0.67,6-3C370.48,2243.9,378.98,2222.9,388.5,2202.5z"/>
</g>
<g>
	<path class="st79" d="M797.5,2226.5c-1.33-0.67-2.67-1.33-4-2c-0.09-1,0.25-1.83,1-2.5c19.52-6.72,39.52-10.22,60-10.5
		c-1.25,1.96-2.91,3.46-5,4.5C832.39,2220.68,815.06,2224.18,797.5,2226.5z"/>
</g>
<g>
	<path class="st35" d="M377.5,2277.5c2.63,2.1,5.63,3.43,9,4c3.88,1.63,7.55,3.63,11,6c0.01,3.04,0.34,6.04,1,9c0,2.33,0,4.67,0,7
		c-1.43,1.65-2.26,3.65-2.5,6c-0.82,6.18-0.65,12.18,0.5,18c0,1,0,2,0,3c-1.57,5.51-1.9,11.18-1,17c-1.31,4.64-4.31,7.64-9,9
		c-6.99,1.33-13.32,4-19,8c-0.67,0-1.33,0-2,0c-5.33-1.26-10.66-1.26-16,0c-3,0-6,0-9,0c-6.63-1.76-13.29-3.76-20-6
		c-3.22-2.1-6.22-4.44-9-7c-0.38-5.3,0.62-10.3,3-15c1.67-4,3.33-8,5-12c4.74-4.19,7.41-9.53,8-16c0.39-1.78,1.06-3.45,2-5
		c4.74-4.19,7.41-9.53,8-16c1.83-4.98,4.16-9.65,7-14c5.48-1.95,11.15-2.45,17-1.5C366.74,2274.12,372.07,2275.95,377.5,2277.5z"/>
</g>
<g>
	<path class="st59" d="M337.5,2287.5c-0.59,6.47-3.26,11.81-8,16c-0.16-4.68,1.01-9.02,3.5-13
		C334.13,2288.86,335.63,2287.86,337.5,2287.5z"/>
</g>
<g>
	<path class="st99" d="M397.5,2287.5c5.87,2.66,6.2,5.66,1,9C397.84,2293.54,397.51,2290.54,397.5,2287.5z"/>
</g>
<g>
	<path class="st39" d="M908.5,2305.5c-18.66-0.22-36.66,2.78-54,9c-3.02-0.16-6.02,0-9,0.5c-4.04,5.15-3.04,9.31,3,12.5
		c-1.24,3.12-3.57,4.45-7,4c-2.49-3.64-4.99-7.3-7.5-11c-3.03-5.67-1.53-9.5,4.5-11.5c23.51-5.87,47.17-11.03,71-15.5
		c3.13,0.15,5.63,1.48,7.5,4c2.4,4.73,3.4,9.73,3,15c-1.4-0.73-2.9-1.23-4.5-1.5C914.15,2307.8,911.82,2305.97,908.5,2305.5z"/>
</g>
<g>
	<path class="st113" d="M398.5,2303.5c0.42,4.38,1.09,8.71,2,13c-0.39,4.11-1.72,7.78-4,11c-1.15-5.82-1.32-11.82-0.5-18
		C396.24,2307.15,397.07,2305.15,398.5,2303.5z"/>
</g>
<g>
	<path class="st10" d="M908.5,2305.5c-1.76,3.6-4.43,6.43-8,8.5c-14.79,6.84-30.12,8.34-46,4.5c0-1.33,0-2.67,0-4
		C871.84,2308.28,889.84,2305.28,908.5,2305.5z"/>
</g>
<g>
	<path class="st114" d="M327.5,2308.5c-0.59,6.47-3.26,11.81-8,16C319.53,2317.77,322.2,2312.43,327.5,2308.5z"/>
</g>
<g>
	<path class="st104" d="M841.5,2331.5c3.43,0.45,5.76-0.88,7-4c10.04-4.8,13.54-1.8,10.5,9c-1.39,4.45-3.56,8.45-6.5,12
		c1.51,2.01,3.34,3.67,5.5,5c0.34,3.99-1.49,5.49-5.5,4.5c-4.49-5.5-9.82-9.83-16-13c-1.83-1.83-3.67-3.67-5.5-5.5
		c-0.84-2.64-0.34-4.97,1.5-7C835.64,2331.68,838.64,2331.35,841.5,2331.5z"/>
</g>
<g>
	<path class="st115" d="M314.5,2336.5c-2.38,4.7-3.38,9.7-3,15c-3.67-1.94-4.84-4.94-3.5-9
		C310.04,2340.29,312.2,2338.29,314.5,2336.5z"/>
</g>
<g>
	<path class="st116" d="M396.5,2330.5c-0.16,4.21,0.17,8.37,1,12.5c-0.02,1.88-0.69,3.38-2,4.5
		C394.6,2341.68,394.93,2336.01,396.5,2330.5z"/>
</g>
<g>
	<path class="st104" d="M976.5,2352.5c3.06,1.9,5.23,4.56,6.5,8c0.33,6,0.67,12,1,18c2.09,2.27,1.92,4.27-0.5,6
		c-1.45-0.63-2.11-1.8-2-3.5c0.72-2.79,1.05-5.63,1-8.5c-1.81-0.01-3.47,0.49-5,1.5c-4.91,5.85-11.24,8.19-19,7
		c-18.2,4.97-36.7,8.14-55.5,9.5c-4.55-0.06-9.05-0.39-13.5-1c-3.35,0.17-6.68,0-10-0.5c-1.93-0.42-2.93-1.59-3-3.5
		c9.81-3.12,19.81-5.96,30-8.5c4.33-2.33,8.67-4.67,13-7c6.05,0.04,12.05-0.12,18-0.5c1.15-2.61,1.32-5.27,0.5-8
		c-3.21-6.59-7.04-12.75-11.5-18.5c2.47-0.71,4.8-0.37,7,1c3.61,3.62,6.45,7.79,8.5,12.5c1.79,2.86,4.12,3.53,7,2
		c0.33-2.33,0.67-4.67,1-7c0.41-0.46,0.91-0.79,1.5-1c3,1.83,6,3.67,9,5.5C966.9,2358.88,972.23,2357.71,976.5,2352.5z"/>
</g>
<g>
	<path class="st60" d="M876.5,2385.5c0.07,1.91,1.07,3.08,3,3.5c3.32,0.5,6.65,0.67,10,0.5c1.07,7.62,2.07,15.29,3,23
		c-7.63,0.59-14.97-0.58-22-3.5c-12.68-6.82-24.68-14.32-36-22.5c-1.43-7.8-2.77-15.64-4-23.5c-0.14-3.05,0.53-5.89,2-8.5
		c8.44,6.27,16.44,13.1,24,20.5C862.47,2379.82,869.13,2383.32,876.5,2385.5z"/>
</g>
<g>
	<path class="st115" d="M386.5,2356.5c-4.76,6.1-11.09,8.76-19,8C373.18,2360.5,379.51,2357.83,386.5,2356.5z"/>
</g>
<g>
	<path class="st117" d="M320.5,2358.5c6.71,2.24,13.37,4.24,20,6C332.25,2367.34,325.58,2365.34,320.5,2358.5z"/>
</g>
<g>
	<path class="st36" d="M365.5,2364.5c-5.3,3.91-10.64,3.91-16,0C354.84,2363.24,360.17,2363.24,365.5,2364.5z"/>
</g>
<g>
	<path class="st82" d="M983.5,2384.5c1.63,6.58-0.7,10.75-7,12.5c-3,0.33-6,0.67-9,1c-0.46,0.41-0.79,0.91-1,1.5
		c-3.28,0.82-6.62,1.32-10,1.5c-1.17,0.42-2.17,1.09-3,2c-4.33,0.33-8.67,0.67-13,1c-0.67,0.67-1.33,1.33-2,2
		c-8.64,0.22-16.97,1.72-25,4.5c-3.74-1.81-6.74-0.98-9,2.5c-4.01,0.36-8.01,0.19-12-0.5c-0.93-7.71-1.93-15.38-3-23
		c4.45,0.61,8.95,0.94,13.5,1c18.8-1.36,37.3-4.53,55.5-9.5c7.76,1.19,14.09-1.15,19-7c1.53-1.01,3.19-1.51,5-1.5
		c0.05,2.87-0.28,5.71-1,8.5C981.39,2382.7,982.05,2383.87,983.5,2384.5z"/>
</g>
</svg>
