<?xml version="1.0" encoding="utf-8"?>
<!-- Generator: Adobe Illustrator 24.1.2, SVG Export Plug-In . SVG Version: 6.00 Build 0)  -->
<svg version="1.1" id="Layer_1" xmlns="http://www.w3.org/2000/svg" xmlns:xlink="http://www.w3.org/1999/xlink" x="0px" y="0px"
	 viewBox="0 0 1200 1980" style="enable-background:new 0 0 1200 1980;" xml:space="preserve">
<style type="text/css">
	.st0{fill-rule:evenodd;clip-rule:evenodd;fill:#94804F;}
	.st1{fill-rule:evenodd;clip-rule:evenodd;fill:#A28D5B;}
	.st2{fill-rule:evenodd;clip-rule:evenodd;fill:#8D7A4C;}
	.st3{fill-rule:evenodd;clip-rule:evenodd;fill:#8F7C4D;}
	.st4{fill-rule:evenodd;clip-rule:evenodd;fill:#917E4E;}
	.st5{fill-rule:evenodd;clip-rule:evenodd;fill:#8E7B4C;}
	.st6{fill-rule:evenodd;clip-rule:evenodd;fill:#A18C5A;}
	.st7{fill-rule:evenodd;clip-rule:evenodd;fill:#9F8A59;}
	.st8{fill-rule:evenodd;clip-rule:evenodd;fill:#E0DFDD;}
	.st9{fill-rule:evenodd;clip-rule:evenodd;fill:#7B7375;}
	.st10{fill-rule:evenodd;clip-rule:evenodd;fill:#2D2824;}
	.st11{fill-rule:evenodd;clip-rule:evenodd;fill:#A5905D;}
	.st12{fill-rule:evenodd;clip-rule:evenodd;fill:#777076;}
	.st13{fill-rule:evenodd;clip-rule:evenodd;fill:#B4A169;}
	.st14{fill-rule:evenodd;clip-rule:evenodd;fill:#A5A5A8;}
	.st15{fill-rule:evenodd;clip-rule:evenodd;fill:#D8C78D;}
	.st16{fill-rule:evenodd;clip-rule:evenodd;fill:#A18D5A;}
	.st17{fill-rule:evenodd;clip-rule:evenodd;fill:#D9C88E;}
	.st18{fill-rule:evenodd;clip-rule:evenodd;fill:#B5A26A;}
	.st19{fill-rule:evenodd;clip-rule:evenodd;fill:#C0BCBF;}
	.st20{fill-rule:evenodd;clip-rule:evenodd;fill:#7B747A;}
	.st21{fill-rule:evenodd;clip-rule:evenodd;fill:#B5A36C;}
	.st22{fill-rule:evenodd;clip-rule:evenodd;fill:#D7C68C;}
	.st23{fill-rule:evenodd;clip-rule:evenodd;fill:#B6A36B;}
	.st24{fill-rule:evenodd;clip-rule:evenodd;fill:#ABACAF;}
	.st25{fill-rule:evenodd;clip-rule:evenodd;fill:#D6C58B;}
	.st26{fill-rule:evenodd;clip-rule:evenodd;fill:#B3A068;}
	.st27{fill-rule:evenodd;clip-rule:evenodd;fill:#D8C78E;}
	.st28{fill-rule:evenodd;clip-rule:evenodd;fill:#AAABAE;}
	.st29{fill-rule:evenodd;clip-rule:evenodd;fill:#B7A56C;}
	.st30{fill-rule:evenodd;clip-rule:evenodd;fill:#2F2A26;}
	.st31{fill-rule:evenodd;clip-rule:evenodd;fill:#B8A56D;}
	.st32{fill-rule:evenodd;clip-rule:evenodd;fill:#B7A46C;}
	.st33{fill-rule:evenodd;clip-rule:evenodd;fill:#2E2926;}
	.st34{fill-rule:evenodd;clip-rule:evenodd;fill:#E4E4E2;}
	.st35{fill-rule:evenodd;clip-rule:evenodd;fill:#B5A36B;}
	.st36{fill-rule:evenodd;clip-rule:evenodd;fill:#2E2925;}
	.st37{fill-rule:evenodd;clip-rule:evenodd;fill:#B0B0B1;}
	.st38{fill-rule:evenodd;clip-rule:evenodd;fill:#AEADAC;}
	.st39{fill-rule:evenodd;clip-rule:evenodd;fill:#A5A6A9;}
	.st40{fill-rule:evenodd;clip-rule:evenodd;fill:#AAABAD;}
	.st41{fill-rule:evenodd;clip-rule:evenodd;fill:#332F2B;}
	.st42{fill-rule:evenodd;clip-rule:evenodd;fill:#7B787A;}
	.st43{fill-rule:evenodd;clip-rule:evenodd;fill:#7E777D;}
	.st44{fill-rule:evenodd;clip-rule:evenodd;fill:#7D777C;}
	.st45{fill-rule:evenodd;clip-rule:evenodd;fill:#9FA0A2;}
	.st46{fill-rule:evenodd;clip-rule:evenodd;fill:#949395;}
	.st47{fill-rule:evenodd;clip-rule:evenodd;fill:#7A7379;}
	.st48{fill-rule:evenodd;clip-rule:evenodd;fill:#D4D5D6;}
	.st49{fill-rule:evenodd;clip-rule:evenodd;fill:#DFDFE0;}
	.st50{fill-rule:evenodd;clip-rule:evenodd;fill:#7F787E;}
	.st51{fill-rule:evenodd;clip-rule:evenodd;fill:#7C757B;}
	.st52{fill-rule:evenodd;clip-rule:evenodd;fill:#7E787D;}
	.st53{fill-rule:evenodd;clip-rule:evenodd;fill:#322D29;}
	.st54{fill-rule:evenodd;clip-rule:evenodd;fill:#E0E0E0;}
	.st55{fill-rule:evenodd;clip-rule:evenodd;fill:#7C767C;}
	.st56{fill-rule:evenodd;clip-rule:evenodd;fill:#817A80;}
	.st57{fill-rule:evenodd;clip-rule:evenodd;fill:#F1F1F1;}
	.st58{fill-rule:evenodd;clip-rule:evenodd;fill:#2F2B27;}
	.st59{fill-rule:evenodd;clip-rule:evenodd;fill:#7F797F;}
	.st60{fill-rule:evenodd;clip-rule:evenodd;fill:#F2F2F2;}
	.st61{fill-rule:evenodd;clip-rule:evenodd;fill:#7F797E;}
	.st62{fill-rule:evenodd;clip-rule:evenodd;fill:#837D83;}
	.st63{fill-rule:evenodd;clip-rule:evenodd;fill:#DEDEDF;}
	.st64{fill-rule:evenodd;clip-rule:evenodd;fill:#302B27;}
	.st65{fill-rule:evenodd;clip-rule:evenodd;fill:#E4E4E4;}
	.st66{fill-rule:evenodd;clip-rule:evenodd;fill:#7B7479;}
	.st67{fill-rule:evenodd;clip-rule:evenodd;fill:#787277;}
	.st68{fill-rule:evenodd;clip-rule:evenodd;fill:#868086;}
	.st69{fill-rule:evenodd;clip-rule:evenodd;fill:#37322F;}
	.st70{fill-rule:evenodd;clip-rule:evenodd;fill:#F9F8F9;}
	.st71{fill-rule:evenodd;clip-rule:evenodd;fill:#7D767C;}
	.st72{fill-rule:evenodd;clip-rule:evenodd;fill:#ABABAE;}
	.st73{fill-rule:evenodd;clip-rule:evenodd;fill:#807A7F;}
	.st74{fill-rule:evenodd;clip-rule:evenodd;fill:#7E787E;}
	.st75{fill-rule:evenodd;clip-rule:evenodd;fill:#AEAEB1;}
	.st76{fill-rule:evenodd;clip-rule:evenodd;fill:#797278;}
	.st77{fill-rule:evenodd;clip-rule:evenodd;fill:#342F2B;}
	.st78{fill-rule:evenodd;clip-rule:evenodd;fill:#7C767B;}
</style>
<g>
	<path class="st0" d="M686.5,311.5c-0.65-0.77-0.98-1.77-1-3c4.63-14.66,7.63-29.66,9-45c-0.52-3.74-1.35-7.41-2.5-11
		c-2.08,20.23-7.41,39.56-16,58c-0.17-0.5-0.33-1-0.5-1.5c5.81-17.07,9.48-34.57,11-52.5c-0.06-3.4-0.56-6.74-1.5-10
		c-3.73,37.98-16.73,72.31-39,103c-1.11,1.83-2.61,2.66-4.5,2.5c22.79-29.4,33.96-61.9,33.5-97.5c-3.09,27.28-11.76,52.61-26,76
		c-0.65,1.2-1.15,1.2-1.5,0c14.7-27.13,22.37-56.13,23-87c-1,0-2,0-3,0c-1.89,28.23-9.39,54.89-22.5,80
		c-0.89,1.39-1.39,1.22-1.5-0.5c6.1-16.65,11.6-33.48,16.5-50.5c2.37-10.59,2.87-21.26,1.5-32c-1.31,1.41-2.14,3.08-2.5,5
		c-1.38,26.85-8.38,52.18-21,76c-2.02,4.05-4.52,7.72-7.5,11c-0.33-0.33-0.67-0.67-1-1c14.98-25.99,23.65-53.99,26-84
		c-0.01-3.09-0.51-6.09-1.5-9c-1.27,32.47-10.93,62.14-29,89c-0.67-1-0.67-2,0-3c4.04-6.76,7.54-13.76,10.5-21
		c-0.33-0.67-0.67-1.33-1-2c-2.36,1.52-4.19,3.52-5.5,6c3.4-13.55,7.23-27.05,11.5-40.5c-0.51-1.83-1.34-1.99-2.5-0.5
		c-2.88,9.79-6.04,19.46-9.5,29c-0.33-0.67-0.67-1.33-1-2c5.45-15.9,8.45-32.23,9-49c-1.97,0.24-3.8-0.09-5.5-1
		c-0.1-3.2-0.77-6.2-2-9c-0.21,4.42-0.87,8.75-2,13c-0.94-1.56-2.11-2.9-3.5-4c-1.16,4.63-1.33,9.3-0.5,14
		c1.05-1.59,2.21-3.09,3.5-4.5c0.83-0.69,1.5-0.52,2,0.5c-3,12.67-6,25.34-9,38c-1,0-2,0-3,0c2.27-9.15,4.6-18.32,7-27.5
		c-0.92-1.81-1.76-1.64-2.5,0.5c-2.22,8.54-4.88,16.88-8,25c-0.5-3.99-0.67-7.99-0.5-12c-4.05-0.51-8.05-1.35-12-2.5
		c3.5-3.5,7-7,10.5-10.5c0.54-2.07,0.04-3.9-1.5-5.5c3.02,0.42,5.85,1.58,8.5,3.5c0.67-4.02,1-8.02,1-12c-2.32,6.24-5.15,6.58-8.5,1
		c0.67-1.67,1.33-3.33,2-5c-1.36-3.19-2.2-6.52-2.5-10c-1.11-1.21-2.28-1.21-3.5,0c-0.67-3.33-1.33-6.67-2-10
		c-1.45,1.35-2.12,3.02-2,5c-5.59-1.06-7.43-4.39-5.5-10c1.79,2.68,2.96,2.51,3.5-0.5c0.08-4.09-1.58-7.09-5-9
		c-9.58-0.07-14.24-4.91-14-14.5c-7.53-1.51-15.03-3.17-22.5-5c-2.9,1.89-6.07,2.39-9.5,1.5c-4.78-3.72-10.11-6.39-16-8
		c-3.12-2.54-5.78-5.54-8-9c-5.59-2.34-10.59-1.34-15,3c4.28,1.65,8.62,3.15,13,4.5c0.21,0.59,0.54,1.09,1,1.5
		c-2.87,1.46-5.87,1.79-9,1c-6.17-4.25-12.5-8.25-19-12c-4.4-0.95-8.73-2.12-13-3.5c-9.33,4.28-18.99,7.44-29,9.5
		c-2.48,1.31-4.48,3.14-6,5.5c3.99,3.16,7.49,6.83,10.5,11c3.56,11.34,7.89,22.34,13,33c6.39,7.95,14.23,14.12,23.5,18.5
		c3.9,5.4,3.9,10.9,0,16.5c-9.85,2.74-19.85,4.9-30,6.5c-9.17,4.84-17.5,10.84-25,18c-18.09,14.05-38.42,22.55-61,25.5
		c0.08,1.49-0.58,2.49-2,3c-4.42-2.74-8.76-2.57-13,0.5c-20.95,2.51-39.95-2.32-57-14.5c-0.73-1.21-1.07-2.54-1-4
		c3.75,1.04,7.42,2.37,11,4c3.97-0.7,7.97-1.2,12-1.5c7.31-7,10.31-15.67,9-26c-0.87-7.83-1.71-15.66-2.5-23.5
		c-3.91-6.66-7.41-13.49-10.5-20.5c2.68-6.02,6.85-10.85,12.5-14.5c0.49-1.29,0.66-2.63,0.5-4c-0.17-0.99,0.16-1.66,1-2
		c-0.06,17.4,7.94,29.23,24,35.5c-4.69,0.38-9.03-0.78-13-3.5c-0.33,0.17-0.67,0.33-1,0.5c3.31,4.99,7.98,7.99,14,9
		c11.02,1.01,21.35-1.32,31-7c6.34-8.85,8.5-18.69,6.5-29.5c-2.08-6.4-4.24-12.73-6.5-19c16.02,1.06,31.35,4.9,46,11.5
		c5,1.33,7.16-0.5,6.5-5.5c-7.43-10.64-17.59-17.14-30.5-19.5c-9.43-1.97-18.93-3.47-28.5-4.5c-11.15,1.31-22.32,2.48-33.5,3.5
		c-1.99,0.37-3.66,1.21-5,2.5c-1.98-0.02-2.98,0.98-3,3c0.95,2.92,2.28,5.59,4,8c-0.67,1.33-1.67,2.33-3,3c-0.46-1.38-1.46-2.05-3-2
		c-5.35,2.01-10.68,4.01-16,6c-1.99-0.49-1.99-1.66,0-3.5c5.54-3.27,11.21-6.27,17-9c-7.58-0.26-14.58,1.74-21,6
		c-6.13,4.46-11.96,9.29-17.5,14.5c-0.49,1.29-0.66,2.63-0.5,4c-4.61,4.78-9.11,9.78-13.5,15c-2.6,3.97-4.1,8.31-4.5,13
		c-1.24,1.71-1.9,3.71-2,6c-1.6,2.1-3.43,4.1-5.5,6c-1.09-1.79-1.59-3.79-1.5-6c1.62-9.28,2.79-18.61,3.5-28
		c1.55-1.94,2.72-4.11,3.5-6.5c-0.17-2.16-1.33-3.33-3.5-3.5c-4.1,0.89-7.1,3.22-9,7c-0.33,1.55,0.17,2.88,1.5,4
		c-4.03,1.4-8.03,2.9-12,4.5c-3.23,3.15-6.23,6.48-9,10c-3,0.67-6,0.67-9,0c-16.66-5.2-33-4.2-49,3c-12.69,1.37-25.36,2.87-38,4.5
		c-3.82-0.73-7.66-1.4-11.5-2c-12.92,4.07-17.59-0.26-14-13c2.17-5.99,5.67-10.99,10.5-15c1.31-3.95,3.14-7.61,5.5-11
		c6.04-6.37,11.71-13.04,17-20c8.83-7.5,17-15.67,24.5-24.5c9.85-5.51,18.85-12.18,27-20c4.08-1.47,8.08-3.14,12-5
		c5.94-6.13,12.94-10.46,21-13c9.46-1.6,10.13,0.73,2,7c-5.53,3.95-11.53,6.95-18,9c3.64,2.41,7.64,3.07,12,2
		c3.88-0.74,7.55-2.07,11-4c7.83-6.62,16.83-10.95,27-13c1.87-1.7,3.54-3.54,5-5.5c14.98-1.84,80.01-29.17,74-29
		c-0.08-1.43,0.25-2.76,1-4c11.72-1.84,23.39-4.01,35-6.5c2.73-1,4.4-2.83,5-5.5c-6.33,0-12.67,0-19,0c-0.22-1.18,0.11-2.18,1-3
		c3.06-1.53,5.73-3.53,8-6c-1.11-1.39-2.44-2.56-4-3.5c-4.35-1.38-8.35-3.21-12-5.5c61.63-8.89,121.96-3.06,181,17.5
		c40.06,13.74,73.89,36.58,101.5,68.5c28.86,33.59,41.53,72.59,38,117C698.1,276.4,693.93,294.4,686.5,311.5z"/>
</g>
<g>
	<path class="st1" d="M378.5,54.5c3.65,2.29,7.65,4.12,12,5.5c1.56,0.94,2.89,2.11,4,3.5c-2.27,2.47-4.94,4.47-8,6
		c-0.89,0.82-1.22,1.82-1,3c6.33,0,12.67,0,19,0c-0.6,2.67-2.27,4.5-5,5.5c-11.61,2.49-50.89,25.59-52.5,30.5
		c-1.46-2.46-3.29-4.63-5.5-6.5c-5.07-2.41-55.13,19.3-57,21c-10.17,2.05-19.17,6.38-27,13c-3.45,1.93-7.12,3.26-11,4
		c-4.36,1.07-8.36,0.41-12-2c6.47-2.05,12.47-5.05,18-9c8.13-6.27,7.46-8.6-2-7c-8.06,2.54-15.06,6.87-21,13
		c-3.92,1.86-7.92,3.53-12,5c-8.15,7.82-17.15,14.49-27,20c-7.5,8.83-15.67,17-24.5,24.5c-5.29,6.96-10.96,13.63-17,20
		c-2.36,3.39-4.19,7.05-5.5,11c-4.83,4.01-8.33,9.01-10.5,15c-3.59,12.74,1.08,17.07,14,13c3.84,0.6,7.68,1.27,11.5,2
		c12.64-1.63,25.31-3.13,38-4.5c16-7.2,32.34-8.2,49-3c3,0.67,6,0.67,9,0c2.77-3.52,5.77-6.85,9-10c3.97-1.6,7.97-3.1,12-4.5
		c-1.33-1.12-1.83-2.45-1.5-4c1.9-3.78,4.9-6.11,9-7c2.17,0.17,3.33,1.34,3.5,3.5c-0.78,2.39-1.95,4.56-3.5,6.5
		c-0.71,9.39-1.88,18.72-3.5,28c-0.09,2.21,0.41,4.21,1.5,6c2.07-1.9,3.9-3.9,5.5-6c-1.05,8.97-1.22,17.97-0.5,27
		c2.49,5.96,5.15,11.63,8,17c-5.59-4.5-10.26-9.84-14-16c-0.33,0.67-0.67,1.33-1,2c-1.6-2.88-3.43-5.54-5.5-8
		c-11.39,5.68-23.39,9.18-36,10.5c-3.88,4.22-4.88,9.06-3,14.5c-0.77,1.21-1.61,1.21-2.5,0c-0.49,1.63-0.66,3.3-0.5,5
		c-1.67,0-3.33,0-5,0c-0.11-2.89-1.28-5.22-3.5-7c-5.29,1.37-10.45,3.04-15.5,5c2.79,5.56,4.96,11.22,6.5,17
		c-1.67-2.33-3.33-4.67-5-7c-0.33,0.67-0.67,1.33-1,2c-1.51-1.71-3.01-3.37-4.5-5c-1.56,1.45-2.9,3.11-4,5
		c-1.31-0.81-2.48-1.81-3.5-3c-1.05,3-3.21,4.5-6.5,4.5c-1.43,2.78-2.76,5.62-4,8.5c-1.48-3.09-3.14-6.09-5-9
		c-0.33,0.33-0.67,0.67-1,1c1.15,2.6,1.65,5.27,1.5,8c-1.75-3.83-3.75-7.49-6-11c0.49,2.96,0.82,5.96,1,9c-4.3-6.8-5.63-6.14-4,2
		c-2.71-6.86-4.05-6.53-4,1c-2.88-4.06-4.21-3.4-4,2c-0.69-0.86-1.52-1.52-2.5-2c-0.81,1.92-1.31,3.92-1.5,6
		c-1.25-2.83-2.75-5.49-4.5-8c-0.33,0.5-0.67,1-1,1.5c0.67,1.67,1.33,3.33,2,5c-0.14,1.3-0.8,2.13-2,2.5c0-0.33,0-0.67,0-1
		c-1.53-5.42-3.36-10.76-5.5-16c-0.19,2.08-0.69,4.08-1.5,6c-2.92-0.91-5.92-1.24-9-1c0.16,1.37-0.01,2.71-0.5,4
		c-2.87-5.18-4.54-4.51-5,2c-1.35-1.18-2.52-2.52-3.5-4c-0.67,2.33-1.33,4.67-2,7c-0.67-0.33-1.33-0.67-2-1
		c-1.15,2.27-1.31,4.6-0.5,7c0.92,2.84,2.09,5.5,3.5,8c0.15,3.35-0.51,3.69-2,1c-2.77-5.06-4.94-10.39-6.5-16
		c-1.56,2.79-1.89,5.79-1,9c1.17,3.01,2.34,6.01,3.5,9c-0.25,1.21-0.91,1.88-2,2c-2.14-5.87-3.97-11.87-5.5-18
		c-0.41-0.46-0.91-0.79-1.5-1c-0.62,2.47-1.46,4.8-2.5,7c-1.29-2.29-2.96-4.29-5-6c-1.35,7.51-0.01,14.51,4,21
		c0.5,1.97,0.66,3.97,0.5,6c-1.21-0.73-2.21-1.73-3-3c-2.07,2.24-4.4,2.58-7,1c-1.91-7.97-4.57-15.64-8-23
		c-0.59,0.21-1.09,0.54-1.5,1c-0.91,6.39-0.08,12.56,2.5,18.5c-0.14,1.3-0.81,2.13-2,2.5c0-0.33,0-0.67,0-1
		c-1.16-6.5-3.16-12.66-6-18.5c-0.95-0.62-1.78-0.45-2.5,0.5c0,5.33,0,10.67,0,16c-1.1-5.11-3.1-9.78-6-14c-1.67,2-3.33,4-5,6
		c-0.33-0.33-0.67-0.67-1-1c-1.01-5.09-2.35-10.09-4-15c-0.5-6.33-0.67-12.66-0.5-19c3.89-46.2,20.72-86.86,50.5-122
		C188.2,109.65,275.36,66.32,378.5,54.5z"/>
</g>
<g>
	<path class="st2" d="M451.5,89.5c3.14,3.59,5.81,7.59,8,12c-6.31,1.16-12.64,1.33-19,0.5C444.06,97.71,447.72,93.54,451.5,89.5z"/>
</g>
<g>
	<path class="st3" d="M362.5,92.5c5.34-0.17,10.68,0,16,0.5c-5.35,2-10.01,5-14,9c7.37-1.5,14.7-3.34,22-5.5c6.5-0.86,9,1.8,7.5,8
		c-8.97,2.8-18.14,4.96-27.5,6.5c-3.44,1.78-6.61,3.94-9.5,6.5C357.5,108.83,359.33,100.5,362.5,92.5z"/>
</g>
<g>
	<path class="st4" d="M492.5,95.5c4.68-0.17,9.35,0,14,0.5c1.3,3.84,1.13,7.68-0.5,11.5c-5.08,1.14-10.25,1.3-15.5,0.5
		c-4.16-1.79-5.32-4.63-3.5-8.5C488.81,98.02,490.64,96.69,492.5,95.5z"/>
</g>
<g>
	<path class="st5" d="M315.5,102.5c5.87-0.45,11.54,0.38,17,2.5c1.65,1.56,1.98,3.22,1,5c-10.86,2.11-21.86,3.28-33,3.5
		c-0.11-2.4,0.89-4.24,3-5.5C307.48,105.84,311.48,104,315.5,102.5z"/>
</g>
<g>
	<path class="st6" d="M686.5,311.5c-2.21,6.09-4.71,12.09-7.5,18c-0.67,2.67-0.67,5.33,0,8c4.41,1.32,8.91,2.32,13.5,3
		c0.51,1.87,1.18,3.7,2,5.5c-0.15,0.77-0.48,1.44-1,2c-6.58,0.64-13.08,0.14-19.5-1.5c-1.7-0.11-2.87,0.55-3.5,2
		c-10.81,13.6-21.65,27.26-32.5,41c-17.3,18.15-36.47,33.82-57.5,47c-0.9-0.66-1.9-1.32-3-2c0.5-1,1-2,1.5-3
		c11.72-9.6,22.89-19.77,33.5-30.5c-1.56-1.76-3.23-1.76-5,0c-3.81,3.74-7.81,7.24-12,10.5c-1.08-0.86-1.25-1.86-0.5-3
		c9.23-8.57,17.73-17.73,25.5-27.5c-0.33-0.17-0.67-0.33-1-0.5c-8.61,6.44-16.78,13.44-24.5,21c-0.17-0.5-0.33-1-0.5-1.5
		c6.99-8.32,13.99-16.65,21-25c-2.6,0.13-4.93,1.13-7,3c-6.92,7.76-14.59,14.59-23,20.5c-0.67-1.67-1.33-3.33-2-5
		c-6.04,5.22-12.21,10.22-18.5,15c-0.19,2.4-0.69,4.73-1.5,7c-2.94-1.08-5.94-1.24-9-0.5c-10.17,5.92-20.51,11.59-31,17
		c-7.58,6.54-16.25,11.21-26,14c-20.89,7.95-41.89,15.61-63,23c-8.83-0.44-16.5,2.22-23,8c-6.79,2.15-13.45,4.48-20,7
		c1.24,1.15,2.24,2.49,3,4c-3.21,0.73-5.21,2.57-6,5.5c4.01,0.36,8.01,0.86,12,1.5c-1.96,0.93-3.96,1.76-6,2.5
		c-0.89,0.83-1.22,1.83-1,3c4.68-0.17,9.35,0,14,0.5c0.33,0.33,0.67,0.67,1,1c-1.21,1.04-2.21,2.21-3,3.5
		c-14.07,2.85-28.41,4.85-43,6c-12.52,1.28-24.52-0.55-36-5.5c-7.32-0.78-14.66-1.44-22-2c-0.81-0.31-1.48-0.81-2-1.5
		c9.33-0.67,18.67-1.33,28-2c-0.88-0.75-1.88-1.25-3-1.5c-12.72-1.3-25.38-2.97-38-5c12.68-0.17,25.35-0.67,38-1.5
		c-12.57-2.32-25.24-4.15-38-5.5c14.68-0.17,29.35-0.67,44-1.5c-13.2-2.69-26.53-4.52-40-5.5c-0.56-0.38-0.89-0.88-1-1.5
		c5.68,0.17,11.34,0,17-0.5c0.88-0.71,1.55-1.54,2-2.5c1.42-0.21,2.76-0.71,4-1.5c13.33-0.33,26.67-0.67,40-1
		c0.46-0.41,0.79-0.91,1-1.5c-3.26-1.21-6.6-2.21-10-3c3.29-0.82,6.62-1.32,10-1.5c1.36-1.58,2.03-3.42,2-5.5
		c7.32,0.45,13.65-1.72,19-6.5c3.41-0.98,6.74-2.15,10-3.5c-3.76-5.07-4.92-10.74-3.5-17c1.17-1.17,2.33-2.33,3.5-3.5
		c4.99-1.57,9.82-3.4,14.5-5.5c-1.67-4.41-2.51-9.08-2.5-14c1.32,0.17,2.49-0.16,3.5-1c4.44,3.43,6.61,7.93,6.5,13.5
		c4.84-1.46,9.84-2.8,15-4c0.5-0.5,1-1,1.5-1.5c0.33-4.67,0.67-9.33,1-14c1.08-3.79,3.58-5.46,7.5-5c-1.14,12.36,4.19,16.86,16,13.5
		c0.83-0.83,1.67-1.67,2.5-2.5c0.79-5.29,0.29-10.45-1.5-15.5c1.66-3.3,4.33-4.3,8-3c2.18,3.54,4.18,7.21,6,11
		c2.97,0.89,5.63,0.39,8-1.5c4.03-8.25,5.87-16.92,5.5-26c-1.18-2.06-2.35-2.23-3.5-0.5c0.65,1.44,0.98,2.94,1,4.5
		c-3.03,1.01-6.03,1.01-9,0c-1.28-4.87-3.11-9.54-5.5-14c1.83-10.47,3.33-21.14,4.5-32c1.05-0.15,2.05,0.02,3,0.5
		c1.85,3.36,4.18,6.36,7,9c7.01,1.32,9.51-1.51,7.5-8.5c-1-1-2-2-3-3c-0.69-5.53-2.02-10.86-4-16c-3-2.33-6-4.67-9-7
		c-3.05-5.65-1.55-8.49,4.5-8.5c3.84,2.08,7.5,4.42,11,7c7.41,1.8,12.41-0.87,15-8c-0.94-1.94-2.27-3.61-4-5
		c-9.63-3.8-19.63-5.47-30-5c-2.28-2.19-4.95-2.86-8-2c-20.68,15.46-43.84,25.29-69.5,29.5c-2.46-0.66-4.96-0.99-7.5-1
		c22.58-2.95,42.91-11.45,61-25.5c7.5-7.16,15.83-13.16,25-18c10.15-1.6,20.15-3.76,30-6.5c3.9-5.6,3.9-11.1,0-16.5
		c-9.27-4.38-17.11-10.55-23.5-18.5c-5.11-10.66-9.44-21.66-13-33c-3.01-4.17-6.51-7.84-10.5-11c1.52-2.36,3.52-4.19,6-5.5
		c10.01-2.06,19.67-5.22,29-9.5c4.27,1.38,8.6,2.55,13,3.5c6.5,3.75,12.83,7.75,19,12c3.13,0.79,6.13,0.46,9-1
		c-0.46-0.41-0.79-0.91-1-1.5c-4.38-1.35-8.72-2.85-13-4.5c4.41-4.34,9.41-5.34,15-3c2.22,3.46,4.88,6.46,8,9
		c5.89,1.61,11.22,4.28,16,8c3.43,0.89,6.6,0.39,9.5-1.5c7.47,1.83,14.97,3.49,22.5,5c-0.24,9.59,4.42,14.43,14,14.5
		c3.42,1.91,5.08,4.91,5,9c-0.54,3.01-1.71,3.18-3.5,0.5c-1.93,5.61-0.09,8.94,5.5,10c-0.12-1.98,0.55-3.65,2-5
		c0.67,3.33,1.33,6.67,2,10c1.22-1.21,2.39-1.21,3.5,0c0.3,3.48,1.14,6.81,2.5,10c-0.67,1.67-1.33,3.33-2,5
		c3.35,5.58,6.18,5.24,8.5-1c0,3.98-0.33,7.98-1,12c-2.65-1.92-5.48-3.08-8.5-3.5c1.54,1.6,2.04,3.43,1.5,5.5
		c-3.5,3.5-7,7-10.5,10.5c3.95,1.15,7.95,1.99,12,2.5c-0.17,4.01,0,8.01,0.5,12c3.12-8.12,5.78-16.46,8-25
		c0.74-2.14,1.58-2.31,2.5-0.5c-2.4,9.18-4.73,18.35-7,27.5c1,0,2,0,3,0c3-12.66,6-25.33,9-38c-0.5-1.02-1.17-1.19-2-0.5
		c-1.29,1.41-2.45,2.91-3.5,4.5c-0.83-4.7-0.66-9.37,0.5-14c1.39,1.1,2.56,2.44,3.5,4c1.13-4.25,1.79-8.58,2-13
		c1.23,2.8,1.9,5.8,2,9c1.7,0.91,3.53,1.24,5.5,1c-0.55,16.77-3.55,33.1-9,49c0.33,0.67,0.67,1.33,1,2c3.46-9.54,6.62-19.21,9.5-29
		c1.16-1.49,1.99-1.33,2.5,0.5c-4.27,13.45-8.1,26.95-11.5,40.5c1.31-2.48,3.14-4.48,5.5-6c0.33,0.67,0.67,1.33,1,2
		c-2.96,7.24-6.46,14.24-10.5,21c-0.67,1-0.67,2,0,3c18.07-26.86,27.73-56.53,29-89c0.99,2.91,1.49,5.91,1.5,9
		c-2.35,30.01-11.02,58.01-26,84c0.33,0.33,0.67,0.67,1,1c2.98-3.28,5.48-6.95,7.5-11c12.62-23.82,19.62-49.15,21-76
		c0.36-1.92,1.19-3.59,2.5-5c1.37,10.74,0.87,21.41-1.5,32c-4.9,17.02-10.4,33.85-16.5,50.5c0.11,1.72,0.61,1.89,1.5,0.5
		c13.11-25.11,20.61-51.77,22.5-80c1,0,2,0,3,0c-0.63,30.87-8.3,59.87-23,87c0.35,1.2,0.85,1.2,1.5,0c14.24-23.39,22.91-48.72,26-76
		c0.46,35.6-10.71,68.1-33.5,97.5c1.89,0.16,3.39-0.67,4.5-2.5c22.27-30.69,35.27-65.02,39-103c0.94,3.26,1.44,6.6,1.5,10
		c-1.52,17.93-5.19,35.43-11,52.5c0.17,0.5,0.33,1,0.5,1.5c8.59-18.44,13.92-37.77,16-58c1.15,3.59,1.98,7.26,2.5,11
		c-1.37,15.34-4.37,30.34-9,45C685.52,309.73,685.85,310.73,686.5,311.5z"/>
</g>
<g>
	<path class="st7" d="M394.5,198.5c-2.77-1.71-5.1-3.88-7-6.5c-1.29-0.49-2.63-0.66-4-0.5c-0.84-1.67-2.18-2.84-4-3.5
		c-6.48-0.98-12.82-0.48-19,1.5c-1.39,2.08-1.06,3.75,1,5c-0.06,2.7-1.06,3.7-3,3c-0.67-1.33-1.67-2.33-3-3c-1.52-3.03-3.52-5.7-6-8
		c1.34-1.29,3.01-2.13,5-2.5c11.18-1.02,22.35-2.19,33.5-3.5c9.57,1.03,19.07,2.53,28.5,4.5c12.91,2.36,23.07,8.86,30.5,19.5
		c0.66,5-1.5,6.83-6.5,5.5C425.85,203.4,410.52,199.56,394.5,198.5z"/>
</g>
<g>
	<path class="st8" d="M349.5,186.5c2.48,2.3,4.48,4.97,6,8c0,1,0,2,0,3c-1.67,0-3.33,0-5,0c-1.72-2.41-3.05-5.08-4-8
		C346.52,187.48,347.52,186.48,349.5,186.5z"/>
</g>
<g>
	<path class="st9" d="M383.5,191.5c-5.61-1.07-11.28-1.24-17-0.5c-2.08,0.7-3.75,1.86-5,3.5c-2.06-1.25-2.39-2.92-1-5
		c6.18-1.98,12.52-2.48,19-1.5C381.32,188.66,382.66,189.83,383.5,191.5z"/>
</g>
<g>
	<path class="st10" d="M383.5,191.5c1.37-0.16,2.71,0.01,4,0.5c1.9,2.62,4.23,4.79,7,6.5c2.26,6.27,4.42,12.6,6.5,19
		c2,10.81-0.16,20.65-6.5,29.5c-9.65,5.68-19.98,8.01-31,7c-6.02-1.01-10.69-4.01-14-9c0.33-0.17,0.67-0.33,1-0.5
		c3.97,2.72,8.31,3.88,13,3.5c-16.06-6.27-24.06-18.1-24-35.5c1.18-5.03,3.85-9.03,8-12c1.33-0.67,2.33-1.67,3-3c1.67,0,3.33,0,5,0
		c0-1,0-2,0-3c1.33,0.67,2.33,1.67,3,3c-3.97,2.81-7.13,6.48-9.5,11c-2.18,9.14,1.32,14.64,10.5,16.5c6.44,1.58,12.11,0.24,17-4
		c-4.01-0.5-8.01-1-12-1.5c-0.17-4.68-0.5-9.35-1-14c2.67,0,5.33,0,8,0c0.08,3.65,1.08,6.98,3,10c2.31-0.46,3.64-1.8,4-4
		c1.32,2.26,2.66,4.6,4,7c4.29-1.65,6.29-4.82,6-9.5c-0.85-7.18-4.85-11.52-12-13c-5.08-0.22-10.08-0.72-15-1.5
		c1.25-1.64,2.92-2.8,5-3.5C372.22,190.26,377.89,190.43,383.5,191.5z"/>
</g>
<g>
	<path class="st11" d="M328.5,204.5c-2.31,1.64-4.31,3.64-6,6c-1.8,1.29-3.8,2.29-6,3c-0.33,0.67-0.67,1.33-1,2
		c-2.93,0.98-5.93,1.32-9,1c-0.16-1.37,0.01-2.71,0.5-4c5.54-5.21,11.38-10.04,17.5-14.5c6.42-4.26,13.42-6.26,21-6
		c-5.79,2.73-11.46,5.73-17,9C326.51,202.84,326.51,204.01,328.5,204.5z"/>
</g>
<g>
	<path class="st12" d="M361.5,194.5c4.92,0.78,9.92,1.28,15,1.5c7.15,1.48,11.15,5.82,12,13c0.29,4.68-1.71,7.85-6,9.5
		c-1.34-2.4-2.68-4.74-4-7c-0.09-4.51-1.59-8.51-4.5-12c-1.66,1.66-2.5,3.66-2.5,6c-2.67,0-5.33,0-8,0c0.5,4.65,0.83,9.32,1,14
		c3.99,0.5,7.99,1,12,1.5c-4.89,4.24-10.56,5.58-17,4c-9.18-1.86-12.68-7.36-10.5-16.5c2.37-4.52,5.53-8.19,9.5-11
		C360.44,198.2,361.44,197.2,361.5,194.5z"/>
</g>
<g>
	<path class="st13" d="M347.5,200.5c-4.15,2.97-6.82,6.97-8,12c-0.84,0.34-1.17,1.01-1,2c-2.84,0.67-5.34,2.01-7.5,4
		c-5.72,6.72-11.05,13.72-16,21c-0.45,8.44,2.89,15.1,10,20c1.27,2.22,2.27,4.55,3,7c1.12,7.27,2.62,14.44,4.5,21.5
		c-0.33,5-2.66,8.67-7,11c-8.63-0.77-17.3-1.1-26-1c-1.77,0.54-2.1,1.37-1,2.5c2.9,1.62,5.9,2.95,9,4
		c17.05,12.18,36.05,17.01,57,14.5c4.24-3.07,8.58-3.24,13-0.5c1.42-0.51,2.08-1.51,2-3c2.54,0.01,5.04,0.34,7.5,1
		c25.66-4.21,48.82-14.04,69.5-29.5c3.05-0.86,5.72-0.19,8,2c10.37-0.47,20.37,1.2,30,5c1.73,1.39,3.06,3.06,4,5
		c-2.59,7.13-7.59,9.8-15,8c-3.5-2.58-7.16-4.92-11-7c-6.05,0.01-7.55,2.85-4.5,8.5c3,2.33,6,4.67,9,7c1.98,5.14,3.31,10.47,4,16
		c1,1,2,2,3,3c2.01,6.99-0.49,9.82-7.5,8.5c-2.82-2.64-5.15-5.64-7-9c-0.95-0.48-1.95-0.65-3-0.5c-1.17,10.86-2.67,21.53-4.5,32
		c2.39,4.46,4.22,9.13,5.5,14c2.97,1.01,5.97,1.01,9,0c-0.02-1.56-0.35-3.06-1-4.5c1.15-1.73,2.32-1.56,3.5,0.5
		c0.37,9.08-1.47,17.75-5.5,26c-2.37,1.89-5.03,2.39-8,1.5c-1.82-3.79-3.82-7.46-6-11c-3.67-1.3-6.34-0.3-8,3
		c1.79,5.05,2.29,10.21,1.5,15.5c-0.83,0.83-1.67,1.67-2.5,2.5c-11.81,3.36-17.14-1.14-16-13.5c-3.92-0.46-6.42,1.21-7.5,5
		c-0.33,4.67-0.67,9.33-1,14c-0.5,0.5-1,1-1.5,1.5c-5.16,1.2-10.16,2.54-15,4c0.11-5.57-2.06-10.07-6.5-13.5
		c-1.01,0.84-2.18,1.17-3.5,1c-0.01,4.92,0.83,9.59,2.5,14c-4.68,2.1-9.51,3.93-14.5,5.5c-1.17,1.17-2.33,2.33-3.5,3.5
		c-1.42,6.26-0.26,11.93,3.5,17c-3.26,1.35-6.59,2.52-10,3.5c-5.35,4.78-11.68,6.95-19,6.5c0.03,2.08-0.64,3.92-2,5.5
		c-3.38,0.18-6.71,0.68-10,1.5c3.4,0.79,6.74,1.79,10,3c-0.21,0.59-0.54,1.09-1,1.5c-13.33,0.33-26.67,0.67-40,1
		c-1.24,0.79-2.58,1.29-4,1.5c-54.97-2.38-104.64-19.54-149-51.5c-22.02-16.68-38.86-37.52-50.5-62.5c-0.81-1.94-1.31-3.94-1.5-6
		c0.16-2.03,0-4.03-0.5-6c-4.01-6.49-5.35-13.49-4-21c2.04,1.71,3.71,3.71,5,6c1.04-2.2,1.88-4.53,2.5-7c0.59,0.21,1.09,0.54,1.5,1
		c1.53,6.13,3.36,12.13,5.5,18c-1.13,2.13-1.3,4.46-0.5,7c6.65,15.31,15.32,29.31,26,42c0.56,1.23,0.23,2.23-1,3
		c-3.72-3.12-6.72-6.78-9-11c-7-11.67-14-23.33-21-35c-1.01-0.84-2.18-1.17-3.5-1c5.88,16.42,14.38,31.42,25.5,45
		c29.18,31.02,64.35,52.52,105.5,64.5c14.46,3.97,29.12,6.81,44,8.5c1.67-0.33,3.33-0.67,5-1c-36.65-6.5-71.32-18.66-104-36.5
		c-5.85-2.61-10.35-6.45-13.5-11.5c22.91,15.96,47.91,27.62,75,35c1.23-0.36,2.39-0.86,3.5-1.5c-28.22-8.78-54.22-21.78-78-39
		c-1.33-1.33-2.67-2.67-4-4c8.55,5.15,17.22,10.49,26,16c25.18,14.95,52.18,24.11,81,27.5c-17.6-4.9-34.93-10.74-52-17.5
		c-1.39-0.89-1.22-1.39,0.5-1.5c4.62,2.61,9.46,3.61,14.5,3c-11.66-5.49-23.32-10.99-35-16.5c-10.11-6.44-19.94-13.28-29.5-20.5
		c-0.67-0.67-0.67-1.33,0-2c4,2.67,8,5.33,12,8c1.23-0.77,1.56-1.77,1-3c-1.56-1.86-3.39-3.36-5.5-4.5c3.17,1.24,6.5,1.9,10,2
		c-2.22-1.27-4.22-2.77-6-4.5c1.42-1.05,2.92-1.05,4.5,0c1.71-0.64,1.88-1.64,0.5-3c0.5-1.02,1.17-1.19,2-0.5c3,2.33,6,4.67,9,7
		c-1.71,0.2-3.37,0.2-5,0c5.67,5.24,5.17,6.4-1.5,3.5c-0.5,0.33-1,0.67-1.5,1c1.48,1.98,3.15,3.82,5,5.5c-0.33,0.17-0.67,0.33-1,0.5
		c-2.89-1.79-5.89-2.96-9-3.5c6.34,7.4,13.84,11.57,22.5,12.5c-2.5-1.83-5-3.67-7.5-5.5c3.26,0.64,6.59,0.98,10,1
		c-2.67-2-5.33-4-8-6c2.28-0.29,4.45,0.21,6.5,1.5c0.5-0.33,1-0.67,1.5-1c-5.22-5.92-4.22-6.58,3-2c0.33-0.33,0.67-0.67,1-1
		c-3.63-2.82-7.29-5.65-11-8.5c1.76-0.14,3.42,0.36,5,1.5c1.2-0.35,1.2-0.85,0-1.5c-4.79-3.12-9.29-6.62-13.5-10.5
		c-0.26,1.66,0.24,3.16,1.5,4.5c-1.92,0.21-3.59-0.45-5-2c1.51-0.84,2.01-2,1.5-3.5c-18.9-15.72-33.4-34.72-43.5-57
		c1.2-0.37,1.86-1.2,2-2.5c-0.67-1.67-1.33-3.33-2-5c0.33-0.5,0.67-1,1-1.5c1.75,2.51,3.25,5.17,4.5,8c0.19-2.08,0.69-4.08,1.5-6
		c0.98,0.48,1.81,1.14,2.5,2c-0.21-5.4,1.12-6.06,4-2c-0.05-7.53,1.29-7.86,4-1c-1.63-8.14-0.3-8.8,4-2c-0.18-3.04-0.51-6.04-1-9
		c2.25,3.51,4.25,7.17,6,11c0.15-2.73-0.35-5.4-1.5-8c0.33-0.33,0.67-0.67,1-1c1.86,2.91,3.52,5.91,5,9c1.24-2.88,2.57-5.72,4-8.5
		c3.29,0,5.45-1.5,6.5-4.5c1.02,1.19,2.19,2.19,3.5,3c1.1-1.89,2.44-3.55,4-5c1.49,1.63,2.99,3.29,4.5,5c0.33-0.67,0.67-1.33,1-2
		c1.67,2.33,3.33,4.67,5,7c-1.54-5.78-3.71-11.44-6.5-17c5.05-1.96,10.21-3.63,15.5-5c2.22,1.78,3.39,4.11,3.5,7c1.67,0,3.33,0,5,0
		c-0.16-1.7,0.01-3.37,0.5-5c0.89,1.21,1.73,1.21,2.5,0c-1.88-5.44-0.88-10.28,3-14.5c12.61-1.32,24.61-4.82,36-10.5
		c2.07,2.46,3.9,5.12,5.5,8c0.33-0.67,0.67-1.33,1-2c3.74,6.16,8.41,11.5,14,16c-2.85-5.37-5.51-11.04-8-17
		c-0.72-9.03-0.55-18.03,0.5-27c0.1-2.29,0.76-4.29,2-6c-0.25,7.09,0.42,14.09,2,21c10.68-6,17.51-15,20.5-27
		c5.75-9.17,11.25-18.5,16.5-28c-1.5-0.55-3.17-0.55-5,0c1.69-2.36,3.69-4.36,6-6c5.32-1.99,10.65-3.99,16-6
		C346.04,198.45,347.04,199.12,347.5,200.5z"/>
</g>
<g>
	<path class="st14" d="M378.5,211.5c-0.36,2.2-1.69,3.54-4,4c-1.92-3.02-2.92-6.35-3-10c0-2.34,0.84-4.34,2.5-6
		C376.91,202.99,378.41,206.99,378.5,211.5z"/>
</g>
<g>
	<path class="st15" d="M288.5,244.5c0.4-4.69,1.9-9.03,4.5-13c4.39-5.22,8.89-10.22,13.5-15c3.07,0.32,6.07-0.02,9-1
		c0.33-0.67,0.67-1.33,1-2c2.2-0.71,4.2-1.71,6-3c1.83-0.55,3.5-0.55,5,0c-5.25,9.5-10.75,18.83-16.5,28c-2.99,12-9.82,21-20.5,27
		C288.92,258.59,288.25,251.59,288.5,244.5z"/>
</g>
<g>
	<path class="st16" d="M338.5,214.5c0.16,1.37-0.01,2.71-0.5,4c-5.65,3.65-9.82,8.48-12.5,14.5c3.09,7.01,6.59,13.84,10.5,20.5
		c0.79,7.84,1.63,15.67,2.5,23.5c1.31,10.33-1.69,19-9,26c-4.03,0.3-8.03,0.8-12,1.5c-3.58-1.63-7.25-2.96-11-4
		c-0.07,1.46,0.27,2.79,1,4c-3.1-1.05-6.1-2.38-9-4c-1.1-1.13-0.77-1.96,1-2.5c8.7-0.1,17.37,0.23,26,1c4.34-2.33,6.67-6,7-11
		c-1.88-7.06-3.38-14.23-4.5-21.5c-0.73-2.45-1.73-4.78-3-7c-7.11-4.9-10.45-11.56-10-20c4.95-7.28,10.28-14.28,16-21
		C333.16,216.51,335.66,215.17,338.5,214.5z"/>
</g>
<g>
	<path class="st17" d="M308.5,256.5c2.33-0.25,4.33,0.41,6,2c5,7.34,9.5,15,13.5,23c0.67,2,0.67,4,0,6c-2.5,3.17-5,6.33-7.5,9.5
		c-14.43-2.41-24.1-10.74-29-25C296.76,266.37,302.43,261.21,308.5,256.5z"/>
</g>
<g>
	<path class="st18" d="M154.5,329.5c-1.73,0.34-2.23,1.34-1.5,3c4.83,9,9.67,18,14.5,27c-0.35,1.2-0.85,1.2-1.5,0
		c-6.44-7.88-11.61-16.55-15.5-26c3.31,12.13,8.98,23.29,17,33.5c-2.46-0.22-4.8-1.05-7-2.5c0.15,1.05-0.02,2.05-0.5,3
		c-6.83-7.17-12.5-15.17-17-24c-0.12,1.67,0.21,3.33,1,5c4.34,7.69,8.34,15.35,12,23c-7.74-7.8-13.74-16.8-18-27
		c5.16,17.36,14.66,32.02,28.5,44c0.33-0.33,0.67-0.67,1-1c-2.34-2.36-3.84-5.03-4.5-8c4.17,4.17,8.33,8.33,12.5,12.5
		c-1.67,0.33-3.33,0.67-5,1c2.85,2.79,2.51,4.12-1,4c-8.95-7.94-16.78-16.77-23.5-26.5c-5.36-10.06-11.19-19.73-17.5-29
		c-1.41-2.5-2.58-5.16-3.5-8c-0.81-2.4-0.65-4.73,0.5-7c0.67,0.33,1.33,0.67,2,1c0.67-2.33,1.33-4.67,2-7c0.98,1.48,2.15,2.82,3.5,4
		c0.46-6.51,2.13-7.18,5-2c0.49-1.29,0.66-2.63,0.5-4c3.08-0.24,6.08,0.09,9,1c0.81-1.92,1.31-3.92,1.5-6
		C151.14,318.74,152.97,324.08,154.5,329.5z"/>
</g>
<g>
	<path class="st19" d="M842.5,318.5c0,7.33,0,14.67,0,22c-1,0-2,0-3,0c0-1.33,0-2.67,0-4c0.77,0.76,1.27,1.76,1.5,3
		C841.17,332.32,841.67,325.32,842.5,318.5z"/>
</g>
<g>
	<path class="st20" d="M842.5,318.5c2.54-0.4,4.71,0.27,6.5,2c0.33,7.33,0.67,14.67,1,22c5.34,4.5,10.5,9.17,15.5,14
		c-7.32,0.93-13.16,4.6-17.5,11c-0.98,2.24-1.48,4.57-1.5,7c-4.44-1.42-8.94-2.76-13.5-4c-3.97,0.46-5.14,2.46-3.5,6
		c2.27-1.04,4.6-1.21,7-0.5c3.21,2.04,6.54,3.87,10,5.5c1.54,0.05,2.54-0.62,3-2c5.45-0.67,10.45,0.49,15,3.5
		c1.63,0.49,3.3,0.66,5,0.5c19.8,5.62,39.8,10.62,60,15c-0.54,4.02-1.21,8.02-2,12c-4.25,0.6-8.58,0.44-13-0.5
		c-18.09-4.36-36.09-9.02-54-14c-3.2-0.8-6.2-0.64-9,0.5c-3.57-1.86-7.4-3.19-11.5-4c-2.95,1.44-5.78,3.11-8.5,5
		c-2.41-0.22-3.41-1.55-3-4c3.96,0.53,6.29-1.14,7-5c0.07-1.77-0.77-2.77-2.5-3c-1.82,1.15-3.66,2.32-5.5,3.5
		c-4.04,0.17-8.04,0.67-12,1.5c1.62,2.99,3.96,5.32,7,7c1.24,2.23,2.58,4.4,4,6.5c6.86-1.41,13.86-2.24,21-2.5
		c-0.49,0.97-0.99,1.97-1.5,3c-0.53,15.17-1.37,30.17-2.5,45c0.33-7.03,0-14.03-1-21c-2.94-1.08-5.94-1.24-9-0.5
		c-1.2,0.9-2.03,2.07-2.5,3.5c-2.13,73.53-4.96,147.03-8.5,220.5c-0.29,8.95,0.54,17.79,2.5,26.5c0.79,18.36,0.63,36.7-0.5,55
		c-0.96,0.45-1.79,1.12-2.5,2c-2.84,55.2-6.34,110.2-10.5,165c0-3,0-6,0-9c-3.25-0.29-6.25,0.37-9,2c-3.57-0.26-4.9-2.26-4-6
		c1.29,0.24,2.29-0.1,3-1c2.37,2.68,5.37,4.02,9,4c-0.19-4.07,0.14-8.07,1-12c5.9-152.31,11.9-304.64,18-457
		c12.18,5.17,16.84,1.17,14-12c-4.28,1.31-8.61,2.31-13,3c0.27,1.6-0.07,2.93-1,4c-0.35-6.19-3.69-9.69-10-10.5
		c-5.78-4.32-8.28-10.15-7.5-17.5c-0.83-2.17-2.33-3.67-4.5-4.5c-45.75-11.69-91.41-23.52-137-35.5c0.63-1.45,1.8-2.11,3.5-2
		c6.42,1.64,12.92,2.14,19.5,1.5c0.52-0.56,0.85-1.23,1-2c-0.82-1.8-1.49-3.63-2-5.5c39.77,8.86,79.44,18.19,119,28
		c2.6,1.64,5.27,3.31,8,5c3.27-1.77,6.1-4.1,8.5-7c1.75-6.63,3.25-13.29,4.5-20c1.89,0.2,3.39-0.46,4.5-2c0.33-8,0.67-16,1-24
		c1.34,5.24,1.84,10.57,1.5,16c0,1.33,0,2.67,0,4c1,0,2,0,3,0C842.5,333.17,842.5,325.83,842.5,318.5z"/>
</g>
<g>
	<path class="st21" d="M66.5,306.5c-0.17,6.34,0,12.67,0.5,19c1.65,4.91,2.99,9.91,4,15c0.33,0.33,0.67,0.67,1,1c1.67-2,3.33-4,5-6
		c2.9,4.22,4.9,8.89,6,14c0-5.33,0-10.67,0-16c0.72-0.95,1.55-1.12,2.5-0.5c2.84,5.84,4.84,12,6,18.5c-1.54-0.8-3.21-1.13-5-1
		c0.84,4.33,1.34,8.67,1.5,13c-2-2.67-4-5.33-6-8c-0.85,2.43-1.85,4.77-3,7c-2.64-6.41-5.14-6.41-7.5,0
		C65.61,344.1,63.95,325.43,66.5,306.5z"/>
</g>
<g>
	<path class="st13" d="M100.5,353.5c-3.18-0.32-4.35,1.01-3.5,4c8.82,15.81,16.99,31.48,24.5,47c-13.71-15.08-23.71-32.41-30-52
		c1.19-0.37,1.86-1.2,2-2.5c-2.58-5.94-3.41-12.11-2.5-18.5c0.41-0.46,0.91-0.79,1.5-1C95.93,337.86,98.59,345.53,100.5,353.5z"/>
</g>
<g>
	<path class="st22" d="M160.5,364.5c-7.75-7.83-12.58-17.16-14.5-28C151.11,345.73,155.95,355.06,160.5,364.5z"/>
</g>
<g>
	<path class="st23" d="M126.5,342.5c-1,0-2,0-3,0c2.68,9.37,6.51,18.37,11.5,27c5.83,7.83,11.67,15.67,17.5,23.5
		c-1.66,0.27-3.16-0.23-4.5-1.5c-11.7-13.39-20.87-28.39-27.5-45c1.09-0.12,1.75-0.79,2-2c-1.16-2.99-2.33-5.99-3.5-9
		c-0.89-3.21-0.56-6.21,1-9C121.56,332.11,123.73,337.44,126.5,342.5z"/>
</g>
<g>
	<path class="st24" d="M832.5,346.5c-1.25,6.71-2.75,13.37-4.5,20c-2.4,2.9-5.23,5.23-8.5,7c-2.73-1.69-5.4-3.36-8-5
		c3.98-5.27,7.48-10.93,10.5-17C824.55,347.81,828.05,346.14,832.5,346.5z"/>
</g>
<g>
	<path class="st25" d="M154.5,329.5c0,0.33,0,0.67,0,1c10.1,22.28,24.6,41.28,43.5,57c0.51,1.5,0.01,2.66-1.5,3.5
		c1.41,1.55,3.08,2.21,5,2c-1.26-1.34-1.76-2.84-1.5-4.5c4.21,3.88,8.71,7.38,13.5,10.5c1.2,0.65,1.2,1.15,0,1.5
		c-1.58-1.14-3.24-1.64-5-1.5c3.71,2.85,7.37,5.68,11,8.5c-0.33,0.33-0.67,0.67-1,1c-7.22-4.58-8.22-3.92-3,2
		c-0.5,0.33-1,0.67-1.5,1c-2.05-1.29-4.22-1.79-6.5-1.5c2.67,2,5.33,4,8,6c-3.41-0.02-6.74-0.36-10-1c2.5,1.83,5,3.67,7.5,5.5
		c-8.66-0.93-16.16-5.1-22.5-12.5c3.11,0.54,6.11,1.71,9,3.5c0.33-0.17,0.67-0.33,1-0.5c-1.85-1.68-3.52-3.52-5-5.5
		c0.5-0.33,1-0.67,1.5-1c6.67,2.9,7.17,1.74,1.5-3.5c1.63,0.2,3.29,0.2,5,0c-3-2.33-6-4.67-9-7c-0.83-0.69-1.5-0.52-2,0.5
		c1.38,1.36,1.21,2.36-0.5,3c-1.58-1.05-3.08-1.05-4.5,0c1.78,1.73,3.78,3.23,6,4.5c-3.5-0.1-6.83-0.76-10-2
		c2.11,1.14,3.94,2.64,5.5,4.5c0.56,1.23,0.23,2.23-1,3c-4-2.67-8-5.33-12-8c-0.67,0.67-0.67,1.33,0,2
		c9.56,7.22,19.39,14.06,29.5,20.5c11.68,5.51,23.34,11.01,35,16.5c-5.04,0.61-9.88-0.39-14.5-3c-1.72,0.11-1.89,0.61-0.5,1.5
		c17.07,6.76,34.4,12.6,52,17.5c-28.82-3.39-55.82-12.55-81-27.5c-8.78-5.51-17.45-10.85-26-16c1.33,1.33,2.67,2.67,4,4
		c23.78,17.22,49.78,30.22,78,39c-1.11,0.64-2.27,1.14-3.5,1.5c-27.09-7.38-52.09-19.04-75-35c3.15,5.05,7.65,8.89,13.5,11.5
		c32.68,17.84,67.35,30,104,36.5c-1.67,0.33-3.33,0.67-5,1c-14.88-1.69-29.54-4.53-44-8.5c-41.15-11.98-76.32-33.48-105.5-64.5
		c-11.12-13.58-19.62-28.58-25.5-45c1.32-0.17,2.49,0.16,3.5,1c7,11.67,14,23.33,21,35c2.28,4.22,5.28,7.88,9,11
		c1.23-0.77,1.56-1.77,1-3c-10.68-12.69-19.35-26.69-26-42c-0.8-2.54-0.63-4.87,0.5-7c6.63,16.61,15.8,31.61,27.5,45
		c1.34,1.27,2.84,1.77,4.5,1.5c-5.83-7.83-11.67-15.67-17.5-23.5c-4.99-8.63-8.82-17.63-11.5-27c1,0,2,0,3,0
		c1.49,2.69,2.15,2.35,2-1c6.31,9.27,12.14,18.94,17.5,29c6.72,9.73,14.55,18.56,23.5,26.5c3.51,0.12,3.85-1.21,1-4
		c1.67-0.33,3.33-0.67,5-1c-4.17-4.17-8.33-8.33-12.5-12.5c0.66,2.97,2.16,5.64,4.5,8c-0.33,0.33-0.67,0.67-1,1
		c-13.84-11.98-23.34-26.64-28.5-44c4.26,10.2,10.26,19.2,18,27c-3.66-7.65-7.66-15.31-12-23c-0.79-1.67-1.12-3.33-1-5
		c4.5,8.83,10.17,16.83,17,24c0.48-0.95,0.65-1.95,0.5-3c2.2,1.45,4.54,2.28,7,2.5c-8.02-10.21-13.69-21.37-17-33.5
		c3.89,9.45,9.06,18.12,15.5,26c0.65,1.2,1.15,1.2,1.5,0c-4.83-9-9.67-18-14.5-27C152.27,330.84,152.77,329.84,154.5,329.5z"/>
</g>
<g>
	<path class="st26" d="M477.5,352.5c10.81-2.28,17.14,1.89,19,12.5c-3.27,4.64-7.61,6.48-13,5.5c-3.01-4.01-5.51-8.34-7.5-13
		C475.39,355.51,475.89,353.84,477.5,352.5z"/>
</g>
<g>
	<path class="st27" d="M91.5,351.5c0,0.33,0,0.67,0,1c6.29,19.59,16.29,36.92,30,52c-7.51-15.52-15.68-31.19-24.5-47
		c-0.85-2.99,0.32-4.32,3.5-4c2.6,1.58,4.93,1.24,7-1c0.79,1.27,1.79,2.27,3,3c0.19,2.06,0.69,4.06,1.5,6
		c11.64,24.98,28.48,45.82,50.5,62.5c44.36,31.96,94.03,49.12,149,51.5c-0.45,0.96-1.12,1.79-2,2.5c-5.66,0.5-11.32,0.67-17,0.5
		c-19.51-4.8-39.17-9.3-59-13.5c-39.5-11.82-73.33-32.66-101.5-62.5c-9.58-11.6-17.58-24.27-24-38c-0.83-1-1.67-2-2.5-3
		c-0.33,0.5-0.67,1-1,1.5c8.97,20.61,21.64,38.61,38,54c24.34,21.68,52,38.01,83,49c20.79,6.08,41.79,11.41,63,16
		c-50.88-3.3-96.88-20.3-138-51c-9.14-8.14-17.97-16.64-26.5-25.5c0.03,2.1,0.7,4.1,2,6c28.97,30.6,63.8,51.76,104.5,63.5
		c19.09,5.36,38.09,10.19,57,14.5c-29.25-0.82-57.25-7.32-84-19.5c-16.32-8.33-32.66-16.33-49-24c34.61,25.21,73.28,40.88,116,47
		c2.53,0.62,4.86,1.62,7,3c-43.06-3.35-82.89-16.52-119.5-39.5c-0.68,1.28-0.52,2.45,0.5,3.5c37.3,21.64,77.3,35.97,120,43
		c1.99,0.37,3.66,1.21,5,2.5c-34.89-2.35-68.22-10.85-100-25.5c-11.44-6.39-23.11-12.22-35-17.5c-2.53-1.41-4.87-3.07-7-5
		c-4.06-4.45-7.9-9.12-11.5-14c-17.75-15.19-32.41-32.86-44-53c-2.04-2.21-4.2-4.21-6.5-6c-2.87-7.27-5.54-14.61-8-22
		c2.36-6.41,4.86-6.41,7.5,0c1.15-2.23,2.15-4.57,3-7c2,2.67,4,5.33,6,8c-0.16-4.33-0.66-8.67-1.5-13
		C88.29,350.37,89.96,350.7,91.5,351.5z"/>
</g>
<g>
	<path class="st28" d="M865.5,356.5c1.72,1.75,3.22,3.75,4.5,6c0.42,7.01,0.26,14.01-0.5,21c-1.7,0.16-3.37-0.01-5-0.5
		c-4.55-3.01-9.55-4.17-15-3.5c-0.58-1.91-1.58-3.58-3-5c0.02-2.43,0.52-4.76,1.5-7C852.34,361.1,858.18,357.43,865.5,356.5z"/>
</g>
<g>
	<path class="st29" d="M128.5,345.5c6.73,10.44,13.23,21.1,19.5,32c2.27,4.16,1.6,4.82-2,2c-5.75-10.5-11.75-20.83-18-31
		C127.53,347.42,127.7,346.42,128.5,345.5z"/>
</g>
<g>
	<path class="st30" d="M846.5,374.5c1.42,1.42,2.42,3.09,3,5c-0.46,1.38-1.46,2.05-3,2c-3.46-1.63-6.79-3.46-10-5.5
		c-2.4-0.71-4.73-0.54-7,0.5c-1.64-3.54-0.47-5.54,3.5-6C837.56,371.74,842.06,373.08,846.5,374.5z"/>
</g>
<g>
	<path class="st31" d="M169.5,372.5c0.4-1.02,1.06-1.19,2-0.5c3.62,3.83,7.29,7.66,11,11.5c-1.19,0.93-2.52,1.26-4,1c0,1,0,2,0,3
		c-1.05,0.15-2.05-0.02-3-0.5c-3.04-2.7-5.71-5.7-8-9c1.61,0.02,3.27,0.18,5,0.5C172.98,375.69,171.98,373.69,169.5,372.5z"/>
</g>
<g>
	<path class="st0" d="M580.5,436.5c-52.64,36.89-110.97,59.89-175,69c0.79-1.29,1.79-2.46,3-3.5c-0.33-0.33-0.67-0.67-1-1
		c-4.65-0.5-9.32-0.67-14-0.5c-0.22-1.17,0.11-2.17,1-3c2.04-0.74,4.04-1.57,6-2.5c-3.99-0.64-7.99-1.14-12-1.5
		c0.79-2.93,2.79-4.77,6-5.5c-0.76-1.51-1.76-2.85-3-4c6.55-2.52,13.21-4.85,20-7c6.5-5.78,14.17-8.44,23-8
		c21.11-7.39,42.11-15.05,63-23c9.75-2.79,18.42-7.46,26-14c10.49-5.41,20.83-11.08,31-17c3.06-0.74,6.06-0.58,9,0.5
		c0.81-2.27,1.31-4.6,1.5-7c6.29-4.78,12.46-9.78,18.5-15c0.67,1.67,1.33,3.33,2,5c8.41-5.91,16.08-12.74,23-20.5
		c2.07-1.87,4.4-2.87,7-3c-7.01,8.35-14.01,16.68-21,25c0.17,0.5,0.33,1,0.5,1.5c7.72-7.56,15.89-14.56,24.5-21
		c0.33,0.17,0.67,0.33,1,0.5c-7.77,9.77-16.27,18.93-25.5,27.5c-0.75,1.14-0.58,2.14,0.5,3c4.19-3.26,8.19-6.76,12-10.5
		c1.77-1.76,3.44-1.76,5,0c-10.61,10.73-21.78,20.9-33.5,30.5c-0.5,1-1,2-1.5,3C578.6,435.18,579.6,435.84,580.5,436.5z"/>
</g>
<g>
	<path class="st32" d="M91.5,369.5c7.14,13.61,15.31,26.61,24.5,39c9.83,11.17,20.33,21.67,31.5,31.5c-2.6-0.13-4.93-1.13-7-3
		c-15.61-12.78-28.78-27.61-39.5-44.5C96.71,385.26,93.54,377.59,91.5,369.5z"/>
</g>
<g>
	<path class="st0" d="M576.5,380.5c0.98,0.31,1.65,0.98,2,2c-23.38,22.21-50.04,39.71-80,52.5c-11.33,4.67-22.67,9.33-34,14
		c-0.95,0.72-1.12,1.55-0.5,2.5c1.26,0.71,2.42,1.54,3.5,2.5c-6.24,1.97-12.41,4.14-18.5,6.5c-0.5-0.33-1-0.67-1.5-1
		c1.82-2.32,3.82-4.48,6-6.5c-10.92,1.94-21.75,4.44-32.5,7.5c1.28-4.96,4.44-8.46,9.5-10.5c4.53-0.68,9.03-0.51,13.5,0.5
		c2.18-0.42,4.35-0.92,6.5-1.5c3.67-3,7.33-6,11-9c5.34-0.15,10.68-0.15,16,0c5.53-2.52,10.19-6.19,14-11c2.17-1.59,4.5-2.92,7-4
		c2.92-0.72,5.58-0.22,8,1.5c1.44-0.22,2.77-0.72,4-1.5c4.21-3.72,8.21-7.72,12-12c3.09-1.96,6.25-3.79,9.5-5.5
		c1.11,1.83,2.61,2.66,4.5,2.5c2.4-2.06,5.07-3.73,8-5c2.25-7.3,7.25-10.97,15-11C565.35,389.64,571.02,385.14,576.5,380.5z"/>
</g>
<g>
	<path class="st33" d="M851.5,396.5c1.07,0.75,1.24,1.75,0.5,3c-1.47,0.77-2.97,1.43-4.5,2c-7.14,0.26-14.14,1.09-21,2.5
		c-1.42-2.1-2.76-4.27-4-6.5c-3.04-1.68-5.38-4.01-7-7c3.96-0.83,7.96-1.33,12-1.5c1.84-1.18,3.68-2.35,5.5-3.5
		c1.73,0.23,2.57,1.23,2.5,3c-0.71,3.86-3.04,5.53-7,5c-0.41,2.45,0.59,3.78,3,4c2.72-1.89,5.55-3.56,8.5-5
		C844.1,393.31,847.93,394.64,851.5,396.5z"/>
</g>
<g>
	<path class="st34" d="M79.5,384.5c2.3,1.79,4.46,3.79,6.5,6c11.59,20.14,26.25,37.81,44,53c3.6,4.88,7.44,9.55,11.5,14
		c-2.28-1.14-4.61-2.31-7-3.5C109.99,435.67,91.66,412.5,79.5,384.5z"/>
</g>
<g>
	<path class="st28" d="M851.5,396.5c2.8-1.14,5.8-1.3,9-0.5c17.91,4.98,35.91,9.64,54,14c4.42,0.94,8.75,1.1,13,0.5
		c-0.08,2.99-1.41,4.99-4,6c-19.61-5.2-39.45-9.53-59.5-13c-5.43,0.75-9.09,3.75-11,9c-6.81,162.06-12.64,324.06-17.5,486
		c0.03,7.3-3.63,10.97-11,11c2.83-40.95,5-81.95,6.5-123c3.97-112.34,8.13-224.67,12.5-337c1.13-14.83,1.97-29.83,2.5-45
		c0.51-1.03,1.01-2.03,1.5-3c1.53-0.57,3.03-1.23,4.5-2C852.74,398.25,852.57,397.25,851.5,396.5z"/>
</g>
<g>
	<path class="st35" d="M292.5,478.5c0.11,0.62,0.44,1.12,1,1.5c13.47,0.98,26.8,2.81,40,5.5c-14.65,0.83-29.32,1.33-44,1.5
		c12.76,1.35,25.43,3.18,38,5.5c-12.65,0.83-25.32,1.33-38,1.5c12.62,2.03,25.28,3.7,38,5c1.12,0.25,2.12,0.75,3,1.5
		c-9.33,0.67-18.67,1.33-28,2c0.52,0.69,1.19,1.19,2,1.5c7.34,0.56,14.68,1.22,22,2c11.48,4.95,23.48,6.78,36,5.5
		c-8.45,1.52-17.11,2.19-26,2c-11-0.28-22-0.61-33-1c-1.4-2.03-3.4-3.03-6-3c-1.86-0.16-3.19,0.51-4,2c-2.56,0.3-4.89-0.03-7-1
		c-0.09-2.35-1.09-4.01-3-5c-1.34-1.29-3.01-2.13-5-2.5c-42.7-7.03-82.7-21.36-120-43c-1.02-1.05-1.18-2.22-0.5-3.5
		c36.61,22.98,76.44,36.15,119.5,39.5c-2.14-1.38-4.47-2.38-7-3c-42.72-6.12-81.39-21.79-116-47c16.34,7.67,32.68,15.67,49,24
		c26.75,12.18,54.75,18.68,84,19.5c-18.91-4.31-37.91-9.14-57-14.5c-40.7-11.74-75.53-32.9-104.5-63.5c-1.3-1.9-1.97-3.9-2-6
		c8.53,8.86,17.36,17.36,26.5,25.5c41.12,30.7,87.12,47.7,138,51c-21.21-4.59-42.21-9.92-63-16c-31-10.99-58.66-27.32-83-49
		c-16.36-15.39-29.03-33.39-38-54c0.33-0.5,0.67-1,1-1.5c0.83,1,1.67,2,2.5,3c6.42,13.73,14.42,26.4,24,38
		c28.17,29.84,62,50.68,101.5,62.5C253.33,469.2,272.99,473.7,292.5,478.5z"/>
</g>
<g>
	<path class="st36" d="M829.5,421.5c0-1.67,0-3.33,0-5c0.93-1.07,1.27-2.4,1-4c4.39-0.69,8.72-1.69,13-3
		C846.34,422.67,841.68,426.67,829.5,421.5z"/>
</g>
<g>
	<path class="st32" d="M150.5,383.5c2.43,1.25,4.77,2.75,7,4.5c7.03,7.36,14.36,14.36,22,21c13.83,8.08,27.5,16.42,41,25
		c-1.33,0.67-2.67,0.67-4,0c-17.68-8.7-34.02-19.37-49-32C161.24,396.24,155.57,390.08,150.5,383.5z"/>
</g>
<g>
	<path class="st26" d="M471.5,417.5c1.64-0.21,3.14,0.12,4.5,1c2.03,2.72,3.53,5.72,4.5,9c-4.78,2.56-9.78,4.89-15,7
		c-0.33-0.67-0.67-1.33-1-2C463.9,425.92,466.23,420.92,471.5,417.5z"/>
</g>
<g>
	<path class="st26" d="M441.5,425.5c7.92,0.09,11.42,4.09,10.5,12c-1.21,1.55-2.71,2.71-4.5,3.5c-4.3,1.09-8.63,1.42-13,1
		C432.82,434.85,435.15,429.35,441.5,425.5z"/>
</g>
<g>
	<path class="st36" d="M843.5,449.5c-4.37,112.33-8.53,224.66-12.5,337c-1.5,41.05-3.67,82.05-6.5,123c7.37-0.03,11.03-3.7,11-11
		c2.38,1.39,4.05,3.39,5,6c0.04,6.73-3.29,10.57-10,11.5c-2.91,3.15-5.57,6.48-8,10c2,1.33,4,2.67,6,4c-1.21,1.04-2.21,2.21-3,3.5
		c-1.52,0.01-2.68,0.68-3.5,2c-1.04-0.74-1.54-1.74-1.5-3c0.16-3.68,0-7.35-0.5-11c-4.1-3.94-8.6-7.27-13.5-10
		c-1.82-1.62-3.15-3.62-4-6c0-4,0-8,0-12c2.75-1.63,5.75-2.29,9-2c0,3,0,6,0,9c0.18,5.43,2.85,8.43,8,9c0.74-3.62,1.08-7.28,1-11
		c0.99-8.48,1.33-17.15,1-26c1.58-46.32,2.58-92.65,3-139c1.13-18.3,1.29-36.64,0.5-55c-1.96-8.71-2.79-17.55-2.5-26.5
		c3.54-73.47,6.37-146.97,8.5-220.5c0.47-1.43,1.3-2.6,2.5-3.5c3.06-0.74,6.06-0.58,9,0.5C843.5,435.47,843.83,442.47,843.5,449.5z"
		/>
</g>
<g>
	<path class="st26" d="M402.5,430.5c5.73,0.22,9.23,3.22,10.5,9c0.67,3,0.67,6,0,9c-5.73,3.35-11.89,4.51-18.5,3.5
		c-2.42-2-3.26-4.5-2.5-7.5C395.27,439.63,398.77,434.96,402.5,430.5z"/>
</g>
<g>
	<path class="st37" d="M148.5,462.5c11.89,5.28,23.56,11.11,35,17.5c31.78,14.65,65.11,23.15,100,25.5c1.91,0.99,2.91,2.65,3,5
		c-12.09-0.7-24.09-2.2-36-4.5c-30.15-6.74-58.81-17.41-86-32C158.57,470.88,153.24,467.05,148.5,462.5z"/>
</g>
<g>
	<path class="st38" d="M303.5,512.5c-3.36-0.12-6.69-0.45-10-1c0.81-1.49,2.14-2.16,4-2C300.1,509.47,302.1,510.47,303.5,512.5z"/>
</g>
<g>
	<path class="st39" d="M824.5,733.5c-0.42,46.35-1.42,92.68-3,139c-0.98,1.27-1.98,2.6-3,4c0.31,0.81,0.81,1.47,1.5,2
		c0.5,6.66,0.67,13.33,0.5,20c0.08,3.72-0.26,7.38-1,11c-5.15-0.57-7.82-3.57-8-9c4.16-54.8,7.66-109.8,10.5-165
		C822.71,734.62,823.54,733.95,824.5,733.5z"/>
</g>
<g>
	<path class="st40" d="M811.5,878.5c-0.86,3.93-1.19,7.93-1,12c-3.63,0.02-6.63-1.32-9-4c-2.56-6.13-5.4-12.13-8.5-18
		c0.62,6.6,2.45,12.94,5.5,19c-0.9,3.74,0.43,5.74,4,6c0,4,0,8,0,12c-2.58,0.55-3.58,2.22-3,5c-2.53-14.12-6.03-28.12-10.5-42
		c-0.67-1.67-0.67-3.33,0-5c1.05-1.02,2.22-1.18,3.5-0.5c4.33,5.67,9.33,10.67,15,15C808.88,879.33,810.21,879.5,811.5,878.5z"/>
</g>
<g>
	<path class="st41" d="M801.5,886.5c-0.71,0.9-1.71,1.24-3,1c-3.05-6.06-4.88-12.4-5.5-19C796.1,874.38,798.94,880.38,801.5,886.5z"
		/>
</g>
<g>
	<path class="st42" d="M821.5,872.5c0.33,8.85-0.01,17.52-1,26c0.17-6.67,0-13.34-0.5-20c-0.69-0.53-1.19-1.19-1.5-2
		C819.52,875.1,820.52,873.77,821.5,872.5z"/>
</g>
<g>
	<path class="st28" d="M840.5,904.5c1.89,1.27,2.89,3.1,3,5.5c-1.52,17.37-3.52,34.53-6,51.5c0.29-2.23-0.04-4.23-1-6
		c-4.35,0.41-8.68,0.58-13,0.5c4.55-2.23,8.88-4.73,13-7.5c-9.65-0.83-19.32-1.33-29-1.5c-1.15-1.88-2.82-2.72-5-2.5
		c0,2.33,0,4.67,0,7c-0.8-5.52-1.47-11.18-2-17c1.62,0.54,3.28,0.87,5,1c-0.33-8.18,0.01-16.18,1-24c4.9,2.73,9.4,6.06,13.5,10
		c0.5,3.65,0.66,7.32,0.5,11c-1.92,1.7-2.26,3.7-1,6c6.43,4.58,8.43,2.91,6-5c0.79-1.29,1.79-2.46,3-3.5c-2-1.33-4-2.67-6-4
		c2.43-3.52,5.09-6.85,8-10C837.21,915.07,840.54,911.23,840.5,904.5z"/>
</g>
<g>
	<path class="st43" d="M802.5,905.5c0.85,2.38,2.18,4.38,4,6c-0.99,7.82-1.33,15.82-1,24c-1.72-0.13-3.38-0.46-5-1
		c-0.52-7.99-0.86-15.99-1-24C798.92,907.72,799.92,906.05,802.5,905.5z"/>
</g>
<g>
	<path class="st44" d="M820.5,932.5c-0.04,1.26,0.46,2.26,1.5,3c0.82-1.32,1.98-1.99,3.5-2c2.43,7.91,0.43,9.58-6,5
		C818.24,936.2,818.58,934.2,820.5,932.5z"/>
</g>
<g>
	<path class="st30" d="M836.5,955.5c0.9,4.95-0.43,5.95-4,3c-0.81,0.31-1.47,0.81-2,1.5c-7.06,1.09-14.06,2.26-21,3.5
		c-1.67-0.25-3.17-0.92-4.5-2c-0.7-2.5-1.53-4.84-2.5-7c0-1,0-2,0-3c0-2.33,0-4.67,0-7c2.18-0.22,3.85,0.62,5,2.5
		c9.68,0.17,19.35,0.67,29,1.5c-4.12,2.77-8.45,5.27-13,7.5C827.82,956.08,832.15,955.91,836.5,955.5z"/>
</g>
<g>
	<path class="st45" d="M805.5,948.5c2.77,1.22,5.44,2.72,8,4.5c1.34,1.83,0.84,2.99-1.5,3.5
		C807.75,955.43,805.59,952.76,805.5,948.5z"/>
</g>
<g>
	<path class="st46" d="M815.5,954.5c1.48-0.26,2.81,0.07,4,1c-0.67,0.33-1.33,0.67-2,1C816.29,956.25,815.62,955.59,815.5,954.5z"/>
</g>
<g>
	<path class="st24" d="M802.5,954.5c0.97,2.16,1.8,4.5,2.5,7c1.33,1.08,2.83,1.75,4.5,2c2.29,2.8,4.79,5.46,7.5,8
		c0.33,6,0.67,12,1,18c0.71,1.47,1.88,2.14,3.5,2c0.4-7.04,1.23-14.04,2.5-21c3.4-1.04,6.9-1.71,10.5-2c-1.6,5.15-2.43,10.49-2.5,16
		c-3.47,90.69-7.3,181.35-11.5,272c0.83,6.27,4.5,8.94,11,8c0,0.67,0,1.33,0,2c-4.34,0.18-7,2.34-8,6.5c1.02,4.24,2.68,8.08,5,11.5
		c-1.62,1.28-3.29,2.61-5,4c0.21,0.59,0.54,1.09,1,1.5c-1.45,5.98-3.12,11.82-5,17.5c-2.55-3.49-3.88-7.49-4-12
		c1.15-3.61,1.65-7.27,1.5-11c-0.9-1.2-2.07-2.03-3.5-2.5c2.52-2.35,4.85-4.85,7-7.5c-1-0.33-2-0.67-3-1c-5.98,0.89-11.98,1.55-18,2
		c1.32-34.96,2.15-69.96,2.5-105c-1.15,7.29-2.15,14.63-3,22c-0.43,25.74-1.93,51.41-4.5,77c0.2,2.7,0.54,5.36,1,8
		c-1.33,0-2.67,0-4,0c-3.39,1.78-4.39,0.94-3-2.5c-0.82-1.8-1.49-3.63-2-5.5c3.66-2.16,5.99-5.33,7-9.5c-2.17-1.59-4.5-2.92-7-4
		c2.54-2.2,4.71-4.7,6.5-7.5c1.22-15.32,2.22-30.65,3-46c2.27-72.71,5.43-145.38,9.5-218c-0.17-5-0.33-10-0.5-15
		c-2.16-3.15-3.32-6.65-3.5-10.5C801.51,957.29,801.84,955.79,802.5,954.5z"/>
</g>
<g>
	<path class="st47" d="M836.5,955.5c0.96,1.77,1.29,3.77,1,6c-0.73,2.45-1.73,4.79-3,7c-3.6,0.29-7.1,0.96-10.5,2
		c-1.27,6.96-2.1,13.96-2.5,21c-1.62,0.14-2.79-0.53-3.5-2c-0.33-6-0.67-12-1-18c-2.71-2.54-5.21-5.2-7.5-8
		c6.94-1.24,13.94-2.41,21-3.5c0.53-0.69,1.19-1.19,2-1.5C836.07,961.45,837.4,960.45,836.5,955.5z"/>
</g>
<g>
	<path class="st48" d="M802.5,1131.5c1.32,10.84,1.32,21.84,0,33C801.32,1153.5,801.32,1142.5,802.5,1131.5z"/>
</g>
<g>
	<path class="st49" d="M799.5,1275.5c-0.84,1.88-1.17,3.88-1,6c-1.33,0-2.67,0-4,0c0.33,4.71-0.01,9.38-1,14
		c-0.67-3.48-1.33-6.81-2-10c0-2.67,0-5.33,0-8c1.33,0,2.67,0,4,0c-0.46-2.64-0.8-5.3-1-8c2.57-25.59,4.07-51.26,4.5-77
		c0.85-7.37,1.85-14.71,3-22C801.65,1205.54,800.82,1240.54,799.5,1275.5z"/>
</g>
<g>
	<path class="st50" d="M820.5,1256.5c3.76,0.15,7.43,0.82,11,2c1.02,1.96,1.02,3.96,0,6C825,1265.44,821.33,1262.77,820.5,1256.5z"
		/>
</g>
<g>
	<path class="st43" d="M786.5,1269.5c0.51,1.87,1.18,3.7,2,5.5c-1.39,3.44-0.39,4.28,3,2.5c0,2.67,0,5.33,0,8
		c0.16,1.7-0.01,3.37-0.5,5c-0.96-1.39-2.29-2.06-4-2c-2.27,1.36-4.77,2.03-7.5,2c-1.33,0-2.67,0-4,0c-0.71-0.9-1.71-1.24-3-1
		c-0.54-4.01-2.21-7.34-5-10c-8.45,2.53-17.12,3.69-26,3.5c-32.57,13.28-64.9,27.12-97,41.5c-0.61-0.12-0.94-0.46-1-1
		c0.84-1.67,2.18-2.84,4-3.5c33.46-14.4,67.13-28.23,101-41.5c12.67,2.17,22.67-2,30-12.5c1.33-0.67,2.67-0.67,4,0
		C783.71,1267.38,785.04,1268.54,786.5,1269.5z"/>
</g>
<g>
	<path class="st51" d="M831.5,1266.5c1.29,0.99,2.63,1.99,4,3c0.51,5.79-1.15,10.79-5,15c-0.67,0-1.33,0-2,0
		c-2.32-3.42-3.98-7.26-5-11.5C824.5,1268.84,827.16,1266.68,831.5,1266.5z"/>
</g>
<g>
	<path class="st43" d="M842.5,1269.5c23.14,8.16,46.14,16.49,69,25c0.32,3.18-1.01,4.35-4,3.5c-20.67-8.33-41.33-16.67-62-25
		C844.29,1271.96,843.29,1270.79,842.5,1269.5z"/>
</g>
<g>
	<path class="st52" d="M819.5,1307.5c0.09,6.03,1.59,11.7,4.5,17c4.18,3.1,8.18,6.43,12,10c1.71,2.46,3.04,5.12,4,8
		c4.21,18.44,8.71,36.77,13.5,55c1.13,3.65,2.13,7.32,3,11c1.44,7.25,2.1,14.59,2,22c-0.31,1.24-0.81,1.24-1.5,0
		c-5.86-28.45-12.2-56.78-19-85c-4.23-8.9-10.56-15.9-19-21c-1.95-3.78-3.28-7.78-4-12c-0.56,2.1-1.06,2.26-1.5,0.5
		c0.8-6.92,0.13-13.76-2-20.5c-0.33,0.67-0.67,1.33-1,2c1.67,5.01,2.34,10.01,2,15c-7.72-2.77-10.72-8.1-9-16
		c1.49-0.03,2.82-0.53,4-1.5c-2.84-3.67-5.84-7.17-9-10.5c-0.17-2.12,0.16-4.12,1-6c6.02-0.45,12.02-1.11,18-2c1,0.33,2,0.67,3,1
		c-2.15,2.65-4.48,5.15-7,7.5c1.43,0.47,2.6,1.3,3.5,2.5c0.15,3.73-0.35,7.39-1.5,11C815.62,1300.01,816.95,1304.01,819.5,1307.5z"
		/>
</g>
<g>
	<path class="st51" d="M852.5,1293.5c-4.49-2.08-8.83-4.41-13-7c2.33-4.5,5.83-7.83,10.5-10c3.44,1.63,6.61,3.63,9.5,6
		c-1.4,3.38-2.9,6.71-4.5,10C854.33,1293.25,853.5,1293.59,852.5,1293.5z"/>
</g>
<g>
	<path class="st24" d="M835.5,1269.5c2.33,0,4.67,0,7,0c0.79,1.29,1.79,2.46,3,3.5c20.67,8.33,41.33,16.67,62,25
		c2.99,0.85,4.32-0.32,4-3.5c2.64,1.31,4.97,2.98,7,5c4.84,4.83,10.51,6.83,17,6c4.77,0.04,9.44,0.7,14,2c2.64,2.33,5.3,4.66,8,7
		c-4.17,3.35-5.84,7.68-5,13c-4.51-1.56-9.01-3.23-13.5-5c-1.98,0.4-3.48,1.4-4.5,3c-19.3,20.8-38.47,41.8-57.5,63
		c-6.7,6.87-13.53,13.54-20.5,20c-0.87-3.68-1.87-7.35-3-11c0.67,0,1.33,0,2,0c1.05,0.15,2.05-0.02,3-0.5
		c21.83-23.83,43.67-47.67,65.5-71.5c0.49-1.29,0.66-2.63,0.5-4c-1.32-2.19-3.32-3.69-6-4.5c-22.43-6.97-44.43-14.81-66-23.5
		c1,0.09,1.83-0.25,2.5-1c1.6-3.29,3.1-6.62,4.5-10c-2.89-2.37-6.06-4.37-9.5-6c-4.67,2.17-8.17,5.5-10.5,10
		c-2.87-1.13-5.87-1.8-9-2C834.35,1280.29,836.01,1275.29,835.5,1269.5z"/>
</g>
<g>
	<path class="st28" d="M775.5,1290.5c-4.14,0.4-8.14,1.4-12,3c-2.58-3.17-5.58-5.83-9-8c-4.89,2.22-8.89,5.56-12,10
		c-1.94,1.51-2.44,3.51-1.5,6c1.62,2.26,3.45,4.26,5.5,6c-36.87,16.6-73.87,32.94-111,49c-2.45-0.56-4.78-0.56-7,0
		c41.33,27.33,82.99,54.17,125,80.5c4.92,2.92,9.25,6.58,13,11c1.92-0.13,3.92-0.3,6-0.5c4.86,0.29,9.2,1.95,13,5
		c0.67-2.47,1.34-4.8,2-7c-0.16,3.35,0,6.68,0.5,10c0.7,2.23,1.87,2.56,3.5,1c3.92,3.09,7.42,6.76,10.5,11c0.67,2,0.67,4,0,6
		c-1.08,1.57-1.91,3.23-2.5,5c0.33,2.33,1.33,2.67,3,1c1.35,1.02,2.35,2.35,3,4c0.61-0.12,0.94-0.46,1-1c0.53-2.04,1.7-3.71,3.5-5
		c1.74,1.26,3.57,2.26,5.5,3c3.49,0.97,6.32,2.97,8.5,6c-0.27-9.84-1.77-19.51-4.5-29c-1.3-5.6-2.47-11.26-3.5-17
		c-0.42-1.26-1.25-1.92-2.5-2c0.89-0.76,1.56-1.76,2-3c-1-4.67-2-9.34-3-14c-1.32,5.82-1.32,11.49,0,17
		c-1.52,5.39-3.35,10.72-5.5,16c-1.01,0.84-2.18,1.17-3.5,1c-0.61-3.22-1.78-6.22-3.5-9c-0.51,2.38-1.18,4.71-2,7
		c-0.42,1.26-1.25,1.92-2.5,2c-1.33,0-2.67,0-4,0c2.54-49.59,4.37-99.26,5.5-149c-0.33-0.33-0.67-0.67-1-1
		c-1.15,4.58-1.81,9.25-2,14c-0.98,40.72-2.98,81.39-6,122c-0.5-3.99-0.67-7.99-0.5-12c1.57-42.67,3.07-85.34,4.5-128
		c-2.76-5.43-6.92-9.1-12.5-11c2.73,0.03,5.23-0.64,7.5-2c1.71-0.06,3.04,0.61,4,2c0.49-1.63,0.66-3.3,0.5-5
		c0.67,3.19,1.33,6.52,2,10c0.99-4.62,1.33-9.29,1-14c1.33,0,2.67,0,4,0c3.16,3.33,6.16,6.83,9,10.5c-1.18,0.97-2.51,1.47-4,1.5
		c-1.72,7.9,1.28,13.23,9,16c0.34-4.99-0.33-9.99-2-15c0.33-0.67,0.67-1.33,1-2c2.13,6.74,2.8,13.58,2,20.5
		c0.44,1.76,0.94,1.6,1.5-0.5c0.72,4.22,2.05,8.22,4,12c8.44,5.1,14.77,12.1,19,21c6.8,28.22,13.14,56.55,19,85
		c0.69,1.24,1.19,1.24,1.5,0c0.99,2.58,1.99,5.24,3,8c-0.62-0.11-1.12-0.44-1.5-1c0.68,13.57,3.18,26.57,7.5,39
		c1.05,2.57,1.22,5.24,0.5,8c-4.1,7.13-6.27,14.8-6.5,23c-0.6-1.4-1.6-2.4-3-3c-0.45-5.88,0.38-11.55,2.5-17
		c-1.01-23.04-4.51-45.71-10.5-68c-0.77-1.21-1.61-1.21-2.5,0c-7,8.33-14,16.67-21,25c-0.67,3.67-0.67,7.33,0,11
		c1.49,5.94,2.66,11.94,3.5,18c-1.46-3.11-2.62-6.45-3.5-10c-1.75-10.05-3.58-20.05-5.5-30c0.67-0.33,1.33-0.67,2-1
		c0.34,1.73,1.34,2.23,3,1.5c5.9-7.06,11.57-14.23,17-21.5c2.24-1.98,3.57-4.48,4-7.5c-4.76-19.04-8.92-38.21-12.5-57.5
		c-4.31-8.14-10.47-14.47-18.5-19c-1.33,18.98-2.33,37.98-3,57c-1.65-10.31-3.82-20.64-6.5-31c0.42,14.49,2.26,28.82,5.5,43
		c-0.9,4.65-1.07,9.32-0.5,14c2,5.33,4,10.67,6,16c2.37,18.91,6.04,37.58,11,56c1,2,2,4,3,6c1.19-1.06,1.69-2.4,1.5-4
		c2.23,4.57,5.23,8.57,9,12c-0.54,0.06-0.88,0.39-1,1c2.75,5,5.09,10.17,7,15.5c-0.36,2.19-1.36,4.03-3,5.5
		c-13.2-10.79-25.87-22.29-38-34.5c-2.92-0.54-5.59-0.21-8,1c-2.07-6.4-6.41-10.4-13-12c-4.78-5.7-10.78-9.37-18-11
		c-4.32-4.25-8.65-8.58-13-13c-44.67-28.67-89.33-57.33-134-86c-7.57-3.74-14.57-2.9-21,2.5c-1.67-1.84-3.17-3.84-4.5-6
		c-0.8-1.3-1.97-1.97-3.5-2c-5.23,2.12-9.57,5.45-13,10c1.95,2.89,3.61,5.89,5,9c-1.75,1.72-3.75,3.22-6,4.5
		c-22.74,9.74-45.4,19.58-68,29.5c-12.52,5.43-24.85,11.09-37,17c-16.91,5.8-33.57,12.3-50,19.5c-2.72,0.6-5.39,0.43-8-0.5
		c-0.9-2.89-2.23-5.56-4-8c11.66-3.39,22.99-7.89,34-13.5c-0.5-0.17-1-0.33-1.5-0.5c-3.41,1.4-6.91,1.9-10.5,1.5
		c-1.86-1.42-2.36-3.25-1.5-5.5c4.93-4.93,10.43-9.1,16.5-12.5c43.55-18.94,87.22-37.61,131-56c6.23-2.22,12.57-2.72,19-1.5
		c-1.31,0.76-1.81,1.76-1.5,3c6.42-3.53,13.26-6.2,20.5-8c2.78,0.56,5.12,1.89,7,4c2.25-2.42,4.92-4.25,8-5.5
		c31.48-12.65,62.48-26.15,93-40.5c-1.57-1.13-3.24-1.3-5-0.5c-21.78,9.39-43.45,19.06-65,29c-3.12,1.73-6.45,2.56-10,2.5
		c-1.99-1.97-3.99-3.97-6-6c-2.66,2.99-5.33,5.99-8,9c-2-1-4-2-6-3c4.67-6,10.67-10,18-12c0.06,0.54,0.39,0.88,1,1
		c32.1-14.38,64.43-28.22,97-41.5c8.88,0.19,17.55-0.97,26-3.5c2.79,2.66,4.46,5.99,5,10C773.79,1289.26,774.79,1289.6,775.5,1290.5
		z"/>
</g>
<g>
	<path class="st51" d="M763.5,1293.5c-4.02,4.01-8.35,7.68-13,11c-1.93-3.6-4.6-6.6-8-9c3.11-4.44,7.11-7.78,12-10
		C757.92,1287.67,760.92,1290.33,763.5,1293.5z"/>
</g>
<g>
	<path class="st53" d="M742.5,1295.5c3.4,2.4,6.07,5.4,8,9c-1.33,1-2.67,2-4,3c-2.05-1.74-3.88-3.74-5.5-6
		C740.06,1299.01,740.56,1297.01,742.5,1295.5z"/>
</g>
<g>
	<path class="st43" d="M918.5,1299.5c5.89,1.63,11.56,3.63,17,6C929.01,1306.33,923.34,1304.33,918.5,1299.5z"/>
</g>
<g>
	<path class="st54" d="M791.5,1455.5c0,0.33,0,0.67,0,1c-1.63,1.56-2.8,1.23-3.5-1c-0.5-3.32-0.66-6.65-0.5-10c0-1.33-0.67-2-2-2
		c0.62-4.77,1.28-9.44,2-14c-0.17,4.01,0,8.01,0.5,12c3.02-40.61,5.02-81.28,6-122c0.19-4.75,0.85-9.42,2-14
		c0.33,0.33,0.67,0.67,1,1C795.87,1356.24,794.04,1405.91,791.5,1455.5z"/>
</g>
<g>
	<path class="st55" d="M949.5,1307.5c25,8.67,50,17.33,75,26c-0.28,3.73-2.28,4.89-6,3.5c-17.9-6.96-35.9-13.3-54-19
		c2.11,0.91,2.95,2.41,2.5,4.5c-1.59,2.17-2.92,4.5-4,7c-0.67,0.75-1.5,1.09-2.5,1c-2.67-1-5.33-2-8-3c-0.84-5.32,0.83-9.65,5-13
		C954.8,1312.16,952.14,1309.83,949.5,1307.5z"/>
</g>
<g>
	<path class="st24" d="M1024.5,1333.5c1.5,0.49,2.83,1.16,4,2c-1.29,1.53-1.29,3.2,0,5c3.23,1.41,6.56,2.41,10,3c0-1.67,0-3.33,0-5
		c1.5,0.49,2.83,1.16,4,2c-2.52,1.58-2.52,3.41,0,5.5c2.65,0.5,5.31,0.66,8,0.5c0-1,0-2,0-3c5.5,1.11,10.5,3.27,15,6.5
		c1.97,0.5,3.97,0.66,6,0.5c-0.15,1.05,0.02,2.05,0.5,3c1.89,1.55,3.39,3.39,4.5,5.5c-1.84,3.98-3.84,7.82-6,11.5
		c-30.96-10.93-61.96-21.76-93-32.5c-5.89-2.23-11.56-4.73-17-7.5c1,0.09,1.83-0.25,2.5-1c1.08-2.5,2.41-4.83,4-7
		c0.45-2.09-0.39-3.59-2.5-4.5c18.1,5.7,36.1,12.04,54,19C1022.22,1338.39,1024.22,1337.23,1024.5,1333.5z"/>
</g>
<g>
	<path class="st56" d="M924.5,1321.5c0.16,1.37-0.01,2.71-0.5,4c-21.83,23.83-43.67,47.67-65.5,71.5c-0.95,0.48-1.95,0.65-3,0.5
		C877.79,1371.54,900.79,1346.21,924.5,1321.5z"/>
</g>
<g>
	<path class="st57" d="M952.5,1327.5c2.67,1,5.33,2,8,3c5.44,2.77,11.11,5.27,17,7.5c31.04,10.74,62.04,21.57,93,32.5c3,4,6,8,9,12
		c-1-0.09-1.83,0.25-2.5,1c-4.87,9.91-10.37,19.41-16.5,28.5c-7.76,1.21-14.43,4.55-20,10c-1.67,0.67-3.33,0.67-5,0
		c-2.77-1.86-5.11-4.19-7-7c-3.08-0.35-6.08-1.01-9-2c-22.69-13.02-41.19-30.52-55.5-52.5c-6.67-6.67-13.33-13.33-20-20
		c-3.85-4.66-7.02-9.66-9.5-15c1.02-1.6,2.52-2.6,4.5-3C943.49,1324.27,947.99,1325.94,952.5,1327.5z"/>
</g>
<g>
	<path class="st58" d="M645.5,1335.5c-3.99,2.42-8.16,4.75-12.5,7c-0.79-1.24-1.29-2.58-1.5-4c2.67-3.01,5.34-6.01,8-9
		C641.51,1331.53,643.51,1333.53,645.5,1335.5z"/>
</g>
<g>
	<path class="st52" d="M411.5,1439.5c-2.76-2.1-4.76-4.76-6-8c1.69,1.19,3.36,1.02,5-0.5c6.15-5.24,12.48-10.24,19-15
		c50.43-22.88,101.1-45.22,152-67c6.15-2.58,12.48-3.25,19-2c8.9-2.79,17.23-6.62,25-11.5c2,1,4,2,6,3c0.21,1.42,0.71,2.76,1.5,4
		c4.34-2.25,8.51-4.58,12.5-7c3.55,0.06,6.88-0.77,10-2.5c21.55-9.94,43.22-19.61,65-29c1.76-0.8,3.43-0.63,5,0.5
		c-30.52,14.35-61.52,27.85-93,40.5c-3.08,1.25-5.75,3.08-8,5.5c-1.88-2.11-4.22-3.44-7-4c-7.24,1.8-14.08,4.47-20.5,8
		c-0.31-1.24,0.19-2.24,1.5-3c-6.43-1.22-12.77-0.72-19,1.5c-43.78,18.39-87.45,37.06-131,56c-6.07,3.4-11.57,7.57-16.5,12.5
		c-0.86,2.25-0.36,4.08,1.5,5.5c3.59,0.4,7.09-0.1,10.5-1.5c0.5,0.17,1,0.33,1.5,0.5C434.49,1431.61,423.16,1436.11,411.5,1439.5z"
		/>
</g>
<g>
	<path class="st20" d="M1028.5,1335.5c3.2,1.4,6.53,2.4,10,3c0,1.67,0,3.33,0,5c-3.44-0.59-6.77-1.59-10-3
		C1027.21,1338.7,1027.21,1337.03,1028.5,1335.5z"/>
</g>
<g>
	<path class="st51" d="M1042.5,1340.5c2.67,1,5.33,2,8,3c0,1,0,2,0,3c-2.69,0.16-5.35,0-8-0.5
		C1039.98,1343.91,1039.98,1342.08,1042.5,1340.5z"/>
</g>
<g>
	<path class="st36" d="M1079.5,1382.5c-3-4-6-8-9-12c2.16-3.68,4.16-7.52,6-11.5c-1.11-2.11-2.61-3.95-4.5-5.5
		c-0.48-0.95-0.65-1.95-0.5-3c1.96-1.52,4.3-2.18,7-2c10.32,1.81,19.15,6.48,26.5,14c0.67,2,0.67,4,0,6c-3.17,4.5-7,8.33-11.5,11.5
		C1089.23,1383.32,1084.56,1384.16,1079.5,1382.5z"/>
</g>
<g>
	<path class="st59" d="M635.5,1356.5c44.49,30.37,89.49,59.37,135,87c0.23,1.56,0.9,2.9,2,4c-2.08,0.2-4.08,0.37-6,0.5
		c-3.75-4.42-8.08-8.08-13-11c-42.01-26.33-83.67-53.17-125-80.5C630.72,1355.94,633.05,1355.94,635.5,1356.5z"/>
</g>
<g>
	<path class="st58" d="M600.5,1366.5c-4.98,4.16-10.31,7.82-16,11c-1.39-3.11-3.05-6.11-5-9c3.43-4.55,7.77-7.88,13-10
		c1.53,0.03,2.7,0.7,3.5,2C597.33,1362.66,598.83,1364.66,600.5,1366.5z"/>
</g>
<g>
	<path class="st50" d="M813.5,1385.5c2.88,15.96,5.54,31.96,8,48c1.92,9.95,3.75,19.95,5.5,30c0.88,3.55,2.04,6.89,3.5,10
		c0.69,4.08,1.69,8.08,3,12c0.19,1.6-0.31,2.94-1.5,4c-1-2-2-4-3-6c-4.96-18.42-8.63-37.09-11-56c-2-5.33-4-10.67-6-16
		c-0.57-4.68-0.4-9.35,0.5-14c-3.24-14.18-5.08-28.51-5.5-43C809.68,1364.86,811.85,1375.19,813.5,1385.5z"/>
</g>
<g>
	<path class="st43" d="M572.5,1367.5c1.26-0.04,2.26,0.46,3,1.5c-20.73,10.03-41.73,19.53-63,28.5c-0.33-0.33-0.67-0.67-1-1
		C531.71,1386.56,552.04,1376.9,572.5,1367.5z"/>
</g>
<g>
	<path class="st59" d="M506.5,1397.5c1.17-0.22,2.17,0.11,3,1c-5.42,2.79-10.92,5.46-16.5,8c-0.5-0.5-1-1-1.5-1.5
		C496.56,1402.47,501.56,1399.97,506.5,1397.5z"/>
</g>
<g>
	<path class="st60" d="M510.5,1411.5c0.79,1.29,1.79,2.46,3,3.5c12.16,8.25,24.5,16.25,37,24c5.5,6.83,11.67,13,18.5,18.5
		c0.33,2.33,0.67,4.67,1,7c2.44,3.11,3.94,6.61,4.5,10.5c-0.1,1.56-0.44,3.06-1,4.5c-8.26,4.92-13.92,11.92-17,21
		c-5.86,2.76-11.86,5.26-18,7.5c-11.82,3.2-23.48,6.87-35,11c-22.12,2.87-44.29,5.37-66.5,7.5c-7.97,0.08-15.81-0.92-23.5-3
		c-23.31,4.07-43.48-2.27-60.5-19c-5.93-8.86-11.6-17.86-17-27c-1.23-5.32-2.4-10.65-3.5-16c0.03-1.53,0.7-2.7,2-3.5
		c7.66-0.5,15.33-0.67,23-0.5c-0.39,4.58,0.45,8.91,2.5,13c15.11,19.3,34.94,27.8,59.5,25.5c2.77-1.76,4.27-4.26,4.5-7.5
		c4.39-1.75,8.22-0.92,11.5,2.5c2.77,0.86,5.6,1.36,8.5,1.5c11.32-1.95,22.66-2.61,34-2c12.21-0.74,23.71-3.9,34.5-9.5
		c0.33-0.33,0.67-0.67,1-1c-2.62-2.07-3.29-4.57-2-7.5c5.93-1.09,9.26-4.59,10-10.5c-0.58-2.5-1.92-4.5-4-6
		c-6.42-2.47-12.75-5.14-19-8c-3-1.67-5.33-4-7-7c-6.18-4.03-12.18-8.2-18-12.5C485.65,1422.59,497.98,1416.93,510.5,1411.5z"/>
</g>
<g>
	<path class="st61" d="M478.5,1409.5c1.17-0.22,2.17,0.11,3,1c-5.21,2.85-10.54,5.52-16,8c-0.89-0.82-1.22-1.82-1-3
		C469.48,1414.07,474.14,1412.07,478.5,1409.5z"/>
</g>
<g>
	<path class="st62" d="M843.5,1412.5c-5.43,7.27-11.1,14.44-17,21.5c-1.66,0.73-2.66,0.23-3-1.5
		C829.28,1424.93,835.95,1418.26,843.5,1412.5z"/>
</g>
<g>
	<path class="st63" d="M813.5,1438.5c-0.33,0-0.67,0-1,0c-1.32-5.51-1.32-11.18,0-17c1,4.66,2,9.33,3,14
		C815.06,1436.74,814.39,1437.74,813.5,1438.5z"/>
</g>
<g>
	<path class="st64" d="M422.5,1424.5c2.78,1.57,5.45,3.4,8,5.5c-4.11,1.22-8.11,2.72-12,4.5c-1-0.33-1.67-1-2-2
		C418.14,1429.53,420.14,1426.87,422.5,1424.5z"/>
</g>
<g>
	<path class="st65" d="M473.5,1428.5c5.82,4.3,11.82,8.47,18,12.5c1.67,3,4,5.33,7,7c6.25,2.86,12.58,5.53,19,8
		c2.08,1.5,3.42,3.5,4,6c-0.74,5.91-4.07,9.41-10,10.5c-1.29,2.93-0.62,5.43,2,7.5c-0.33,0.33-0.67,0.67-1,1
		c-10.79,5.6-22.29,8.76-34.5,9.5c-11.34-0.61-22.68,0.05-34,2c-2.9-0.14-5.73-0.64-8.5-1.5c-3.28-3.42-7.11-4.25-11.5-2.5
		c-0.23,3.24-1.73,5.74-4.5,7.5c-24.56,2.3-44.39-6.2-59.5-25.5c-2.05-4.09-2.89-8.42-2.5-13c1.11-0.06,2.11-0.39,3-1
		c6.84,6.92,15.18,10.92,25,12c2.47,0.82,5.14,1.32,8,1.5c9,0.17,18,0.33,27,0.5c10.71,0.1,21.38-0.4,32-1.5
		c0.91-2.49-0.09-4.15-3-5c-13.85-3.33-27.52-6.83-41-10.5c2.11-2.23,4.44-4.23,7-6c2.61,0.93,5.28,1.1,8,0.5
		C439.93,1440.8,456.59,1434.3,473.5,1428.5z"/>
</g>
<g>
	<path class="st10" d="M398.5,1429.5c2.03-0.16,4.03,0,6,0.5c0.56,0.38,0.89,0.88,1,1.5c1.24,3.24,3.24,5.9,6,8
		c1.77,2.44,3.1,5.11,4,8c-2.56,1.77-4.89,3.77-7,6c-6.41,3.57-11.74,8.41-16,14.5c-2.31,0.5-4.64,0.66-7,0.5
		c-9.82-1.08-18.16-5.08-25-12c-0.28-1.91,0.05-3.58,1-5c8.31-3.49,16.64-6.99,25-10.5c1.52-2.2,2.85-4.54,4-7
		c2.65-0.5,5.31-0.66,8-0.5C398.5,1432.17,398.5,1430.83,398.5,1429.5z"/>
</g>
<g>
	<path class="st66" d="M398.5,1429.5c0,1.33,0,2.67,0,4c-2.69-0.16-5.35,0-8,0.5c-1.15,2.46-2.48,4.8-4,7
		c-8.36,3.51-16.69,7.01-25,10.5c0.63-2.59,1.8-4.92,3.5-7C374.51,1435.94,385.67,1430.94,398.5,1429.5z"/>
</g>
<g>
	<path class="st67" d="M812.5,1438.5c0.33,0,0.67,0,1,0c1.25,0.08,2.08,0.74,2.5,2c1.03,5.74,2.2,11.4,3.5,17
		c-2.22,0.7-4.05,2.04-5.5,4c-1.67,3.68-2.84,7.51-3.5,11.5c1.87,2.37,3.54,4.87,5,7.5c-1.93-0.74-3.76-1.74-5.5-3
		c-1.8,1.29-2.97,2.96-3.5,5c-0.99-8.15-1.33-16.48-1-25c-2.69,0.16-5.35,0-8-0.5c-0.92-0.28-1.58-0.78-2-1.5
		c1.25-0.08,2.08-0.74,2.5-2c0.82-2.29,1.49-4.62,2-7c1.72,2.78,2.89,5.78,3.5,9c1.32,0.17,2.49-0.16,3.5-1
		C809.15,1449.22,810.98,1443.89,812.5,1438.5z"/>
</g>
<g>
	<path class="st68" d="M861.5,1438.5c2.65,12.56,4.65,25.23,6,38c-4.32-12.43-6.82-25.43-7.5-39
		C860.38,1438.06,860.88,1438.39,861.5,1438.5z"/>
</g>
<g>
	<path class="st69" d="M770.5,1443.5c5,0,10,0,15,0c1.33,0,2,0.67,2,2c-0.66,2.2-1.33,4.53-2,7c-3.8-3.05-8.14-4.71-13-5
		C771.4,1446.4,770.73,1445.06,770.5,1443.5z"/>
</g>
<g>
	<path class="st24" d="M408.5,1453.5c13.48,3.67,27.15,7.17,41,10.5c2.91,0.85,3.91,2.51,3,5c-10.62,1.1-21.29,1.6-32,1.5
		c-9-0.17-18-0.33-27-0.5c-2.86-0.18-5.53-0.68-8-1.5c2.36,0.16,4.69,0,7-0.5C396.76,1461.91,402.09,1457.07,408.5,1453.5z"/>
</g>
<g>
	<path class="st30" d="M791.5,1455.5c1.33,0,2.67,0,4,0c0.42,0.72,1.08,1.22,2,1.5c2.65,0.5,5.31,0.66,8,0.5
		c-0.33,8.52,0.01,16.85,1,25c-0.06,0.54-0.39,0.88-1,1c-0.65-1.65-1.65-2.98-3-4c-1.67,1.67-2.67,1.33-3-1
		c0.59-1.77,1.42-3.43,2.5-5c0.67-2,0.67-4,0-6c-3.08-4.24-6.58-7.91-10.5-11C791.5,1456.17,791.5,1455.83,791.5,1455.5z"/>
</g>
<g>
	<path class="st70" d="M819.5,1457.5c2.73,9.49,4.23,19.16,4.5,29c-2.18-3.03-5.01-5.03-8.5-6c-1.46-2.63-3.13-5.13-5-7.5
		c0.66-3.99,1.83-7.82,3.5-11.5C815.45,1459.54,817.28,1458.2,819.5,1457.5z"/>
</g>
<g>
	<path class="st71" d="M842.5,1497.5c2.94,1.12,4.94,3.12,6,6c0.85,4.73,2.02,9.4,3.5,14c0.29-2.42,0.79-4.75,1.5-7
		c0.76-2.89,2.42-4.89,5-6c1.4,0.6,2.4,1.6,3,3c0.48,7.56,1.48,15.06,3,22.5c0.24,2.26-0.76,3.43-3,3.5c-2-1.17-3.5-2.83-4.5-5
		c-1.41,3.12-1.91,6.45-1.5,10c-0.62,0.11-1.12,0.44-1.5,1c-2.88-6.42-5.72-12.76-8.5-19c0-0.33,0-0.67,0-1
		c1.64-1.47,2.64-3.31,3-5.5c-1.91-5.33-4.25-10.5-7-15.5C841.62,1497.89,841.96,1497.56,842.5,1497.5z"/>
</g>
<g>
	<path class="st24" d="M848.5,1503.5c1.42,2.51,3.09,4.84,5,7c-0.71,2.25-1.21,4.58-1.5,7
		C850.52,1512.9,849.35,1508.23,848.5,1503.5z"/>
</g>
<g>
	<path class="st72" d="M845.5,1520.5c2.78,6.24,5.62,12.58,8.5,19c0.38-0.56,0.88-0.89,1.5-1c-3.36,8.74-5.69,17.74-7,27
		c-0.97-1.31-2.3-1.97-4-2c11.65,80.36,25.48,160.36,41.5,240c2.95,11.78,9.78,20.44,20.5,26c3,0,6,0,9,0c0.19,3.95,0.69,3.95,1.5,0
		c1.69-8.2,3.52-16.37,5.5-24.5c-13.8-80.36-28.63-160.52-44.5-240.5c-0.96-2.88-2.29-5.54-4-8c-5.37-5.07-10.04-10.74-14-17
		c-0.85-2.99,0.32-4.32,3.5-4c0.26,2.52,1.09,4.85,2.5,7c8.36,6.69,13.69,15.36,16,26c16.01,79.05,31.34,158.05,46,237
		c0.5-2.65,0.66-5.31,0.5-8c2.08,2.18,3.08,4.84,3,8c-0.71,3.75-1.71,7.41-3,11c-2.94,4.48-5.77,9.14-8.5,14
		c-0.5,2.98-0.66,5.98-0.5,9c1.6-0.27,2.93,0.07,4,1c-3.73,0.18-7.4-0.16-11-1c-0.58-3.42-1.91-6.42-4-9c-0.33,0.33-0.67,0.67-1,1
		c2.65,2.7,2.65,5.37,0,8c-1.51-4.02-4.18-7.02-8-9c-8.67-5.85-14.5-13.85-17.5-24c-13.15-76.72-26.48-153.39-40-230
		c-0.67-6.33-0.67-12.67,0-19c2.51-7.01,5.01-14.01,7.5-21C848.36,1531.09,847.03,1525.76,845.5,1520.5z"/>
</g>
<g>
	<path class="st73" d="M863.5,1535.5c10.28,6.46,17.45,15.46,21.5,27c15.98,78.05,30.48,156.39,43.5,235c0.16,2.69,0,5.35-0.5,8
		c-14.66-78.95-29.99-157.95-46-237c-2.31-10.64-7.64-19.31-16-26C864.59,1540.35,863.76,1538.02,863.5,1535.5z"/>
</g>
<g>
	<path class="st74" d="M848.5,1565.5c0.05,3.7,0.39,7.36,1,11c4.86,36.84,10.7,73.51,17.5,110c6.77,36.27,13.43,72.6,20,109
		c0.72,3.29,1.89,6.29,3.5,9c0.73,2.68,1.56,5.35,2.5,8c3.67,5,8,9.33,13,13c0.49,1.29,0.66,2.63,0.5,4
		c-10.72-5.56-17.55-14.22-20.5-26c-16.02-79.64-29.85-159.64-41.5-240C846.2,1563.53,847.53,1564.19,848.5,1565.5z"/>
</g>
<g>
	<path class="st75" d="M849.5,1576.5c14.45,75.74,28.12,151.74,41,228c-1.61-2.71-2.78-5.71-3.5-9c-6.57-36.4-13.23-72.73-20-109
		C860.2,1650.01,854.36,1613.34,849.5,1576.5z"/>
</g>
<g>
	<path class="st57" d="M1037.5,1979.5c-14.33,0-28.67,0-43,0c3.24-6.43,6.74-12.76,10.5-19c2.23-4.46,3.9-9.13,5-14
		c4.38-21.59,8.38-43.25,12-65c2.21-8.71,4.54-17.38,7-26c1.13-6.25,0.46-12.25-2-18c-6.9-4.65-14.57-6.65-23-6
		c-25.76,2.25-50.93,7.25-75.5,15c-0.94-2.61-2.61-4.61-5-6c-1.07-0.93-2.4-1.27-4-1c-0.16-3.02,0-6.02,0.5-9
		c2.73-4.86,5.56-9.52,8.5-14c-0.13,0.74,0.04,1.41,0.5,2c31.05-7.75,62.55-10.25,94.5-7.5c24.65,2.77,33.82,16.27,27.5,40.5
		C1045.79,1894.12,1041.29,1936.79,1037.5,1979.5z"/>
</g>
<g>
	<path class="st57" d="M899.5,1830.5c3.82,1.98,6.49,4.98,8,9c-0.62,1.13-1.46,2.13-2.5,3c-0.73,7.37-0.56,14.7,0.5,22c0,3,0,6,0,9
		c-1.48-1.59-2.98-3.26-4.5-5c-6.3,4.62-10.63,10.62-13,18c-1.83,8.97-3.49,17.97-5,27c-3.32,19.77,0.85,37.61,12.5,53.5
		c3,2.5,6.34,4.5,10,6c2.04,1.93,3.71,4.09,5,6.5c-20.33,0-40.67,0-61,0c-0.76-12.33-0.93-24.66-0.5-37c3.78-21.21,8.44-42.21,14-63
		c2.89-7.44,6.55-14.44,11-21c7.67-9,16-17.33,25-25C899.48,1832.55,899.65,1831.55,899.5,1830.5z"/>
</g>
<g>
	<path class="st65" d="M994.5,1979.5c-28,0-56,0-84,0c-1.29-2.41-2.96-4.57-5-6.5c-3.66-1.5-7-3.5-10-6
		c-11.65-15.89-15.82-33.73-12.5-53.5c1.51-9.03,3.17-18.03,5-27c2.37-7.38,6.7-13.38,13-18c1.52,1.74,3.02,3.41,4.5,5
		c0.78,5.67,1.78,11.34,3,17c-0.03,7.59,2.97,13.59,9,18c5.73,3.23,11.07,7.06,16,11.5c21.43,1.64,39.27-5.53,53.5-21.5
		c4.2-5.61,6.2-11.95,6-19c1.75-3.83,3.75-7.49,6-11c1.1-4.01,0.27-7.51-2.5-10.5c-5.25-1.51-10.58-1.84-16-1
		c-13.79,7.31-27.62,14.48-41.5,21.5c-2.95-7.36-5.78-14.69-8.5-22c-0.67-3.33-1.33-6.67-2-10c24.57-7.75,49.74-12.75,75.5-15
		c8.43-0.65,16.1,1.35,23,6c2.46,5.75,3.13,11.75,2,18c-2.46,8.62-4.79,17.29-7,26c-3.62,21.75-7.62,43.41-12,65
		c-1.1,4.87-2.77,9.54-5,14C1001.24,1966.74,997.74,1973.07,994.5,1979.5z"/>
</g>
<g>
	<path class="st76" d="M912.5,1839.5c-0.34,18.96,0.5,37.96,2.5,57c1.67,3.52,2.84,7.19,3.5,11c4,0,8,0,12,0
		c-4.13,0.98-8.47,1.32-13,1c-6.03-4.41-9.03-10.41-9-18c1.08-0.04,2.08-0.37,3-1c1.16-2.95,1.32-5.95,0.5-9
		c-1.19-7.64-2.19-15.31-3-23c-0.41-0.46-0.91-0.79-1.5-1c-0.67,2.81-1.33,5.47-2,8c-1.06-7.3-1.23-14.63-0.5-22
		c1.04-0.87,1.88-1.87,2.5-3c2.65-2.63,2.65-5.3,0-8c0.33-0.33,0.67-0.67,1-1C910.59,1833.08,911.92,1836.08,912.5,1839.5z"/>
</g>
<g>
	<path class="st10" d="M912.5,1839.5c3.6,0.84,7.27,1.18,11,1c2.39,1.39,4.06,3.39,5,6c0.67,3.33,1.33,6.67,2,10
		c3.18,15.04,6.51,30.04,10,45c-3.21,1.77-6.21,3.77-9,6c-0.33,0-0.67,0-1,0c-4,0-8,0-12,0c-0.66-3.81-1.83-7.48-3.5-11
		C913,1877.46,912.16,1858.46,912.5,1839.5z"/>
</g>
<g>
	<path class="st77" d="M908.5,1890.5c-1.22-5.66-2.22-11.33-3-17c0-3,0-6,0-9c0.67-2.53,1.33-5.19,2-8c0.59,0.21,1.09,0.54,1.5,1
		c0.81,7.69,1.81,15.36,3,23c0.82,3.05,0.66,6.05-0.5,9C910.58,1890.13,909.58,1890.46,908.5,1890.5z"/>
</g>
<g>
	<path class="st24" d="M930.5,1856.5c2.72,7.31,5.55,14.64,8.5,22c13.88-7.02,27.71-14.19,41.5-21.5c5.42-0.84,10.75-0.51,16,1
		c2.77,2.99,3.6,6.49,2.5,10.5c-2.25,3.51-4.25,7.17-6,11c0.2,7.05-1.8,13.39-6,19c-14.23,15.97-32.07,23.14-53.5,21.5
		c-4.93-4.44-10.27-8.27-16-11.5c4.53,0.32,8.87-0.02,13-1c0.33,0,0.67,0,1,0c4.94,0.71,7.94-1.29,9-6
		C937.01,1886.54,933.68,1871.54,930.5,1856.5z"/>
</g>
<g>
	<path class="st78" d="M940.5,1901.5c-1.06,4.71-4.06,6.71-9,6C934.29,1905.27,937.29,1903.27,940.5,1901.5z"/>
</g>
</svg>
